{
.appVersion = "3151";
.formatVersion = 3;
DisplayStrings = (
"adhesion
Hamburgfontsiv
ARROWROOT BARLEY CHERVIL DUMPLING ENDIVE FLAXSEED GARBANZO HIJIKI ISHTU JICAMA KALE LYCHEE MARJORAM NECTARINE OXTAIL PIZZA QUINOA ROQUEFORT SQUASH TOFU UPPUMA VANILLA WHEAT XERGIS YOGURT ZWEIBACK 0 1 2 3 4 5 6 7 8 9 ! ?",
"/sinFa.reph",
"ð‘‡¥",
"ð‘‡«",
"ð‘‡ª",
"/.notdef",
"à¶±"
);
customParameters = (
{
name = glyphOrder;
value = (
sinA,
sinAa,
sinAe,
sinAae,
sinI,
sinIi,
sinU,
sinUu,
sinRVocalic,
sinRrVocalic,
sinLVocalic,
sinLlVocalic,
sinE,
sinEe,
sinAi,
sinO,
sinOo,
sinAu,
sinKa,
sinKha,
sinGa,
sinGha,
sinNga,
sinNnga,
sinCa,
sinCha,
sinJa,
sinJha,
sinNya,
sinJnya,
sinNyja,
sinTta,
sinTtha,
sinDda,
sinDdha,
sinNna,
sinNndda,
sinTa,
sinTha,
sinDa,
sinDha,
sinNa,
sinNda,
sinPa,
sinPha,
sinBa,
sinBha,
sinMa,
sinMba,
sinYa,
sinRa,
sinLa,
sinVa,
sinSha,
sinSsa,
sinSa,
sinHa,
sinLla,
sinFa,
sinPfa,
sinKSsa,
sinKVa,
sinTVa,
sinTTha,
sinNDa,
sinNDha,
sinNVa,
sinNTha,
sinGDha,
sinDVa,
sinDDha,
sinTtTtha,
sinNyCa,
sinMatraAa,
sinMatraAae,
sinMatraAe,
sinMatraAi,
sinMatraAu,
sinMatraE,
sinMatraEe,
sinMatraI,
sinMatraIi,
sinMatraLl,
sinMatraLs,
sinMatraO,
sinMatraOo,
sinMatraR,
sinMatraRr,
sinMatraU,
sinMatraUu,
sinVirama,
sinRakar,
sinReph,
sinYansaya,
sinAnusvara,
sinVisarga,
sinMatraAa.virama,
sinTouch,
sinK.virama,
sinKh.virama,
sinG.virama,
sinGh.virama,
sinNg.virama,
sinNng.virama,
sinC.virama,
sinCh.virama,
sinJ.virama,
sinJh.virama,
sinNy.virama,
sinJny.virama,
sinNyj.virama,
sinTt.virama,
sinTth.virama,
sinDd.virama,
sinDdh.virama,
sinNn.virama,
sinNndd.virama,
sinT.virama,
sinTh.virama,
sinD.virama,
sinDh.virama,
sinN.virama,
sinNd.virama,
sinP.virama,
sinPh.virama,
sinB.virama,
sinBh.virama,
sinM.virama,
sinMb.virama,
sinY.virama,
sinR.virama,
sinL.virama,
sinV.virama,
sinSh.virama,
sinSs.virama,
sinS.virama,
sinH.virama,
sinLl.virama,
sinF.virama,
sinPf.virama,
sinKSs.virama,
sinKV.virama,
sinTV.virama,
sinTTh.virama,
sinND.virama,
sinNDh.virama,
sinNV.virama,
sinNTh.virama,

glyphs = (
{
glyphname = sinA;
lastChange = "2024-04-01 07:38:10 +0000";
layers = (
{
layerId = "51BB9282-3B82-4DF1-A67A-294D3E37D73A";
shapes = (
{
closed = 1;
nodes = (
(349,-15,o),
(439,-5,o),
(486,19,c),
(488,25,o),
(489,33,o),
(489,42,cs),
(489,58,o),
(486,76,o),
(481,89,c),
(410,34,o),
(349,22,o),
(293,22,cs),
(170,22,o),
(101,81,o),
(101,159,cs),
(101,224,o),
(150,287,o),
(228,287,cs),
(259,287,o),
(296,277,o),
(320,262,c),
(333,272,l),
(334,280,o),
(335,291,o),
(335,299,cs),
(335,395,o),
(268,465,o),
(179,465,cs),
(113,465,o),
(77,429,o),
(77,388,cs),
(77,353,o),
(101,336,o),
(118,335,c),
(129,381,o),
(171,414,o),
(216,414,cs),
(260,414,o),
(287,382,o),
(287,326,cs),
(287,299,o),
(281,293,o),
(279,290,c),
(311,320,l),
(286,323,o),
(267,325,o),
(246,325,cs),
(114,325,o),
(22,259,o),
(22,157,cs),
(22,40,o),
(143,-15,o),
(287,-15,cs)
);
},
{
closed = 1;
nodes = (
(418,-227,l),
(411,229,l),
(390,214,l),
(474,221,o),
(521,269,o),
(521,332,cs),
(521,397,o),
(471,418,o),
(419,461,c),
(403,454,l),
(390,438,o),
(367,399,o),
(367,361,cs),
(365,91,o),
(365,60,o),
(353,-227,c)
);
},
{
closed = 1;
nodes = (
(410,325,ls),
(410,363,o),
(409,380,o),
(420,421,c),
(459,389,o),
(472,362,o),
(472,327,cs),
(472,285,o),
(451,261,o),
(410,252,c)
);
}
);
width = 551;
}
);
unicode = 3461;
},
{
glyphname = sinI;
lastChange = "2024-04-01 07:38:10 +0000";
layers = (
{
layerId = "51BB9282-3B82-4DF1-A67A-294D3E37D73A";
shapes = (
{
closed = 1;
nodes = (
(520,-31,o),
(603,94,o),
(603,244,cs),
(603,402,o),
(480,470,o),
(351,470,cs),
(201,470,o),
(60,387,o),
(60,215,cs),
(60,131,o),
(117,38,o),
(250,38,cs),
(404,38,o),
(440,160,o),
(440,230,cs),
(440,301,o),
(389,333,o),
(340,333,cs),
(283,333,o),
(246,295,o),
(246,245,cs),
(246,207,o),
(269,174,o),
(327,174,cs),
(392,174,o),
(412,213,o),
(414,218,c),
(416,245,l),
(416,245,o),
(379,213,o),
(336,213,cs),
(303,213,o),
(278,230,o),
(278,246,cs),
(278,269,o),
(302,279,o),
(333,279,cs),
(367,279,o),
(410,259,o),
(410,217,cs),
(410,178,o),
(358,104,o),
(260,104,cs),
(162,104,o),
(96,157,o),
(96,226,cs),
(96,344,o),
(192,402,o),
(315,402,cs),
(500,402,o),
(567,316,o),
(567,228,cs),
(567,101,o),
(448,-15,o),
(217,-12,c),
(216,-34,o),
(224,-58,o),
(233,-78,c)
);
},
{
closed = 1;
nodes = (
(423,-253,o),
(477,-173,o),
(477,-135,cs),
(477,-81,o),
(427,-56,o),
(375,-56,cs),
(355,-56,o),
(335,-59,o),
(317,-61,c),
(230,-50,l),
(233,-78,l),
(381,-78,o),
(425,-103,o),
(425,-140,cs),
(425,-170,o),
(393,-191,o),
(327,-191,cs),
(261,-191,o),
(203,-168,o),
(195,-165,c),
(192,-173,o),
(188,-182,o),
(188,-200,cs),
(188,-212,o),
(191,-234,o),
(204,-249,c),
(227,-252,o),
(248,-255,o),
(269,-255,cs)
);
}
);
userData = {
com.typemytype.robofont.layerData = {
"Regular Nov 5 16, 14:31" = {
anchors = (
);
components = (
);
contours = (
{
points = (
{
segmentType = curve;
smooth = 0;
x = 275.133;
y = -320;
},
{
smooth = 0;
x = 493.49;
y = -351.212;
},
{
smooth = 0;
x = 638.41;
y = -272.795;
},
{
segmentType = curve;
smooth = 1;
x = 643.204;
y = -166;
},
{
smooth = 0;
x = 648.672;
y = -44.881;
},
{
smooth = 0;
x = 507.437;
y = -28;
},
{
segmentType = curve;
smooth = 0;
x = 507.437;
y = -28;
},
{
segmentType = line;
smooth = 0;
x = 368.432;
y = -19;
},
{
segmentType = line;
smooth = 0;
x = 363.55;
y = -74;
},
{
smooth = 0;
x = 491.874;
y = -73.686;
},
{
smooth = 0;
x = 543.527;
y = -89.077;
},
{
segmentType = curve;
smooth = 1;
x = 542.938;
y = -152;
},
{
smooth = 0;
x = 542.344;
y = -215.458;
},
{
smooth = 0;
x = 439.443;
y = -280.771;
},
{
segmentType = curve;
smooth = 0;
x = 263.326;
y = -240;
},
{
smooth = 0;
x = 252.43;
y = -267.338;
},
{
smooth = 0;
x = 267.87;
y = -310.09;
}
);
},
{
points = (
{
segmentType = curve;
smooth = 1;
x = 104.774;
y = 321;
},
{
smooth = 0;
x = 105;
y = 162;
},
{
smooth = 0;
x = 202.184;
y = 78.812;
},
{
segmentType = curve;
smooth = 1;
x = 338.563;
y = 78;
},
{
smooth = 0;
x = 496.363;
y = 77.06;
},
{
smooth = 0;
x = 575.313;
y = 169.413;
},
{
segmentType = curve;
smooth = 1;
x = 582.102;
y = 260;
},
{
smooth = 0;
x = 588.84;
y = 349.074;
},
{
smooth = 0;
x = 531.985;
y = 414.08;
},
{
segmentType = curve;
smooth = 1;
x = 462.226;
y = 415;
},
{
smooth = 0;
x = 388.605;
y = 416.035;
},
{
smooth = 0;
x = 335.713;
y = 367.065;
},
{
segmentType = curve;
smooth = 1;
x = 332.355;
y = 303;
},
{
smooth = 0;
x = 329.211;
y = 243;
},
{
smooth = 0;
x = 366.598;
y = 194.619;
},
{
segmentType = curve;
smooth = 1;
x = 445.643;
y = 194;
},
{
smooth = 0;
x = 532.394;
y = 193.32;
},
{
smooth = 0;
x = 559.25;
y = 263;
},
{
segmentType = curve;
smooth = 0;
x = 560.626;
y = 270;
},
{
segmentType = line;
smooth = 1;
x = 549.779;
y = 292;
},
{
smooth = 0;
x = 549.779;
y = 292;
},
{
smooth = 0;
x = 515.556;
y = 239;
},
{
segmentType = curve;
smooth = 1;
x = 460;
y = 239;
},
{
smooth = 0;
x = 415.796;
y = 239;
},
{
smooth = 0;
x = 385.154;
y = 261;
},
{
segmentType = curve;
smooth = 1;
x = 387.041;
y = 297;
},
{
smooth = 0;
x = 388.57;
y = 326.177;
},
{
smooth = 0;
x = 417.233;
y = 349;
},
{
segmentType = curve;
smooth = 1;
x = 455.767;
y = 349;
},
{
smooth = 0;
x = 501.463;
y = 349;
},
{
smooth = 0;
x = 545.692;
y = 309.436;
},
{
segmentType = curve;
smooth = 1;
x = 542.683;
y = 252;
},
{
smooth = 0;
x = 539.832;
y = 197.604;
},
{
smooth = 0;
x = 446.919;
y = 157.347;
},
{
segmentType = curve;
smooth = 1;
x = 335.28;
y = 168;
},
{
smooth = 0;
x = 240.734;
y = 177.022;
},
{
smooth = 0;
x = 161;
y = 226;
},
{
segmentType = curve;
smooth = 1;
x = 159;
y = 339;
},
{
smooth = 0;
x = 156;
y = 457;
},
{
smooth = 0;
x = 316;
y = 529;
},
{
segmentType = curve;
smooth = 1;
x = 487;
y = 522;
},
{
smooth = 0;
x = 662;
y = 515;
},
{
smooth = 0;
x = 733.907;
y = 388.635;
},
{
segmentType = curve;
smooth = 1;
x = 728.73;
y = 262;
},
{
smooth = 0;
x = 722.053;
y = 98.634;
},
{
smooth = 0;
x = 552.276;
y = -7.808;
},
{
segmentType = curve;
smooth = 0;
x = 331.166;
y = -5;
},
{
smooth = 0;
x = 326.07;
y = -25.909;
},
{
smooth = 0;
x = 334.116;
y = -63.182;
},
{
segmentType = curve;
smooth = 0;
x = 352.497;
y = -75;
},
{
smooth = 0;
x = 630.956;
y = -66.199;
},
{
smooth = 0;
x = 806;
y = 80;
},
{
segmentType = curve;
smooth = 1;
x = 806.932;
y = 314;
},
{
smooth = 0;
x = 808;
y = 522;
},
{
smooth = 0;
x = 643.643;
y = 623;
},
{
segmentType = curve;
smooth = 1;
x = 464.65;
y = 623;
},
{
smooth = 0;
x = 278.058;
y = 623;
},
{
smooth = 0;
x = 105;
y = 515;
}
);
}
);
lib = {
};
name = sinI;
unicodes = (
);
width = 867;
};
};
};
width = 663;
}
);
unicode = 3465;
},
{
glyphname = sinIi;
lastChange = "2024-04-01 07:38:10 +0000";
layers = (
{
layerId = "51BB9282-3B82-4DF1-A67A-294D3E37D73A";
shapes = (
{
closed = 1;
nodes = (
(246,531,o),
(267,554,o),
(267,581,cs),
(267,603,o),
(247,621,o),
(224,621,cs),
(199,621,o),
(177,598,o),
(177,571,cs),
(177,549,o),
(198,531,o),
(221,531,cs)
);
},
{
ref = sinRa;
},
{
closed = 1;
nodes = (
(483,428,o),
(503,450,o),
(503,476,cs),
(503,498,o),
(487,514,o),
(465,514,cs),
(439,514,o),
(417,492,o),
(417,466,cs),
(417,444,o),
(435,428,o),
(457,428,cs)
);
}
);
width = 538;
}
);
metricLeft = sinRa;
metricRight = sinRa;
unicode = 3466;
},
{
glyphname = sinU;
lastChange = "2024-04-01 07:38:10 +0000";
layers = (
{
layerId = "51BB9282-3B82-4DF1-A67A-294D3E37D73A";
shapes = (
{
closed = 1;
nodes = (
(532,-213,o),
(590,-152,o),
(615,-125,c),
(615,-109,o),
(610,-91,o),
(601,-87,c),
(571,-108,o),
(499,-127,o),
(408,-127,cs),
(218,-127,o),
(86,-57,o),
(86,62,cs),
(86,223,o),
(232,258,o),
(343,258,cs),
(365,258,o),
(461,257,o),
(486,253,c),
(504,270,l),
(506,280,o),
(506,291,o),
(506,301,cs),
(506,393,o),
(449,484,o),
(349,484,cs),
(277,484,o),
(220,449,o),
(220,394,cs),
(220,364,o),
(244,351,o),
(267,351,cs),
(270,351,o),
(274,351,o),
(277,352,c),
(288,401,o),
(308,447,o),
(368,447,cs),
(419,447,o),
(450,400,o),
(450,347,cs),
(450,333,o),
(447,319,o),
(443,305,c),
(464,322,l),
(455,325,o),
(421,333,o),
(347,333,cs),
(331,333,ls),
(207,333,o),
(45,249,o),
(45,49,cs),
(45,-91,o),
(143,-213,o),
(391,-213,cs)
);
}
);
width = 600;
}
);
unicode = 3467;
},
{
glyphname = sinRVocalic;
lastChange = "2024-04-01 07:38:10 +0000";
layers = (
{
layerId = "51BB9282-3B82-4DF1-A67A-294D3E37D73A";
shapes = (
{
closed = 1;
nodes = (
(568,-22,o),
(643,44,o),
(643,145,cs),
(643,234,o),
(588,315,o),
(480,316,cs),
(436,316,o),
(425,306,o),
(394,295,c),
(441,290,l),
(431,302,o),
(427,312,o),
(424,347,cs),
(421,382,o),
(455,417,o),
(493,417,cs),
(533,417,o),
(572,391,o),
(572,350,cs),
(572,323,o),
(554,288,o),
(551,282,c),
(574,295,o),
(634,318,o),
(630,373,cs),
(625,420,o),
(595,462,o),
(518,462,cs),
(426,462,o),
(381,388,o),
(381,282,cs),
(381,272,o),
(381,262,o),
(382,252,c),
(393,243,l),
(425,255,o),
(457,263,o),
(488,263,cs),
(550,261,o),
(608,236,o),
(608,164,cs),
(608,110,o),
(559,59,o),
(490,59,cs),
(403,59,o),
(361,98,o),
(361,150,cs),
(361,156,o),
(361,161,o),
(362,166,c),
(356,165,o),
(350,162,o),
(345,161,c),
(329,89,o),
(288,59,o),
(220,59,cs),
(146,59,o),
(95,88,o),
(89,141,cs),
(84,189,o),
(141,249,o),
(255,249,cs),
(275,249,o),
(297,247,o),
(320,243,c),
(330,254,l),
(333,266,o),
(334,279,o),
(334,293,cs),
(334,370,o),
(291,463,o),
(200,463,cs),
(138,463,o),
(102,427,o),
(102,387,cs),
(102,351,o),
(136,333,o),
(161,332,c),
(166,370,o),
(188,409,o),
(228,409,cs),
(260,409,o),
(290,365,o),
(290,327,cs),
(290,317,o),
(288,308,o),
(283,300,c),
(205,299,ls),
(104,296,o),
(58,210,o),
(58,135,cs),
(58,66,o),
(94,-20,o),
(207,-20,cs),
(305,-20,o),
(346,57,o),
(357,95,c),
(358,97,o),
(336,108,o),
(337,109,c),
(336,103,o),
(335,96,o),
(335,90,cs),
(335,33,o),
(388,-22,o),
(486,-22,cs)
);
},
{
pos = (648,0);
ref = sinMatraR;
}
);
width = 996;
}
);
unicode = 3469;
},
{
glyphname = sinLVocalic;
lastChange = "2024-04-01 07:38:10 +0000";
layers = (
{
layerId = "51BB9282-3B82-4DF1-A67A-294D3E37D73A";
shapes = (
{
closed = 1;
nodes = (
(587,-20,o),
(704,70,o),
(704,203,cs),
(704,283,o),
(643,330,o),
(562,330,cs),
(523,330,o),
(496,323,o),
(474,312,c),
(506,290,l),
(498,301,o),
(492,326,o),
(492,345,cs),
(492,398,o),
(544,417,o),
(577,417,cs),
(614,417,o),
(647,395,o),
(647,358,cs),
(647,322,o),
(626,306,o),
(621,299,c),
(634,285,l),
(661,295,o),
(698,321,o),
(698,375,cs),
(698,419,o),
(658,463,o),
(594,463,cs),
(499,463,o),
(456,391,o),
(456,299,cs),
(456,288,o),
(457,276,o),
(458,264,c),
(468,256,l),
(501,270,o),
(535,281,o),
(570,281,cs),
(624,281,o),
(671,259,o),
(671,203,cs),
(671,127,o),
(573,63,o),
(440,63,cs),
(283,63,o),
(201,116,o),
(201,179,cs),
(201,239,o),
(260,268,o),
(346,268,cs),
(365,268,o),
(386,266,o),
(408,263,c),
(419,275,l),
(423,292,o),
(425,312,o),
(425,332,cs),
(425,394,o),
(400,461,o),
(307,461,cs),
(246,461,o),
(208,427,o),
(208,390,cs),
(208,360,o),
(228,347,o),
(246,346,c),
(253,377,o),
(291,411,o),
(334,411,cs),
(375,411,o),
(390,387,o),
(390,356,cs),
(390,323,o),
(370,303,o),
(360,294,c),
(397,323,l),
(385,325,o),
(373,326,o),
(362,326,cs),
(266,326,o),
(169,269,o),
(169,169,cs),
(169,78,o),
(240,-20,o),
(444,-20,cs)
);
},
{
closed = 1;
nodes = (
(148,-8,o),
(164,3,o),
(168,8,c),
(149,40,o),
(120,92,o),
(120,182,cs),
(120,304,o),
(177,406,o),
(266,414,c),
(307,461,l),
(158,461,o),
(66,338,o),
(66,197,cs),
(66,88,o),
(109,25,o),
(136,-11,c)
);
},
{
closed = 1;
nodes = (
(778,25,o),
(814,104,o),
(814,203,cs),
(814,354,o),
(737,463,o),
(595,463,c),
(637,415,l),
(704,407,o),
(762,320,o),
(762,198,cs),
(762,108,o),
(738,41,o),
(720,8,c),
(725,2,o),
(742,-8,o),
(752,-10,c)
);
}
);
width = 883;
}
);
unicode = 3471;
},
{
glyphname = sinE;
lastChange = "2024-04-01 07:38:10 +0000";
layers = (
{
layerId = "51BB9282-3B82-4DF1-A67A-294D3E37D73A";
shapes = (
{
closed = 1;
nodes = (
(505,-32,o),
(615,105,o),
(615,283,cs),
(615,488,o),
(426,631,o),
(265,631,c),
(239,567,l),
(383,567,o),
(571,465,o),
(571,298,cs),
(571,170,o),
(492,60,o),
(343,56,cs),
(233,53,o),
(142,78,o),
(142,135,cs),
(142,192,o),
(215,220,o),
(293,220,cs),
(313,220,o),
(334,219,o),
(354,216,c),
(369,228,l),
(370,235,o),
(371,246,o),
(371,256,cs),
(371,327,o),
(323,414,o),
(219,414,cs),
(174,414,o),
(133,389,o),
(133,346,cs),
(133,319,o),
(154,300,o),
(193,304,c),
(193,313,o),
(210,357,o),
(258,357,cs),
(296,357,o),
(331,326,o),
(332,275,c),
(219,272,o),
(101,225,o),
(101,122,cs),
(101,36,o),
(184,-32,o),
(325,-32,cs)
);
},
{
closed = 1;
nodes = (
(67,208,o),
(171,256,o),
(294,263,c),
(338,275,l),
(250,275,o),
(94,271,o),
(30,259,c),
(24,242,o),
(21,212,o),
(20,189,c),
(30,181,l)
);
},
{
closed = 1;
nodes = (
(444,418,o),
(522,434,o),
(546,455,c),
(538,476,l),
(517,467,o),
(464,462,o),
(428,462,cs),
(377,462,o),
(324,475,o),
(294,514,cs),
(268,548,o),
(269,604,o),
(265,631,c),
(234,615,l),
(232,606,o),
(229,585,o),
(229,566,cs),
(229,538,o),
(235,509,o),
(248,483,cs),
(272,435,o),
(329,418,o),
(387,418,cs)
);
}
);
width = 667;
}
);
unicode = 3473;
},
{
glyphname = sinEe;
lastChange = "2024-04-01 07:38:10 +0000";
layers = (
{
layerId = "51BB9282-3B82-4DF1-A67A-294D3E37D73A";
shapes = (
{
closed = 1;
nodes = (
(496,-32,o),
(595,105,o),
(595,273,cs),
(595,488,o),
(366,631,o),
(205,631,c),
(179,567,l),
(323,567,o),
(551,465,o),
(551,288,cs),
(551,170,o),
(482,60,o),
(323,56,cs),
(223,53,o),
(122,78,o),
(122,135,cs),
(122,192,o),
(195,220,o),
(273,220,cs),
(293,220,o),
(314,219,o),
(334,216,c),
(349,228,l),
(350,235,o),
(351,246,o),
(351,256,cs),
(351,327,o),
(293,414,o),
(189,414,cs),
(144,414,o),
(113,389,o),
(113,346,cs),
(113,319,o),
(134,300,o),
(173,304,c),
(173,313,o),
(190,357,o),
(238,357,cs),
(276,357,o),
(311,326,o),
(312,275,c),
(199,272,o),
(81,225,o),
(81,122,cs),
(81,36,o),
(174,-32,o),
(305,-32,cs)
);
},
{
closed = 1;
nodes = (
(47,208,o),
(151,256,o),
(274,263,c),
(318,275,l),
(230,275,o),
(74,271,o),
(10,259,c),
(4,242,o),
(1,212,o),
(0,189,c),
(10,181,l)
);
},
{
closed = 1;
nodes = (
(386,413,o),
(462,429,o),
(486,450,c),
(478,476,l),
(457,467,o),
(404,462,o),
(368,462,cs),
(317,462,o),
(264,475,o),
(234,514,cs),
(208,548,o),
(209,604,o),
(205,631,c),
(174,615,l),
(172,606,o),
(169,585,o),
(169,566,cs),
(169,538,o),
(175,509,o),
(188,483,cs),
(212,435,o),
(278,413,o),
(336,413,cs)
);
},
{
pos = (556,17);
ref = sinVirama;
}
);
width = 673;
}
);
unicode = 3474;
},
{
glyphname = sinO;
lastChange = "2024-04-01 07:38:10 +0000";
layers = (
{
layerId = "51BB9282-3B82-4DF1-A67A-294D3E37D73A";
shapes = (
{
closed = 1;
nodes = (
(564,-15,o),
(623,130,o),
(623,275,cs),
(623,450,o),
(543,614,o),
(293,614,cs),
(208,614,o),
(132,593,o),
(85,558,c),
(78,544,o),
(80,505,o),
(87,497,c),
(130,524,o),
(204,547,o),
(296,547,cs),
(486,547,o),
(580,461,o),
(580,291,cs),
(580,184,o),
(536,72,o),
(425,72,cs),
(373,72,o),
(332,102,o),
(332,149,cs),
(332,154,o),
(332,159,o),
(333,164,c),
(313,159,l),
(299,104,o),
(265,70,o),
(204,70,cs),
(113,70,o),
(65,128,o),
(65,213,cs),
(65,305,o),
(137,335,o),
(164,338,c),
(155,366,l),
(155,363,o),
(143,177,o),
(330,177,cs),
(428,177,o),
(477,239,o),
(477,322,cs),
(477,401,o),
(420,465,o),
(349,465,cs),
(275,465,o),
(247,415,o),
(247,368,cs),
(247,319,o),
(280,287,o),
(327,287,cs),
(376,287,o),
(414,321,o),
(414,377,cs),
(414,390,o),
(412,406,o),
(406,423,c),
(392,426,l),
(388,347,o),
(350,335,o),
(326,335,cs),
(307,335,o),
(286,343,o),
(286,365,cs),
(286,388,o),
(311,415,o),
(357,415,cs),
(407,415,o),
(444,386,o),
(444,337,cs),
(444,269,o),
(399,239,o),
(334,239,cs),
(219,239,o),
(186,322,o),
(186,369,cs),
(186,376,o),
(186,383,o),
(188,388,c),
(182,396,o),
(173,404,o),
(166,407,c),
(104,395,o),
(28,326,o),
(28,199,cs),
(28,102,o),
(80,-14,o),
(203,-14,cs),
(281,-14,o),
(314,39,o),
(323,78,cs),
(323,79,o),
(313,78,o),
(314,79,c),
(313,38,o),
(353,-15,o),
(434,-15,cs)
);
}
);
width = 643;
}
);
unicode = 3476;
},
{
glyphname = sinOo;
lastChange = "2024-04-01 07:38:10 +0000";
layers = (
{
layerId = "51BB9282-3B82-4DF1-A67A-294D3E37D73A";
shapes = (
{
closed = 1;
nodes = (
(554,-14,o),
(613,131,o),
(613,276,cs),
(613,472,o),
(450,582,o),
(283,582,cs),
(221,582,o),
(162,572,o),
(127,548,c),
(120,528,o),
(118,508,o),
(117,482,c),
(119,482,o),
(193,525,o),
(283,525,cs),
(389,525,o),
(569,474,o),
(569,288,cs),
(569,181,o),
(526,69,o),
(425,69,cs),
(373,69,o),
(332,103,o),
(332,150,cs),
(332,155,o),
(332,160,o),
(333,165,c),
(313,160,l),
(299,105,o),
(265,70,o),
(196,70,cs),
(117,70,o),
(78,139,o),
(78,205,cs),
(78,292,o),
(137,336,o),
(164,339,c),
(155,367,l),
(155,364,o),
(160,178,o),
(330,178,cs),
(425,178,o),
(480,240,o),
(480,323,cs),
(480,402,o),
(418,466,o),
(346,466,cs),
(272,466,o),
(245,416,o),
(245,369,cs),
(245,320,o),
(278,288,o),
(325,288,cs),
(374,288,o),
(412,322,o),
(412,378,cs),
(412,391,o),
(410,407,o),
(404,424,c),
(390,427,l),
(386,348,o),
(348,336,o),
(324,336,cs),
(305,336,o),
(284,344,o),
(284,366,cs),
(284,389,o),
(309,416,o),
(355,416,cs),
(405,416,o),
(442,387,o),
(442,340,cs),
(442,270,o),
(396,236,o),
(328,236,cs),
(218,236,o),
(186,322,o),
(186,369,cs),
(186,377,o),
(186,384,o),
(188,389,c),
(182,398,o),
(173,406,o),
(166,408,c),
(103,398,o),
(38,313,o),
(38,196,cs),
(38,109,o),
(80,-13,o),
(196,-13,cs),
(281,-13,o),
(304,40,o),
(323,79,c),
(314,77,l),
(314,34,o),
(353,-14,o),
(434,-14,cs)
);
},
{
closed = 1;
nodes = (
(598,464,o),
(543,690,o),
(282,690,cs),
(192,690,o),
(139,653,o),
(139,653,c),
(126,629,o),
(122,603,o),
(121,593,c),
(143,608,o),
(153,612,o),
(180,622,c),
(202,652,l),
(188,642,o),
(144,605,o),
(124,538,c),
(151,533,l),
(169,582,o),
(222,635,o),
(256,640,c),
(233,641,o),
(211,642,o),
(185,622,c),
(185,622,o),
(199,632,o),
(261,632,cs),
(543,632,o),
(562,431,o),
(561,383,c),
(598,321,l)
);
}
);
width = 653;
}
);
unicode = 3477;
},
{
glyphname = sinKa;
lastChange = "2024-04-01 07:38:10 +0000";
layers = (
{
anchors = (
{
name = MatraI;
pos = (324,340);
},
{
name = Virama;
pos = (686,402);
}
);
layerId = "51BB9282-3B82-4DF1-A67A-294D3E37D73A";
shapes = (
{
closed = 1;
nodes = (
(259,-6,o),
(294,21,o),
(309,62,c),
(321,18,o),
(356,-6,o),
(401,-6,cs),
(492,-6,o),
(531,93,o),
(531,173,cs),
(531,255,o),
(486,319,o),
(402,319,cs),
(324,319,o),
(221,252,o),
(188,215,c),
(219,239,l),
(221,246,o),
(252,270,o),
(282,293,cs),
(346,342,o),
(430,378,o),
(528,378,cs),
(653,378,o),
(757,313,o),
(757,214,cs),
(757,152,o),
(708,70,o),
(606,70,cs),
(588,70,o),
(562,73,o),
(549,76,c),
(536,71,l),
(540,42,o),
(560,9,o),
(579,-6,c),
(718,3,o),
(796,102,o),
(796,221,cs),
(796,383,o),
(678,456,o),
(561,456,cs),
(445,456,o),
(357,396,o),
(257,314,cs),
(133,212,o),
(32,118,o),
(21,106,c),
(17,85,o),
(40,69,o),
(45,68,c),
(50,81,o),
(58,94,o),
(73,110,cs),
(104,144,o),
(152,176,o),
(185,197,cs),
(237,230,o),
(309,252,o),
(370,252,cs),
(444,252,o),
(499,220,o),
(499,161,cs),
(499,104,o),
(457,68,o),
(419,68,cs),
(353,68,o),
(330,119,o),
(330,168,cs),
(330,173,o),
(330,178,o),
(331,183,c),
(312,179,l),
(298,116,o),
(262,67,o),
(213,67,cs),
(151,67,o),
(142,128,o),
(99,128,cs),
(92,128,o),
(85,127,o),
(76,124,c),
(56,96,l),
(61,101,o),
(67,103,o),
(74,103,cs),
(86,103,o),
(101,97,o),
(106,86,cs),
(130,34,o),
(156,-6,o),
(215,-6,cs)
);
},
{
closed = 1;
nodes = (
(131,278,o),
(147,280,o),
(159,286,c),
(149,299,o),
(141,310,o),
(141,336,cs),
(141,385,o),
(169,416,o),
(208,416,cs),
(240,416,o),
(255,396,o),
(255,363,cs),
(255,334,o),
(244,307,o),
(228,290,c),
(251,298,l),
(267,314,o),
(303,356,o),
(303,396,cs),
(303,435,o),
(266,450,o),
(224,450,cs),
(143,450,o),
(71,394,o),
(71,325,cs),
(71,294,o),
(85,278,o),
(119,278,cs)
);
}
);
userData = {
com.typemytype.robofont.layerData = {
"Regular Oct 26 16, 18:32" = {
anchors = (
);
components = (
);
contours = (
{
points = (
{
segmentType = curve;
smooth = 0;
x = 35;
y = 125;
},
{
smooth = 0;
x = 59;
y = 149;
},
{
smooth = 0;
x = 135;
y = 250;
},
{
segmentType = curve;
smooth = 1;
x = 322;
y = 408;
},
{
smooth = 0;
x = 455;
y = 521;
},
{
smooth = 0;
x = 556;
y = 582;
},
{
segmentType = curve;
smooth = 1;
x = 706;
y = 582;
},
{
smooth = 0;
x = 862;
y = 582;
},
{
smooth = 0;
x = 1022;
y = 494;
},
{
segmentType = curve;
smooth = 1;
x = 1022;
y = 291;
},
{
smooth = 0;
x = 1022;
y = 135;
},
{
smooth = 0;
x = 940;
y = -8;
},
{
segmentType = curve;
smooth = 0;
x = 765.009;
y = -8;
},
{
smooth = 0;
x = 739.934;
y = 10.555;
},
{
smooth = 0;
x = 729;
y = 34;
},
{
segmentType = curve;
smooth = 0;
x = 731;
y = 72;
},
{
segmentType = line;
smooth = 0;
x = 747;
y = 79;
},
{
smooth = 0;
x = 766;
y = 74;
},
{
smooth = 0;
x = 792;
y = 68;
},
{
segmentType = curve;
smooth = 1;
x = 821;
y = 69;
},
{
smooth = 0;
x = 919;
y = 72;
},
{
smooth = 0;
x = 971;
y = 175;
},
{
segmentType = curve;
smooth = 1;
x = 971;
y = 278;
},
{
smooth = 0;
x = 971;
y = 419;
},
{
smooth = 0;
x = 835;
y = 515;
},
{
segmentType = curve;
smooth = 1;
x = 678;
y = 515;
},
{
smooth = 0;
x = 549;
y = 515;
},
{
smooth = 0;
x = 429;
y = 441;
},
{
segmentType = curve;
smooth = 1;
x = 354;
y = 380;
},
{
smooth = 0;
x = 337;
y = 366;
},
{
smooth = 0;
x = 261;
y = 303;
},
{
segmentType = curve;
smooth = 0;
x = 285;
y = 310;
},
{
segmentType = line;
smooth = 0;
x = 266;
y = 298;
},
{
smooth = 0;
x = 312;
y = 348;
},
{
smooth = 0;
x = 407;
y = 414;
},
{
segmentType = curve;
smooth = 1;
x = 502;
y = 414;
},
{
smooth = 0;
x = 613;
y = 414;
},
{
smooth = 0;
x = 683;
y = 325;
},
{
segmentType = curve;
smooth = 1;
x = 678;
y = 204;
},
{
smooth = 0;
x = 674;
y = 110;
},
{
smooth = 0;
x = 621;
y = -8;
},
{
segmentType = curve;
smooth = 1;
x = 509;
y = -8;
},
{
smooth = 0;
x = 451;
y = -8;
},
{
smooth = 0;
x = 405;
y = 23;
},
{
segmentType = curve;
smooth = 0;
x = 388.62;
y = 80;
},
{
smooth = 0;
x = 369;
y = 26;
},
{
smooth = 0;
x = 322;
y = -10;
},
{
segmentType = curve;
smooth = 1;
x = 262.009;
y = -8;
},
{
smooth = 0;
x = 192;
y = -6;
},
{
smooth = 0;
x = 178;
y = 49;
},
{
segmentType = curve;
smooth = 1;
x = 143;
y = 102;
},
{
smooth = 0;
x = 130;
y = 122;
},
{
smooth = 0;
x = 97;
y = 134;
},
{
segmentType = curve;
smooth = 0;
x = 79;
y = 115;
},
{
segmentType = line;
smooth = 0;
x = 104;
y = 152;
},
{
smooth = 0;
x = 186;
y = 176;
},
{
smooth = 0;
x = 164;
y = 70;
},
{
segmentType = curve;
smooth = 1;
x = 272;
y = 70;
},
{
smooth = 0;
x = 335;
y = 70;
},
{
smooth = 0;
x = 385;
y = 150;
},
{
segmentType = curve;
smooth = 0;
x = 383;
y = 232;
},
{
segmentType = line;
smooth = 0;
x = 418;
y = 232;
},
{
smooth = 0;
x = 420;
y = 116;
},
{
smooth = 0;
x = 447;
y = 64;
},
{
segmentType = curve;
smooth = 1;
x = 519;
y = 63;
},
{
smooth = 0;
x = 582;
y = 62;
},
{
smooth = 0;
x = 625;
y = 127;
},
{
segmentType = curve;
smooth = 1;
x = 626;
y = 205;
},
{
smooth = 0;
x = 627;
y = 288;
},
{
smooth = 0;
x = 563;
y = 347;
},
{
segmentType = curve;
smooth = 1;
x = 469;
y = 347;
},
{
smooth = 0;
x = 389;
y = 347;
},
{
smooth = 0;
x = 296;
y = 299;
},
{
segmentType = curve;
smooth = 1;
x = 228;
y = 256;
},
{
smooth = 0;
x = 178;
y = 225;
},
{
smooth = 0;
x = 72;
y = 125;
},
{
segmentType = curve;
smooth = 0;
x = 64;
y = 79;
},
{
smooth = 0;
x = 58;
y = 81;
},
{
smooth = 0;
x = 31;
y = 98;
}
);
},
{
points = (
{
segmentType = curve;
smooth = 1;
x = 80;
y = 428;
},
{
smooth = 0;
x = 84;
y = 517;
},
{
smooth = 0;
x = 158;
y = 584;
},
{
segmentType = curve;
smooth = 1;
x = 260;
y = 584;
},
{
smooth = 0;
x = 315;
y = 584;
},
{
smooth = 0;
x = 364;
y = 544;
},
{
segmentType = curve;
smooth = 1;
x = 362;
y = 491;
},
{
smooth = 0;
x = 360;
y = 440;
},
{
smooth = 0;
x = 335;
y = 408;
},
{
segmentType = curve;
smooth = 0;
x = 313.71;
y = 387;
},
{
segmentType = line;
smooth = 0;
x = 287.133;
y = 376;
},
{
smooth = 0;
x = 305;
y = 402;
},
{
smooth = 0;
x = 318;
y = 417;
},
{
segmentType = curve;
smooth = 1;
x = 320;
y = 454;
},
{
smooth = 0;
x = 322;
y = 501;
},
{
smooth = 0;
x = 302;
y = 538;
},
{
segmentType = curve;
smooth = 1;
x = 256;
y = 538;
},
{
smooth = 0;
x = 212;
y = 538;
},
{
smooth = 0;
x = 154;
y = 505;
},
{
segmentType = curve;
smooth = 1;
x = 151;
y = 442;
},
{
smooth = 0;
x = 149;
y = 407;
},
{
smooth = 0;
x = 161;
y = 389;
},
{
segmentType = curve;
smooth = 0;
x = 175;
y = 372;
},
{
smooth = 0;
x = 159;
y = 364;
},
{
smooth = 0;
x = 138;
y = 361;
},
{
segmentType = curve;
smooth = 1;
x = 122;
y = 361;
},
{
smooth = 0;
x = 98;
y = 361;
},
{
smooth = 0;
x = 78;
y = 385;
}
);
}
);
lib = {
};
name = sinKa;
unicodes = (
);
width = 1056;
};
};
};
width = 841;
}
);
unicode = 3482;
},
{
glyphname = sinKha;
lastChange = "2024-04-01 07:38:10 +0000";
layers = (
{
layerId = "51BB9282-3B82-4DF1-A67A-294D3E37D73A";
shapes = (
{
closed = 1;
nodes = (
(552,-9,o),
(617,99,o),
(617,260,cs),
(617,473,o),
(510,599,o),
(305,599,cs),
(190,599,o),
(101,564,o),
(67,538,c),
(59,523,o),
(56,499,o),
(56,485,cs),
(56,474,o),
(58,465,o),
(59,462,c),
(61,463,o),
(147,528,o),
(295,528,cs),
(445,528,o),
(572,476,o),
(572,279,cs),
(572,163,o),
(518,56,o),
(446,56,cs),
(394,56,o),
(370,76,o),
(360,90,c),
(339,63,l),
(353,36,o),
(374,-9,o),
(448,-9,cs)
);
},
{
closed = 1;
nodes = (
(351,-9,o),
(423,119,o),
(423,218,cs),
(423,300,o),
(365,389,o),
(250,389,cs),
(117,389,o),
(24,291,o),
(24,158,cs),
(24,78,o),
(58,-14,o),
(154,-14,cs),
(221,-14,o),
(257,31,o),
(257,88,cs),
(257,142,o),
(221,173,o),
(174,173,cs),
(134,173,o),
(103,137,o),
(103,98,cs),
(103,74,o),
(112,56,o),
(122,40,c),
(157,22,l),
(142,38,o),
(139,49,o),
(139,63,cs),
(139,109,o),
(169,119,o),
(188,119,cs),
(207,119,o),
(227,107,o),
(227,84,cs),
(227,51,o),
(189,38,o),
(162,38,cs),
(123,38,o),
(61,78,o),
(61,177,cs),
(61,267,o),
(135,314,o),
(224,314,cs),
(304,314,o),
(377,278,o),
(377,191,cs),
(377,125,o),
(325,42,o),
(282,-14,c),
(291,-29,o),
(313,-43,o),
(324,-44,c)
);
}
);
width = 662;
}
);
unicode = 3483;
},
{
glyphname = sinGa;
lastChange = "2024-04-01 07:38:10 +0000";
layers = (
{
layerId = "51BB9282-3B82-4DF1-A67A-294D3E37D73A";
shapes = (
{
closed = 1;
nodes = (
(638,-3,o),
(713,117,o),
(713,248,cs),
(713,371,o),
(628,454,o),
(519,454,cs),
(378,454,o),
(293,333,o),
(288,170,c),
(293,169,o),
(297,169,o),
(302,169,cs),
(309,169,o),
(316,169,o),
(324,170,c),
(322,177,o),
(321,190,o),
(321,197,cs),
(321,305,o),
(382,366,o),
(498,366,cs),
(576,366,o),
(670,323,o),
(671,226,cs),
(671,132,o),
(612,76,o),
(513,76,cs),
(497,76,o),
(475,78,o),
(458,82,c),
(448,76,l),
(448,59,o),
(468,11,o),
(487,-6,c)
);
},
{
closed = 1;
nodes = (
(372,-9,o),
(439,79,o),
(439,173,cs),
(439,247,o),
(388,302,o),
(323,301,c),
(319,249,l),
(349,248,o),
(405,230,o),
(405,180,cs),
(405,113,o),
(320,80,o),
(252,80,cs),
(155,80,o),
(80,130,o),
(80,215,cs),
(80,297,o),
(142,356,o),
(251,356,c),
(256,363,o),
(261,408,o),
(261,432,cs),
(261,438,o),
(261,444,o),
(260,447,c),
(154,446,o),
(44,357,o),
(44,194,cs),
(44,71,o),
(124,-9,o),
(248,-9,cs)
);
}
);
width = 758;
}
);
unicode = 3484;
},
{
glyphname = sinGha;
lastChange = "2024-04-01 07:38:10 +0000";
layers = (
{
layerId = "51BB9282-3B82-4DF1-A67A-294D3E37D73A";
shapes = (
{
closed = 1;
nodes = (
(587,-19,o),
(653,50,o),
(653,161,cs),
(653,256,o),
(585,317,o),
(495,317,cs),
(446,317,o),
(432,309,o),
(401,298,c),
(456,285,l),
(449,293,o),
(436,315,o),
(436,338,cs),
(436,393,o),
(467,420,o),
(509,420,cs),
(547,420,o),
(584,395,o),
(584,353,cs),
(584,325,o),
(561,291,o),
(557,285,c),
(575,279,l),
(604,293,o),
(640,328,o),
(640,371,cs),
(640,422,o),
(605,465,o),
(533,465,cs),
(432,465,o),
(376,377,o),
(378,255,c),
(389,246,l),
(421,258,o),
(461,259,o),
(493,259,cs),
(549,259,o),
(617,241,o),
(617,174,cs),
(617,103,o),
(556,59,o),
(494,59,cs),
(429,59,o),
(411,92,o),
(411,120,cs),
(411,136,o),
(414,152,o),
(417,166,c),
(403,172,o),
(386,175,o),
(368,175,cs),
(343,175,o),
(319,170,o),
(302,159,c),
(303,113,o),
(272,62,o),
(196,62,cs),
(139,62,o),
(107,92,o),
(107,137,cs),
(107,193,o),
(153,251,o),
(261,251,cs),
(280,251,o),
(300,250,o),
(323,246,c),
(335,257,l),
(340,275,o),
(343,295,o),
(343,316,cs),
(343,388,o),
(308,466,o),
(219,466,cs),
(156,466,o),
(109,427,o),
(109,385,cs),
(109,353,o),
(140,336,o),
(164,335,c),
(172,373,o),
(196,412,o),
(239,412,cs),
(276,412,o),
(300,389,o),
(300,349,cs),
(300,326,o),
(290,313,o),
(283,303,c),
(213,302,l),
(210,301,o),
(212,305,o),
(210,304,cs),
(137,277,o),
(72,209,o),
(72,125,cs),
(72,43,o),
(116,-17,o),
(199,-17,cs),
(323,-17,o),
(329,106,o),
(330,115,c),
(332,116,o),
(342,120,o),
(358,120,cs),
(361,120,o),
(374,119,o),
(377,116,c),
(374,102,o),
(373,90,o),
(373,74,cs),
(373,36,o),
(404,-19,o),
(494,-19,cs)
);
},
{
closed = 1;
nodes = (
(55,246,o),
(152,286,o),
(274,286,cs),
(303,286,l),
(316,308,l),
(290,308,ls),
(204,308,o),
(78,305,o),
(22,295,c),
(7,229,l),
(16,222,l)
);
}
);
width = 697;
}
);
unicode = 3485;
},
{
glyphname = sinNga;
lastChange = "2024-04-01 07:38:10 +0000";
layers = (
{
layerId = "51BB9282-3B82-4DF1-A67A-294D3E37D73A";
shapes = (
{
closed = 1;
nodes = (
(569,-19,o),
(612,127,o),
(612,255,cs),
(612,444,o),
(522,601,o),
(271,601,cs),
(212,601,o),
(136,586,o),
(96,561,c),
(89,545,o),
(86,509,o),
(87,491,c),
(125,515,o),
(184,533,o),
(271,533,cs),
(449,533,o),
(567,458,o),
(567,275,cs),
(567,182,o),
(533,63,o),
(436,63,cs),
(385,63,o),
(346,96,o),
(346,146,cs),
(346,155,o),
(347,160,o),
(348,167,c),
(328,162,l),
(312,105,o),
(276,64,o),
(201,64,cs),
(144,64,o),
(83,83,o),
(83,148,cs),
(83,214,o),
(149,237,o),
(227,237,cs),
(267,237,o),
(325,236,o),
(346,227,c),
(361,238,l),
(366,262,o),
(368,269,o),
(368,295,cs),
(368,386,o),
(287,422,o),
(225,422,cs),
(121,422,o),
(66,370,o),
(66,306,cs),
(66,277,o),
(78,237,o),
(135,237,cs),
(174,237,o),
(212,271,o),
(212,327,cs),
(212,340,o),
(205,366,o),
(194,376,c),
(166,376,l),
(182,297,o),
(151,279,o),
(130,279,cs),
(108,279,o),
(98,295,o),
(98,311,cs),
(98,350,o),
(140,371,o),
(213,371,cs),
(266,371,o),
(332,352,o),
(332,296,cs),
(332,267,o),
(315,265,o),
(295,246,c),
(335,259,l),
(306,273,o),
(265,282,o),
(229,282,cs),
(136,282,o),
(40,246,o),
(40,128,cs),
(40,42,o),
(107,-15,o),
(182,-15,cs),
(286,-15,o),
(328,49,o),
(331,93,c),
(333,95,o),
(326,90,o),
(327,92,c),
(326,86,o),
(326,80,o),
(326,75,cs),
(326,30,o),
(361,-19,o),
(440,-19,cs)
);
}
);
width = 656;
}
);
unicode = 3486;
},
{
glyphname = sinNnga;
lastChange = "2024-04-01 07:38:10 +0000";
layers = (
{
layerId = "51BB9282-3B82-4DF1-A67A-294D3E37D73A";
shapes = (
{
closed = 1;
nodes = (
(121,-8,o),
(132,-4,o),
(136,-1,c),
(121,26,o),
(90,109,o),
(90,184,cs),
(90,309,o),
(152,406,o),
(255,406,c),
(360,447,l),
(346,450,o),
(338,453,o),
(294,453,cs),
(161,453,o),
(35,366,o),
(35,196,cs),
(35,119,o),
(76,23,o),
(102,-8,c)
);
},
{
pos = (100,0);
ref = sinGa;
}
);
width = 858;
}
);
metricRight = sinGa;
unicode = 3487;
},
{
glyphname = sinCa;
lastChange = "2024-04-01 07:38:10 +0000";
layers = (
{
layerId = "51BB9282-3B82-4DF1-A67A-294D3E37D73A";
shapes = (
{
closed = 1;
nodes = (
(542,-23,o),
(617,131,o),
(617,283,cs),
(617,491,o),
(495,601,o),
(299,601,cs),
(227,601,o),
(154,579,o),
(109,546,c),
(101,529,o),
(100,503,o),
(100,495,cs),
(100,487,o),
(101,479,o),
(102,476,c),
(156,505,o),
(214,529,o),
(292,529,cs),
(430,529,o),
(575,472,o),
(575,284,cs),
(575,178,o),
(523,65,o),
(334,65,cs),
(231,65,o),
(137,91,o),
(137,161,cs),
(137,221,o),
(203,246,o),
(276,246,cs),
(296,246,o),
(316,244,o),
(336,241,c),
(352,253,l),
(354,265,o),
(356,277,o),
(356,291,cs),
(356,360,o),
(309,440,o),
(216,440,cs),
(157,440,o),
(122,407,o),
(122,370,cs),
(122,345,o),
(139,329,o),
(169,329,cs),
(173,329,o),
(176,329,o),
(180,330,c),
(181,338,o),
(200,382,o),
(248,382,cs),
(286,382,o),
(320,356,o),
(318,305,c),
(312,303,o),
(301,303,o),
(295,303,cs),
(281,303,o),
(95,280,o),
(95,136,cs),
(95,33,o),
(200,-23,o),
(334,-23,cs)
);
},
{
closed = 1;
nodes = (
(78,239,o),
(175,284,o),
(313,291,c),
(319,306,l),
(232,306,o),
(100,299,o),
(39,287,c),
(32,273,o),
(26,244,o),
(26,222,c),
(36,214,l)
);
}
);
userData = {
com.typemytype.robofont.layerData = {
"Jan 19 17, 02:22" = {
anchors = (
{
name = rakaransaya;
x = 822;
y = 393;
}
);
components = (
);
contours = (
{
points = (
{
segmentType = curve;
smooth = 1;
x = 122.757;
y = 178;
},
{
smooth = 0;
x = 130.67;
y = 326.801;
},
{
smooth = 0;
x = 299.59;
y = 351.437;
},
{
segmentType = curve;
smooth = 1;
x = 408.553;
y = 381;
},
{
smooth = 0;
x = 417.23;
y = 381;
},
{
smooth = 0;
x = 430.553;
y = 381;
},
{
segmentType = curve;
smooth = 0;
x = 438.5;
y = 383;
},
{
smooth = 0;
x = 440.959;
y = 449;
},
{
smooth = 0;
x = 396.741;
y = 483;
},
{
segmentType = curve;
smooth = 1;
x = 347.741;
y = 483;
},
{
smooth = 0;
x = 285.741;
y = 483;
},
{
smooth = 0;
x = 260.754;
y = 426;
},
{
segmentType = curve;
smooth = 0;
x = 260.177;
y = 415;
},
{
smooth = 0;
x = 255;
y = 414;
},
{
smooth = 0;
x = 250;
y = 414;
},
{
segmentType = curve;
smooth = 1;
x = 245;
y = 414;
},
{
smooth = 0;
x = 206;
y = 414;
},
{
smooth = 0;
x = 184;
y = 436;
},
{
segmentType = curve;
smooth = 1;
x = 184;
y = 466;
},
{
smooth = 0;
x = 184;
y = 524;
},
{
smooth = 0;
x = 242;
y = 558;
},
{
segmentType = curve;
smooth = 1;
x = 300.671;
y = 558;
},
{
smooth = 0;
x = 431;
y = 558;
},
{
smooth = 0;
x = 488;
y = 454;
},
{
segmentType = curve;
smooth = 1;
x = 488;
y = 364;
},
{
smooth = 0;
x = 488;
y = 347;
},
{
smooth = 0;
x = 486;
y = 331;
},
{
segmentType = curve;
smooth = 0;
x = 482.988;
y = 316;
},
{
segmentType = line;
smooth = 0;
x = 462.15;
y = 300;
},
{
smooth = 0;
x = 437.359;
y = 304;
},
{
smooth = 0;
x = 410.465;
y = 306;
},
{
segmentType = curve;
smooth = 1;
x = 384.465;
y = 306;
},
{
smooth = 0;
x = 275;
y = 306;
},
{
smooth = 0;
x = 172;
y = 274;
},
{
segmentType = curve;
smooth = 1;
x = 172;
y = 198;
},
{
smooth = 0;
x = 172;
y = 138;
},
{
smooth = 0;
x = 286;
y = 96;
},
{
segmentType = curve;
smooth = 1;
x = 427;
y = 96;
},
{
smooth = 0;
x = 644;
y = 96;
},
{
smooth = 0;
x = 759;
y = 216;
},
{
segmentType = curve;
smooth = 1;
x = 770.597;
y = 423;
},
{
smooth = 0;
x = 781;
y = 605;
},
{
smooth = 0;
x = 646.552;
y = 715;
},
{
segmentType = curve;
smooth = 1;
x = 464.899;
y = 715;
},
{
smooth = 0;
x = 327.994;
y = 715;
},
{
smooth = 0;
x = 233.945;
y = 655;
},
{
segmentType = curve;
smooth = 0;
x = 231.755;
y = 655;
},
{
smooth = 0;
x = 231;
y = 658;
},
{
smooth = 0;
x = 230;
y = 662;
},
{
segmentType = curve;
smooth = 1;
x = 230;
y = 667;
},
{
smooth = 0;
x = 230;
y = 692;
},
{
smooth = 0;
x = 243;
y = 738;
},
{
segmentType = curve;
smooth = 0;
x = 252.048;
y = 756;
},
{
smooth = 0;
x = 297.869;
y = 777.808;
},
{
smooth = 0;
x = 370.62;
y = 798;
},
{
segmentType = curve;
smooth = 1;
x = 467.249;
y = 798;
},
{
smooth = 0;
x = 686;
y = 798;
},
{
smooth = 0;
x = 827;
y = 651;
},
{
segmentType = curve;
smooth = 1;
x = 827;
y = 424;
},
{
smooth = 0;
x = 827;
y = 169;
},
{
smooth = 0;
x = 688;
y = -17;
},
{
segmentType = curve;
smooth = 1;
x = 442;
y = -17;
},
{
smooth = 0;
x = 260;
y = -17;
},
{
smooth = 0;
x = 116.258;
y = 54;
}
);
},
{
points = (
{
segmentType = line;
smooth = 0;
x = 34.312;
y = 275;
},
{
segmentType = line;
smooth = 0;
x = 49.767;
y = 360;
},
{
smooth = 0;
x = 130.359;
y = 374.609;
},
{
smooth = 0;
x = 327.429;
y = 385.043;
},
{
segmentType = curve;
smooth = 0;
x = 439.972;
y = 384;
},
{
segmentType = line;
smooth = 0;
x = 433.186;
y = 369;
},
{
smooth = 0;
x = 252.505;
y = 359.913;
},
{
smooth = 0;
x = 100.774;
y = 298.32;
},
{
segmentType = curve;
smooth = 0;
x = 46.787;
y = 265;
}
);
}
);
lib = {
};
name = sinCa;
unicodes = (
);
width = 877;
};
};
};
width = 657;
}
);
unicode = 3488;
},
{
glyphname = sinCha;
lastChange = "2024-04-01 07:38:10 +0000";
layers = (
{
anchors = (
{
name = _si_MaU;
pos = (569,196);
}
);
layerId = "51BB9282-3B82-4DF1-A67A-294D3E37D73A";
shapes = (
{
closed = 1;
nodes = (
(469,-20,o),
(580,72,o),
(580,190,cs),
(580,275,o),
(523,321,o),
(435,321,cs),
(406,321,o),
(382,316,o),
(360,305,c),
(347,296,l),
(368,301,l),
(368,360,o),
(403,403,o),
(451,403,cs),
(492,403,o),
(531,372,o),
(531,316,cs),
(531,266,o),
(500,201,o),
(437,201,cs),
(364,201,o),
(368,287,o),
(368,317,c),
(357,330,l),
(362,359,o),
(375,411,o),
(394,453,cs),
(446,570,o),
(549,665,o),
(549,665,c),
(545,683,o),
(518,702,o),
(504,706,c),
(504,706,o),
(421,617,o),
(367,489,cs),
(332,406,o),
(323,338,o),
(323,299,cs),
(323,218,o),
(363,156,o),
(431,156,cs),
(520,156,o),
(568,260,o),
(568,335,cs),
(568,405,o),
(527,454,o),
(469,454,cs),
(388,454,o),
(328,359,o),
(328,278,cs),
(328,270,o),
(328,263,o),
(329,256,c),
(344,248,l),
(376,259,o),
(410,272,o),
(449,272,cs),
(499,272,o),
(542,251,o),
(542,200,cs),
(542,127,o),
(455,60,o),
(303,60,cs),
(164,60,o),
(84,116,o),
(84,180,cs),
(84,231,o),
(136,260,o),
(223,260,cs),
(239,260,o),
(262,259,o),
(284,256,c),
(295,267,l),
(299,284,o),
(301,304,o),
(301,324,cs),
(301,387,o),
(276,454,o),
(186,454,cs),
(122,454,o),
(84,421,o),
(84,380,cs),
(84,345,o),
(111,332,o),
(137,330,c),
(145,361,o),
(175,403,o),
(217,403,cs),
(251,403,o),
(266,379,o),
(266,348,cs),
(266,315,o),
(245,295,o),
(235,286,c),
(272,316,l),
(261,317,o),
(249,318,o),
(238,318,cs),
(142,318,o),
(45,266,o),
(45,165,cs),
(45,66,o),
(136,-20,o),
(300,-20,cs)
);
}
);
width = 620;
}
);
metricLeft = sinPa;
unicode = 3489;
},
{
glyphname = sinJa;
lastChange = "2024-04-01 07:38:10 +0000";
layers = (
{
anchors = (
{
name = rakar;
pos = (558,175);
}
);
layerId = "51BB9282-3B82-4DF1-A67A-294D3E37D73A";
shapes = (
{
closed = 1;
nodes = (
(442,284,o),
(442,348,o),
(484,437,cs),
(534,543,o),
(632,635,o),
(632,635,c),
(630,651,o),
(602,678,o),
(588,677,c),
(588,677,o),
(502,592,o),
(453,473,cs),
(414,379,o),
(410,303,o),
(410,303,c),
(442,284,l)
);
},
{
ref = sinPa;
}
);
width = 642;
}
);
unicode = 3490;
},
{
glyphname = sinJha;
lastChange = "2024-04-01 07:38:10 +0000";
layers = (
{
layerId = "51BB9282-3B82-4DF1-A67A-294D3E37D73A";
shapes = (
{
closed = 1;
nodes = (
(977,-18,o),
(1046,117,o),
(1046,256,cs),
(1046,441,o),
(938,581,o),
(742,581,cs),
(670,581,o),
(608,561,o),
(573,540,c),
(557,522,o),
(543,496,o),
(543,480,cs),
(543,472,o),
(544,467,o),
(545,464,c),
(553,464,o),
(612,517,o),
(740,517,cs),
(894,517,o),
(999,441,o),
(999,287,cs),
(999,171,o),
(940,80,o),
(862,79,cs),
(820,78,o),
(774,105,o),
(774,162,cs),
(774,166,o),
(774,171,o),
(775,176,c),
(755,171,l),
(739,113,o),
(704,81,o),
(644,81,cs),
(559,81,o),
(529,145,o),
(533,190,cs),
(541,278,o),
(675,312,o),
(743,312,cs),
(754,312,o),
(762,311,o),
(768,310,c),
(766,338,o),
(765,358,o),
(753,382,c),
(650,386,o),
(490,312,o),
(490,153,cs),
(490,75,o),
(528,-15,o),
(632,-15,cs),
(724,-15,o),
(759,56,o),
(763,102,c),
(765,102,o),
(745,106,o),
(747,108,c),
(746,102,o),
(745,96,o),
(745,88,cs),
(745,42,o),
(780,-18,o),
(859,-18,cs)
);
},
{
closed = 1;
nodes = (
(121,278,o),
(138,280,o),
(150,286,c),
(140,299,o),
(132,310,o),
(132,336,cs),
(132,386,o),
(161,422,o),
(197,422,cs),
(233,422,o),
(248,393,o),
(246,360,cs),
(246,329,o),
(234,306,o),
(219,290,c),
(242,298,l),
(258,314,o),
(294,356,o),
(294,396,cs),
(294,435,o),
(257,450,o),
(216,450,cs),
(135,450,o),
(62,395,o),
(62,324,cs),
(62,294,o),
(77,278,o),
(110,278,cs)
);
},
{
closed = 1;
nodes = (
(250,-6,o),
(285,21,o),
(300,62,c),
(312,18,o),
(347,-6,o),
(392,-6,cs),
(483,-6,o),
(522,94,o),
(522,172,cs),
(522,255,o),
(477,319,o),
(397,319,cs),
(315,319,o),
(212,252,o),
(179,215,c),
(210,239,l),
(212,245,o),
(237,266,o),
(273,293,cs),
(342,346,o),
(435,380,o),
(543,380,cs),
(639,380,o),
(717,353,o),
(749,338,c),
(753,382,l),
(714,413,o),
(643,436,o),
(555,436,cs),
(461,436,o),
(369,410,o),
(248,314,cs),
(161,245,o),
(30,115,o),
(12,96,c),
(8,75,o),
(29,62,o),
(34,61,c),
(40,96,o),
(137,173,o),
(176,197,cs),
(228,230,o),
(300,252,o),
(361,252,cs),
(434,252,o),
(490,221,o),
(490,161,cs),
(490,101,o),
(435,79,o),
(396,79,cs),
(347,79,o),
(321,114,o),
(321,174,cs),
(321,177,o),
(321,175,o),
(322,183,c),
(303,179,l),
(289,116,o),
(243,77,o),
(194,77,cs),
(142,77,o),
(131,121,o),
(88,121,cs),
(81,121,o),
(74,120,o),
(65,117,c),
(45,89,l),
(50,94,o),
(56,96,o),
(63,96,cs),
(75,96,o),
(88,89,o),
(95,79,cs),
(123,37,o),
(149,-6,o),
(207,-6,cs)
);
}
);
width = 1096;
}
);
unicode = 3491;
},
{
glyphname = sinNya;
lastChange = "2024-04-01 07:38:10 +0000";
layers = (
{
anchors = (
{
name = MatraI;
pos = (454,340);
}
);
layerId = "51BB9282-3B82-4DF1-A67A-294D3E37D73A";
shapes = (
{
closed = 1;
nodes = (
(389,-6,o),
(424,21,o),
(439,62,c),
(451,18,o),
(486,-6,o),
(531,-6,cs),
(622,-6,o),
(661,93,o),
(661,173,cs),
(661,255,o),
(616,319,o),
(532,319,cs),
(454,319,o),
(351,252,o),
(318,215,c),
(349,239,l),
(351,246,o),
(382,270,o),
(412,293,cs),
(476,342,o),
(597,383,o),
(668,390,cs),
(725,396,o),
(750,386,o),
(781,376,c),
(832,462,l),
(798,462,o),
(779,462,o),
(741,460,cs),
(605,452,o),
(487,396,o),
(387,314,cs),
(263,212,o),
(162,118,o),
(151,106,c),
(147,85,o),
(170,69,o),
(175,68,c),
(180,81,o),
(188,94,o),
(203,110,cs),
(234,144,o),
(282,176,o),
(315,197,cs),
(367,230,o),
(439,252,o),
(500,252,cs),
(574,252,o),
(629,220,o),
(629,161,cs),
(629,104,o),
(587,68,o),
(549,68,cs),
(483,68,o),
(460,119,o),
(460,168,cs),
(460,173,o),
(460,178,o),
(461,183,c),
(442,179,l),
(428,116,o),
(392,67,o),
(343,67,cs),
(281,67,o),
(272,128,o),
(229,128,cs),
(222,128,o),
(215,127,o),
(206,124,c),
(186,96,l),
(191,101,o),
(197,103,o),
(204,103,cs),
(216,103,o),
(231,97,o),
(236,86,cs),
(260,34,o),
(286,-6,o),
(345,-6,cs)
);
},
{
closed = 1;
nodes = (
(127,-10,o),
(138,-6,o),
(142,-3,c),
(127,23,o),
(103,93,o),
(103,160,cs),
(103,280,o),
(181,409,o),
(285,400,c),
(367,449,l),
(353,451,o),
(339,452,o),
(324,452,cs),
(188,452,o),
(42,351,o),
(42,185,cs),
(42,98,o),
(82,21,o),
(108,-10,c)
);
},
{
closed = 1;
nodes = (
(261,278,o),
(277,280,o),
(289,286,c),
(279,299,o),
(271,310,o),
(271,336,cs),
(271,385,o),
(299,416,o),
(338,416,cs),
(370,416,o),
(385,396,o),
(385,363,cs),
(385,334,o),
(374,307,o),
(358,290,c),
(381,298,l),
(397,314,o),
(433,356,o),
(433,396,cs),
(433,435,o),
(396,450,o),
(354,450,cs),
(273,450,o),
(201,394,o),
(201,325,cs),
(201,294,o),
(215,278,o),
(249,278,cs)
);
},
{
pos = (590,0);
ref = sinDa;
}
);
width = 1043;
}
);
unicode = 3492;
},
{
glyphname = sinJnya;
lastChange = "2024-04-01 07:38:10 +0000";
layers = (
{
layerId = "51BB9282-3B82-4DF1-A67A-294D3E37D73A";
shapes = (
{
closed = 1;
nodes = (
(472,-9,o),
(539,79,o),
(539,173,cs),
(539,247,o),
(488,302,o),
(423,301,c),
(419,249,l),
(449,248,o),
(505,230,o),
(505,180,cs),
(505,113,o),
(420,80,o),
(352,80,cs),
(255,80,o),
(180,130,o),
(180,215,cs),
(180,297,o),
(242,356,o),
(351,356,c),
(356,363,o),
(361,408,o),
(361,432,cs),
(361,438,o),
(361,444,o),
(360,447,c),
(254,446,o),
(144,357,o),
(144,194,cs),
(144,71,o),
(224,-9,o),
(348,-9,cs)
);
},
{
closed = 1;
nodes = (
(121,-8,o),
(132,-4,o),
(136,-1,c),
(121,26,o),
(90,109,o),
(90,184,cs),
(90,309,o),
(152,406,o),
(255,406,c),
(360,447,l),
(346,450,o),
(338,453,o),
(294,453,cs),
(161,453,o),
(35,366,o),
(35,196,cs),
(35,119,o),
(76,23,o),
(102,-8,c)
);
},
{
pos = (470,0);
ref = sinDa;
},
{
closed = 1;
nodes = (
(409,169,o),
(416,169,o),
(424,170,c),
(422,177,o),
(421,190,o),
(421,197,cs),
(421,305,o),
(492,392,o),
(644,392,c),
(702,462,l),
(461,462,o),
(393,333,o),
(388,170,c),
(393,169,o),
(397,169,o),
(402,169,cs)
);
}
);
width = 953;
}
);
metricLeft = sinNnga;
metricRight = sinDa;
unicode = 3493;
},
{
glyphname = sinNyja;
lastChange = "2024-04-01 07:38:10 +0000";
layers = (
{
layerId = "51BB9282-3B82-4DF1-A67A-294D3E37D73A";
shapes = (
{
closed = 1;
nodes = (
(112,2,o),
(123,6,o),
(127,9,c),
(112,36,o),
(85,109,o),
(85,185,cs),
(85,309,o),
(157,407,o),
(245,407,cs),
(254,407,o),
(255,406,o),
(260,406,c),
(304,459,l),
(295,460,o),
(285,460,o),
(276,460,cs),
(129,460,o),
(30,355,o),
(30,209,cs),
(30,119,o),
(67,33,o),
(93,2,c)
);
},
{
pos = (109,0);
ref = sinJa;
}
);
width = 751;
}
);
metricLeft = sinNda;
metricRight = sinJa;
unicode = 3494;
},
{
glyphname = sinTta;
lastChange = "2024-04-01 07:38:10 +0000";
layers = (
{
layerId = "51BB9282-3B82-4DF1-A67A-294D3E37D73A";
shapes = (
{
closed = 1;
nodes = (
(452,-27,o),
(561,107,o),
(561,294,cs),
(561,490,o),
(442,605,o),
(265,605,cs),
(189,605,o),
(110,585,o),
(80,563,c),
(72,545,o),
(68,518,o),
(70,489,c),
(108,506,o),
(163,534,o),
(269,534,cs),
(410,534,o),
(516,464,o),
(516,309,cs),
(516,164,o),
(423,66,o),
(270,66,cs),
(168,66,o),
(86,110,o),
(86,183,cs),
(86,254,o),
(163,283,o),
(241,283,cs),
(261,283,o),
(282,281,o),
(301,277,c),
(310,291,l),
(308,312,o),
(299,334,o),
(285,355,c),
(283,355,o),
(277,356,o),
(272,356,cs),
(138,356,o),
(44,280,o),
(44,167,cs),
(44,61,o),
(127,-27,o),
(272,-27,cs)
);
}
);
userData = {
com.typemytype.robofont.layerData = {
"Jan 26 17, 16:33" = {
anchors = (
{
name = rakaransaya;
x = 719;
y = 343;
}
);
components = (
);
contours = (
{
points = (
{
smooth = 0;
x = 570;
y = -48;
},
{
smooth = 0;
x = 708;
y = 116;
},
{
segmentType = curve;
smooth = 1;
x = 716;
y = 344;
},
{
smooth = 0;
x = 725;
y = 599;
},
{
smooth = 0;
x = 570;
y = 746;
},
{
segmentType = curve;
smooth = 1;
x = 368;
y = 746;
},
{
smooth = 0;
x = 276;
y = 746;
},
{
smooth = 0;
x = 217;
y = 724;
},
{
segmentType = curve;
smooth = 0;
x = 174;
y = 696;
},
{
smooth = 0;
x = 159;
y = 667;
},
{
smooth = 0;
x = 138;
y = 608;
},
{
segmentType = curve;
smooth = 1;
x = 149;
y = 600;
},
{
smooth = 0;
x = 151;
y = 600;
},
{
smooth = 0;
x = 234;
y = 659;
},
{
segmentType = curve;
smooth = 1;
x = 359;
y = 659;
},
{
smooth = 0;
x = 547;
y = 659;
},
{
smooth = 0;
x = 671;
y = 566;
},
{
segmentType = curve;
smooth = 1;
x = 651;
y = 358;
},
{
smooth = 0;
x = 635;
y = 190;
},
{
smooth = 0;
x = 536;
y = 75;
},
{
segmentType = curve;
smooth = 1;
x = 343;
y = 71;
},
{
smooth = 0;
x = 212;
y = 68;
},
{
smooth = 0;
x = 107;
y = 127;
},
{
segmentType = curve;
smooth = 1;
x = 109;
y = 204;
},
{
smooth = 0;
x = 112;
y = 332;
},
{
smooth = 0;
x = 267;
y = 356;
},
{
segmentType = curve;
smooth = 0;
x = 388;
y = 335;
},
{
segmentType = line;
smooth = 0;
x = 400;
y = 353;
},
{
segmentType = line;
smooth = 0;
x = 367;
y = 436;
},
{
smooth = 0;
x = 359;
y = 437;
},
{
smooth = 0;
x = 349;
y = 437;
},
{
segmentType = curve;
smooth = 1;
x = 340;
y = 437;
},
{
smooth = 0;
x = 236;
y = 437;
},
{
smooth = 0;
x = 56;
y = 358;
},
{
segmentType = curve;
smooth = 1;
x = 51;
y = 181;
},
{
smooth = 0;
x = 47;
y = 54;
},
{
smooth = 0;
x = 156;
y = -50;
},
{
segmentType = curve;
smooth = 1;
x = 337;
y = -49;
}
);
}
);
lib = {
};
name = sinTta;
unicodes = (
);
width = 760;
};
};
};
width = 611;
}
);
unicode = 3495;
},
{
glyphname = sinTtha;
lastChange = "2024-04-01 07:38:10 +0000";
layers = (
{
layerId = "51BB9282-3B82-4DF1-A67A-294D3E37D73A";
shapes = (
{
closed = 1;
nodes = (
(539,-18,o),
(600,117,o),
(600,253,cs),
(600,511,o),
(379,631,o),
(220,631,c),
(209,562,l),
(370,562,o),
(556,439,o),
(556,258,cs),
(556,158,o),
(499,79,o),
(418,79,cs),
(369,79,o),
(328,107,o),
(328,160,cs),
(328,165,o),
(328,170,o),
(329,176,c),
(309,171,l),
(292,113,o),
(249,77,o),
(187,77,cs),
(130,77,o),
(83,107,o),
(83,168,cs),
(83,242,o),
(155,276,o),
(240,276,cs),
(261,276,o),
(282,274,o),
(304,270,c),
(314,282,l),
(311,306,o),
(297,342,o),
(287,352,c),
(191,356,o),
(44,296,o),
(44,150,cs),
(44,63,o),
(96,-15,o),
(182,-15,cs),
(263,-15,o),
(312,54,o),
(317,102,c),
(318,102,o),
(299,106,o),
(300,108,c),
(301,69,o),
(320,-18,o),
(418,-18,cs)
);
},
{
closed = 1;
nodes = (
(395,413,o),
(459,430,o),
(483,448,c),
(468,473,l),
(448,465,o),
(420,458,o),
(380,458,cs),
(255,458,o),
(229,520,o),
(220,631,c),
(190,614,l),
(187,594,o),
(185,575,o),
(185,557,cs),
(185,473,o),
(228,413,o),
(337,413,cs)
);
}
);
userData = {
com.typemytype.robofont.layerData = {
background = {
anchors = (
);
components = (
);
contours = (
{
points = (
{
smooth = 0;
x = 326;
y = 562;
},
{
smooth = 0;
x = 282;
y = 683;
},
{
segmentType = curve;
smooth = 0;
x = 306;
y = 837;
},
{
segmentType = line;
smooth = 0;
x = 346;
y = 858;
},
{
smooth = 0;
x = 353;
y = 817;
},
{
smooth = 0;
x = 351;
y = 738;
},
{
segmentType = curve;
smooth = 1;
x = 400;
y = 682;
},
{
smooth = 0;
x = 465;
y = 607;
},
{
smooth = 0;
x = 613;
y = 613;
},
{
segmentType = curve;
smooth = 0;
x = 674;
y = 638;
},
{
segmentType = line;
smooth = 0;
x = 685;
y = 611;
},
{
smooth = 0;
x = 653;
y = 584;
},
{
smooth = 0;
x = 578;
y = 562;
},
{
segmentType = curve;
smooth = 1;
x = 504;
y = 562;
}
);
},
{
points = (
{
segmentType = move;
smooth = 0;
x = 700;
y = 395;
},
{
smooth = 0;
x = 698;
y = 597;
},
{
smooth = 0;
x = 536;
y = 764;
},
{
segmentType = curve;
smooth = 0;
x = 331;
y = 764;
},
{
segmentType = line;
smooth = 0;
x = 346;
y = 857;
},
{
smooth = 0;
x = 550;
y = 857;
},
{
smooth = 0;
x = 756;
y = 666;
},
{
segmentType = curve;
smooth = 0;
x = 752;
y = 403;
}
);
}
);
lib = {
};
name = sinTtha;
unicodes = (
);
width = 827;
};
};
};
width = 650;
}
);
unicode = 3496;
},
{
glyphname = sinDda;
lastChange = "2024-04-01 07:38:10 +0000";
layers = (
{
layerId = "51BB9282-3B82-4DF1-A67A-294D3E37D73A";
shapes = (
{
closed = 1;
nodes = (
(595,-19,o),
(652,126,o),
(652,258,cs),
(652,445,o),
(539,601,o),
(335,601,cs),
(241,601,o),
(176,580,o),
(136,561,c),
(126,545,o),
(122,511,o),
(124,490,c),
(132,494,o),
(204,533,o),
(331,533,cs),
(469,533,o),
(607,458,o),
(607,284,cs),
(607,182,o),
(559,63,o),
(462,63,cs),
(411,63,o),
(381,96,o),
(381,146,cs),
(381,155,o),
(382,160,o),
(383,167,c),
(363,162,l),
(347,105,o),
(311,64,o),
(241,64,cs),
(174,64,o),
(138,101,o),
(138,158,cs),
(138,228,o),
(185,260,o),
(269,260,cs),
(306,260,o),
(332,254,o),
(347,247,c),
(359,255,l),
(361,264,o),
(361,268,o),
(361,288,cs),
(361,376,o),
(303,444,o),
(221,444,cs),
(166,444,o),
(131,414,o),
(131,378,cs),
(131,353,o),
(149,330,o),
(191,334,c),
(191,352,o),
(209,390,o),
(254,390,cs),
(283,390,o),
(316,375,o),
(316,331,cs),
(316,324,o),
(315,315,o),
(313,306,c),
(298,300,o),
(306,303,o),
(295,302,cs),
(182,296,o),
(91,251,o),
(91,129,cs),
(91,37,o),
(147,-15,o),
(230,-15,cs),
(322,-15,o),
(363,49,o),
(366,93,c),
(368,95,o),
(361,90,o),
(362,92,c),
(361,81,l),
(361,26,o),
(394,-19,o),
(466,-19,cs)
);
},
{
closed = 1;
nodes = (
(87,242,o),
(161,290,o),
(314,297,c),
(348,309,l),
(260,310,o),
(116,301,o),
(52,289,c),
(45,268,o),
(41,246,o),
(40,223,c),
(50,216,l)
);
}
);
width = 696;
}
);
unicode = 3497;
},
{
glyphname = sinDdha;
lastChange = "2024-04-01 07:38:10 +0000";
layers = (
{
layerId = "51BB9282-3B82-4DF1-A67A-294D3E37D73A";
shapes = (
{
closed = 1;
nodes = (
(595,-19,o),
(645,146,o),
(645,262,cs),
(645,490,o),
(451,630,o),
(290,630,c),
(264,558,l),
(277,559,o),
(273,559,o),
(279,559,cs),
(466,559,o),
(605,428,o),
(605,270,cs),
(605,185,o),
(565,63,o),
(464,63,cs),
(411,63,o),
(381,96,o),
(381,146,cs),
(381,155,o),
(382,160,o),
(383,167,c),
(363,162,l),
(347,105,o),
(310,64,o),
(236,64,cs),
(174,64,o),
(138,92,o),
(138,143,cs),
(138,208,o),
(196,240,o),
(261,240,cs),
(284,240,o),
(306,236,o),
(327,227,c),
(339,235,l),
(341,244,o),
(341,248,o),
(341,268,cs),
(341,356,o),
(283,424,o),
(201,424,cs),
(146,424,o),
(111,394,o),
(111,358,cs),
(111,333,o),
(129,310,o),
(171,314,c),
(171,332,o),
(189,370,o),
(234,370,cs),
(263,370,o),
(296,355,o),
(296,311,cs),
(296,304,o),
(295,295,o),
(293,286,c),
(288,284,o),
(286,284,o),
(275,282,cs),
(198,268,o),
(91,238,o),
(91,122,cs),
(91,38,o),
(147,-15,o),
(230,-15,cs),
(321,-15,o),
(363,49,o),
(366,93,c),
(362,92,l),
(361,81,l),
(361,19,o),
(402,-19,o),
(465,-19,cs)
);
},
{
closed = 1;
nodes = (
(67,222,o),
(171,270,o),
(294,277,c),
(328,289,l),
(240,290,o),
(96,281,o),
(32,269,c),
(25,248,o),
(21,226,o),
(20,203,c),
(30,196,l)
);
},
{
closed = 1;
nodes = (
(479,417,o),
(535,440,o),
(552,452,c),
(543,476,l),
(522,467,o),
(489,461,o),
(453,461,cs),
(318,461,o),
(290,538,o),
(290,630,c),
(260,614,l),
(258,606,o),
(255,586,o),
(255,564,cs),
(255,467,o),
(314,417,o),
(412,417,cs)
);
}
);
width = 695;
}
);
metricRight = "=sinTta";
unicode = 3498;
},
{
glyphname = sinNna;
lastChange = "2024-04-01 07:38:10 +0000";
layers = (
{
anchors = (
{
name = Virama;
pos = (829,371);
}
);
layerId = "51BB9282-3B82-4DF1-A67A-294D3E37D73A";
shapes = (
{
closed = 1;
nodes = (
(486,-11,o),
(528,157,o),
(528,243,cs),
(528,356,o),
(462,465,o),
(318,465,cs),
(206,465,o),
(114,392,o),
(114,275,cs),
(114,185,o),
(195,122,o),
(281,122,cs),
(348,122,o),
(396,162,o),
(396,218,cs),
(396,261,o),
(362,295,o),
(306,295,cs),
(265,295,o),
(244,276,o),
(207,241,c),
(197,206,l),
(223,232,o),
(251,262,o),
(288,262,cs),
(318,262,o),
(337,247,o),
(337,223,cs),
(337,182,o),
(303,163,o),
(272,163,cs),
(238,163,o),
(150,181,o),
(150,276,cs),
(150,363,o),
(211,408,o),
(311,408,cs),
(423,408,o),
(494,323,o),
(494,242,cs),
(494,145,o),
(429,70,o),
(303,70,cs),
(175,70,o),
(141,87,o),
(71,87,cs),
(60,87,o),
(48,85,o),
(34,80,c),
(74,65,l),
(168,190,o),
(451,466,o),
(625,576,c),
(622,594,o),
(600,626,o),
(581,631,c),
(405,479,o),
(173,248,o),
(50,87,c),
(29,85,o),
(10,71,o),
(10,48,cs),
(10,38,o),
(14,30,o),
(16,27,c),
(24,22,o),
(39,23,o),
(49,31,c),
(49,36,o),
(47,48,o),
(71,48,cs),
(149,48,o),
(179,-11,o),
(320,-11,cs)
);
},
{
closed = 1;
nodes = (
(828,-26,o),
(887,105,o),
(887,231,cs),
(887,351,o),
(834,405,o),
(770,405,cs),
(708,405,o),
(665,345,o),
(649,288,c),
(650,279,l),
(653,311,o),
(640,353,o),
(602,353,cs),
(554,353,o),
(519,298,o),
(516,253,c),
(523,191,l),
(535,254,o),
(548,288,o),
(579,288,cs),
(628,288,o),
(629,219,o),
(626,163,c),
(632,162,o),
(648,162,o),
(657,165,c),
(668,259,o),
(695,320,o),
(764,320,cs),
(801,320,o),
(854,297,o),
(854,211,cs),
(854,124,o),
(800,51,o),
(694,51,cs),
(651,51,o),
(613,63,o),
(581,79,c),
(571,73,o),
(561,61,o),
(559,51,c),
(565,21,o),
(608,-26,o),
(691,-26,cs)
);
}
);
userData = {
com.typemytype.robofont.layerData = {
"Regular Oct 20 16, 02:48" = {
anchors = (
);
components = (
);
contours = (
{
points = (
{
segmentType = line;
smooth = 0;
x = 28;
y = 97;
},
{
smooth = 0;
x = 25;
y = 102.963;
},
{
smooth = 0;
x = 18.592;
y = 120.812;
},
{
segmentType = curve;
smooth = 1;
x = 25;
y = 142;
},
{
smooth = 0;
x = 32.234;
y = 165.92;
},
{
smooth = 0;
x = 60.559;
y = 176.889;
},
{
segmentType = curve;
smooth = 0;
x = 87;
y = 183;
},
{
smooth = 0;
x = 258.424;
y = 398.788;
},
{
smooth = 0;
x = 415.657;
y = 637.287;
},
{
segmentType = curve;
smooth = 0;
x = 644.114;
y = 834;
},
{
smooth = 0;
x = 655.424;
y = 828.275;
},
{
smooth = 0;
x = 693.356;
y = 807.518;
},
{
segmentType = curve;
smooth = 0;
x = 692.551;
y = 766;
},
{
smooth = 0;
x = 477.663;
y = 629.514;
},
{
smooth = 0;
x = 271.488;
y = 349.133;
},
{
segmentType = curve;
smooth = 0;
x = 137.643;
y = 182;
},
{
smooth = 0;
x = 253.335;
y = 187.191;
},
{
smooth = 0;
x = 258.601;
y = 95.489;
},
{
segmentType = curve;
smooth = 1;
x = 441.04;
y = 91;
},
{
smooth = 0;
x = 615.771;
y = 86.701;
},
{
smooth = 0;
x = 689.237;
y = 184.328;
},
{
segmentType = curve;
smooth = 1;
x = 698.723;
y = 300;
},
{
smooth = 0;
x = 707.12;
y = 402.947;
},
{
smooth = 0;
x = 610.03;
y = 489;
},
{
segmentType = curve;
smooth = 1;
x = 496.89;
y = 489;
},
{
smooth = 0;
x = 382.726;
y = 489;
},
{
smooth = 0;
x = 340.663;
y = 410.417;
},
{
segmentType = curve;
smooth = 1;
x = 338.988;
y = 346;
},
{
smooth = 0;
x = 334.993;
y = 220.082;
},
{
smooth = 0;
x = 414.476;
y = 206;
},
{
segmentType = curve;
smooth = 1;
x = 440;
y = 206;
},
{
smooth = 0;
x = 469.212;
y = 206;
},
{
smooth = 0;
x = 500.479;
y = 221.47;
},
{
segmentType = curve;
smooth = 1;
x = 502.988;
y = 256;
},
{
smooth = 0;
x = 506;
y = 297;
},
{
smooth = 0;
x = 471;
y = 337;
},
{
segmentType = curve;
smooth = 1;
x = 420;
y = 340;
},
{
smooth = 0;
x = 381;
y = 342;
},
{
smooth = 0;
x = 346;
y = 329;
},
{
segmentType = curve;
smooth = 0;
x = 311.403;
y = 293;
},
{
segmentType = line;
smooth = 1;
x = 321.496;
y = 352;
},
{
smooth = 0;
x = 369.448;
y = 398.244;
},
{
smooth = 0;
x = 411.263;
y = 409.109;
},
{
segmentType = curve;
smooth = 1;
x = 450.432;
y = 408.938;
},
{
smooth = 0;
x = 539.853;
y = 408.546;
},
{
smooth = 0;
x = 588.079;
y = 348.131;
},
{
segmentType = curve;
smooth = 1;
x = 584.465;
y = 279;
},
{
smooth = 0;
x = 580.692;
y = 206.85;
},
{
smooth = 0;
x = 528.761;
y = 162;
},
{
segmentType = curve;
smooth = 1;
x = 448.966;
y = 162;
},
{
smooth = 0;
x = 346.22;
y = 162;
},
{
smooth = 0;
x = 281.097;
y = 242.486;
},
{
segmentType = curve;
smooth = 1;
x = 286.456;
y = 334;
},
{
smooth = 0;
x = 291.518;
y = 440.308;
},
{
smooth = 0;
x = 340.537;
y = 481.553;
},
{
segmentType = curve;
smooth = 0;
x = 410;
y = 515;
},
{
smooth = 0;
x = 434;
y = 540;
},
{
smooth = 0;
x = 469;
y = 556;
},
{
segmentType = curve;
smooth = 0;
x = 486;
y = 561.193;
},
{
smooth = 0;
x = 495.386;
y = 563.717;
},
{
smooth = 0;
x = 505.11;
y = 565;
},
{
segmentType = curve;
smooth = 1;
x = 515.086;
y = 565;
},
{
smooth = 0;
x = 662.006;
y = 565;
},
{
smooth = 0;
x = 756.191;
y = 453.418;
},
{
segmentType = curve;
smooth = 1;
x = 748.308;
y = 303;
},
{
smooth = 0;
x = 742.426;
y = 190.77;
},
{
smooth = 0;
x = 668.449;
y = -9.409;
},
{
segmentType = curve;
smooth = 1;
x = 471.799;
y = -11;
},
{
smooth = 0;
x = 235.818;
y = -12.909;
},
{
smooth = 0;
x = 243.882;
y = 132.151;
},
{
segmentType = curve;
smooth = 1;
x = 112.019;
y = 133;
},
{
smooth = 0;
x = 84.627;
y = 133.176;
},
{
smooth = 0;
x = 72.632;
y = 120.883;
},
{
segmentType = curve;
smooth = 0;
x = 60.241;
y = 114;
}
);
},
{
points = (
{
segmentType = curve;
smooth = 0;
x = 740.425;
y = 248;
},
{
smooth = 0;
x = 732.964;
y = 248;
},
{
smooth = 0;
x = 730.169;
y = 259.429;
},
{
segmentType = curve;
smooth = 0;
x = 731.617;
y = 328;
},
{
smooth = 0;
x = 736.165;
y = 385.644;
},
{
smooth = 0;
x = 779.953;
y = 458.204;
},
{
segmentType = curve;
smooth = 1;
x = 841.012;
y = 459;
},
{
smooth = 0;
x = 891.771;
y = 459.662;
},
{
smooth = 0;
x = 916.444;
y = 417.347;
},
{
segmentType = curve;
smooth = 0;
x = 912.032;
y = 375;
},
{
segmentType = line;
smooth = 0;
x = 901.976;
y = 393;
},
{
smooth = 0;
x = 924.749;
y = 458.921;
},
{
smooth = 0;
x = 990.364;
y = 526.474;
},
{
segmentType = curve;
smooth = 1;
x = 1065.99;
y = 526;
},
{
smooth = 0;
x = 1150.03;
y = 525.473;
},
{
smooth = 0;
x = 1214.1;
y = 461.982;
},
{
segmentType = curve;
smooth = 1;
x = 1214.05;
y = 299;
},
{
smooth = 0;
x = 1214;
y = 160.093;
},
{
smooth = 0;
x = 1127.67;
y = -10.06;
},
{
segmentType = curve;
smooth = 1;
x = 991.855;
y = -30;
},
{
smooth = 0;
x = 872.116;
y = -47.579;
},
{
smooth = 0;
x = 782.128;
y = 13.315;
},
{
segmentType = curve;
smooth = 0;
x = 777.979;
y = 74;
},
{
smooth = 0;
x = 783.117;
y = 89;
},
{
smooth = 0;
x = 793.567;
y = 104;
},
{
segmentType = curve;
smooth = 0;
x = 806.918;
y = 110;
},
{
smooth = 0;
x = 848.814;
y = 82.349;
},
{
smooth = 0;
x = 935.935;
y = 60.869;
},
{
segmentType = curve;
smooth = 1;
x = 978.468;
y = 68;
},
{
smooth = 0;
x = 1109.99;
y = 90.05;
},
{
smooth = 0;
x = 1160.37;
y = 195.087;
},
{
segmentType = curve;
smooth = 1;
x = 1158.27;
y = 287;
},
{
smooth = 0;
x = 1155.96;
y = 387.717;
},
{
smooth = 0;
x = 1101.95;
y = 418.24;
},
{
segmentType = curve;
smooth = 1;
x = 1050.23;
y = 415;
},
{
smooth = 0;
x = 966.716;
y = 409.768;
},
{
smooth = 0;
x = 920.161;
y = 308.776;
},
{
segmentType = curve;
smooth = 0;
x = 916.368;
y = 266;
},
{
smooth = 0;
x = 903.848;
y = 262;
},
{
smooth = 0;
x = 883.219;
y = 262;
},
{
segmentType = curve;
smooth = 0;
x = 875.211;
y = 263;
},
{
smooth = 0;
x = 881.463;
y = 337.694;
},
{
smooth = 0;
x = 844.281;
y = 375.648;
},
{
segmentType = curve;
smooth = 1;
x = 815.028;
y = 374;
},
{
smooth = 0;
x = 773.101;
y = 371.638;
},
{
smooth = 0;
x = 758.611;
y = 337.557;
}
);
}
);
lib = {
};
name = sinNna;
unicodes = (
);
width = 1253;
};
};
};
width = 937;
}
);
unicode = 3499;
},
{
glyphname = sinNndda;
lastChange = "2024-04-01 07:38:10 +0000";
layers = (
{
layerId = "51BB9282-3B82-4DF1-A67A-294D3E37D73A";
shapes = (
{
closed = 1;
nodes = (
(146,-6,o),
(156,-2,o),
(161,1,c),
(140,33,o),
(97,80,o),
(97,184,cs),
(97,259,o),
(116,378,o),
(257,378,cs),
(270,378,o),
(270,378,o),
(277,376,c),
(282,387,l),
(380,391,l),
(377,420,l),
(370,422,o),
(359,424,o),
(341,425,cs),
(328,426,o),
(317,427,o),
(292,427,cs),
(135,427,o),
(44,339,o),
(44,181,cs),
(44,86,o),
(91,27,o),
(127,-6,c)
);
},
{
pos = (121,0);
ref = sinDda;
}
);
width = 817;
}
);
unicode = 3500;
},
{
glyphname = sinTa;
lastChange = "2024-04-01 07:38:10 +0000";
layers = (
{
anchors = (
{
name = MatraI;
pos = (296,340);
},
{
name = Virama;
pos = (665,394);
},
{
name = rakaransaya;
pos = (759,217);
}
);
layerId = "51BB9282-3B82-4DF1-A67A-294D3E37D73A";
shapes = (
{
closed = 1;
nodes = (
(408,-7,o),
(493,106,o),
(493,201,cs),
(493,275,o),
(442,313,o),
(372,313,cs),
(328,313,o),
(288,298,o),
(259,281,cs),
(213,254,o),
(219,257,o),
(204,245,c),
(214,256,o),
(228,269,o),
(249,285,cs),
(308,330,o),
(384,373,o),
(495,373,cs),
(623,373,o),
(715,315,o),
(715,208,cs),
(715,123,o),
(658,72,o),
(536,72,cs),
(532,72,o),
(531,72,o),
(506,76,c),
(496,71,l),
(500,43,o),
(521,5,o),
(534,-6,c),
(701,-1,o),
(760,128,o),
(760,233,cs),
(760,375,o),
(653,456,o),
(531,456,cs),
(424,456,o),
(315,394,o),
(239,322,cs),
(180,266,o),
(82,152,o),
(32,89,c),
(28,67,o),
(57,53,o),
(58,52,c),
(81,113,o),
(132,160,o),
(160,183,cs),
(207,222,o),
(255,247,o),
(338,247,cs),
(406,247,o),
(453,230,o),
(453,184,cs),
(453,139,o),
(409,70,o),
(283,70,cs),
(176,70,o),
(153,120,o),
(108,120,cs),
(93,120,o),
(70,115,o),
(57,101,c),
(61,58,l),
(61,78,o),
(79,95,o),
(93,95,cs),
(128,95,o),
(145,-7,o),
(273,-7,cs)
);
},
{
closed = 1;
nodes = (
(203,276,l),
(221,294,o),
(264,355,o),
(264,397,cs),
(264,435,o),
(228,452,o),
(185,452,cs),
(107,452,o),
(32,397,o),
(32,328,cs),
(32,297,o),
(47,280,o),
(79,280,cs),
(95,280,o),
(112,284,o),
(120,289,c),
(114,296,o),
(102,318,o),
(102,345,cs),
(102,377,o),
(119,417,o),
(164,417,cs),
(198,417,o),
(213,395,o),
(213,362,cs),
(213,330,o),
(199,280,o),
(180,258,c)
);
}
);
width = 798;
}
);
unicode = 3501;
},
{
glyphname = sinTha;
lastChange = "2024-04-01 07:38:10 +0000";
layers = (
{
layerId = "51BB9282-3B82-4DF1-A67A-294D3E37D73A";
shapes = (
{
closed = 1;
nodes = (
(444,-18,o),
(552,112,o),
(552,277,cs),
(552,491,o),
(370,630,o),
(214,630,c),
(191,566,l),
(349,566,o),
(506,450,o),
(506,291,cs),
(506,174,o),
(421,69,o),
(265,69,cs),
(162,69,o),
(80,115,o),
(80,193,cs),
(80,259,o),
(140,295,o),
(229,295,cs),
(241,295,o),
(251,294,o),
(257,293,c),
(267,308,l),
(267,327,o),
(257,365,o),
(246,380,c),
(149,381,o),
(40,293,o),
(40,169,cs),
(40,46,o),
(147,-18,o),
(269,-18,cs)
);
},
{
closed = 1;
nodes = (
(393,417,o),
(451,434,o),
(475,455,c),
(467,476,l),
(446,467,o),
(413,461,o),
(377,461,cs),
(260,461,o),
(214,516,o),
(214,630,c),
(183,614,l),
(181,605,o),
(178,586,o),
(178,564,cs),
(178,470,o),
(231,417,o),
(334,417,cs)
);
}
);
width = 597;
}
);
unicode = 3502;
},
{
glyphname = sinDa;
lastChange = "2024-04-01 07:38:10 +0000";
layers = (
{
anchors = (
{
name = Virama;
pos = (354,407);
}
);
layerId = "51BB9282-3B82-4DF1-A67A-294D3E37D73A";
shapes = (
{
closed = 1;
nodes = (
(330,-36,o),
(379,-25,o),
(412,-13,c),
(420,4,o),
(425,23,o),
(425,52,c),
(417,62,l),
(371,42,o),
(316,30,o),
(254,30,cs),
(158,30,o),
(79,55,o),
(79,125,cs),
(79,200,o),
(146,257,o),
(293,257,cs),
(315,257,o),
(364,254,o),
(390,250,c),
(404,268,l),
(409,353,o),
(365,462,o),
(244,462,cs),
(170,462,o),
(118,426,o),
(118,373,cs),
(118,344,o),
(139,326,o),
(172,326,cs),
(182,326,o),
(192,328,o),
(204,330,c),
(202,337,o),
(202,343,o),
(202,350,cs),
(202,391,o),
(237,413,o),
(272,413,cs),
(322,413,o),
(341,377,o),
(345,316,c),
(333,319,o),
(321,320,o),
(296,320,cs),
(138,320,o),
(40,242,o),
(40,122,cs),
(40,15,o),
(142,-36,o),
(257,-36,cs)
);
},
{
closed = 1;
nodes = (
(411,-243,o),
(439,-237,o),
(473,-221,c),
(476,-199,o),
(471,-159,o),
(453,-148,c),
(418,-171,o),
(389,-177,o),
(367,-177,cs),
(304,-177,o),
(282,-149,o),
(282,-118,cs),
(282,-29,o),
(375,-27,o),
(411,-14,c),
(407,-12,o),
(404,-1,o),
(400,1,c),
(393,2,o),
(378,-11,o),
(380,-4,cs),
(386,20,l),
(333,-3,o),
(230,-29,o),
(230,-134,cs),
(230,-188,o),
(268,-243,o),
(368,-243,cs)
);
}
);
width = 483;
}
);
unicode = 3503;
},
{
glyphname = sinDha;
lastChange = "2024-04-01 07:38:10 +0000";
layers = (
{
layerId = "51BB9282-3B82-4DF1-A67A-294D3E37D73A";
shapes = (
{
closed = 1;
nodes = (
(559,-16,o),
(612,116,o),
(612,267,cs),
(612,459,o),
(504,597,o),
(292,597,cs),
(192,597,o),
(130,577,o),
(98,554,c),
(89,539,o),
(84,517,o),
(84,499,cs),
(84,491,o),
(85,484,o),
(87,479,c),
(119,499,o),
(170,525,o),
(287,525,cs),
(420,525,o),
(566,473,o),
(566,284,cs),
(566,151,o),
(518,65,o),
(438,65,cs),
(396,65,o),
(345,79,o),
(345,149,c),
(346,158,l),
(327,154,l),
(309,108,o),
(280,69,o),
(211,69,cs),
(140,69,o),
(82,111,o),
(82,192,cs),
(82,262,o),
(137,311,o),
(255,311,cs),
(279,311,o),
(305,308,o),
(332,302,c),
(343,315,l),
(341,337,o),
(333,363,o),
(323,382,c),
(312,383,o),
(300,384,o),
(287,384,cs),
(148,384,o),
(44,309,o),
(44,172,cs),
(44,50,o),
(118,-15,o),
(206,-15,cs),
(292,-15,o),
(328,48,o),
(333,83,c),
(325,105,l),
(324,99,o),
(323,93,o),
(323,85,cs),
(323,29,o),
(372,-16,o),
(447,-16,cs)
);
}
);
width = 656;
}
);
unicode = 3504;
},
{
glyphname = sinNa;
lastChange = "2024-04-01 08:52:26 +0000";
layers = (
{
anchors = (
{
name = MatraI;
pos = (332,348);
},
{
name = Virama;
pos = (655,417);
}
);
layerId = "51BB9282-3B82-4DF1-A67A-294D3E37D73A";
shapes = (
{
closed = 1;
nodes = (
(692,-21,o),
(778,117,o),
(778,248,cs),
(778,396,o),
(657,451,o),
(554,451,cs),
(450,451,o),
(340,396,o),
(250,295,cs),
(189,226,o),
(130,131,o),
(82,131,cs),
(67,131,o),
(60,141,o),
(60,156,cs),
(60,160,o),
(60,164,o),
(61,169,c),
(59,170,o),
(53,171,o),
(46,171,cs),
(39,171,o),
(30,170,o),
(25,168,c),
(34,84,o),
(99,-15,o),
(246,-15,cs),
(388,-15,o),
(482,77,o),
(482,192,cs),
(482,265,o),
(442,303,o),
(386,303,cs),
(325,303,o),
(264,259,o),
(206,213,c),
(202,197,l),
(205,203,o),
(245,250,o),
(265,270,cs),
(323,327,o),
(429,368,o),
(524,368,cs),
(629,368,o),
(730,316,o),
(730,205,cs),
(730,107,o),
(650,56,o),
(555,56,cs),
(536,56,o),
(523,58,o),
(502,60,c),
(490,55,l),
(490,28,o),
(512,-6,o),
(526,-18,c)
);
},
{
closed = 1;
nodes = (
(172,66,o),
(103,77,o),
(75,115,c),
(72,91,l),
(174,92,o),
(196,240,o),
(358,240,cs),
(417,240,o),
(446,223,o),
(446,183,cs),
(446,120,o),
(369,66,o),
(233,66,cs)
);
},
{
closed = 1;
nodes = (
(259,286,o),
(303,351,o),
(303,393,cs),
(303,426,o),
(277,447,o),
(227,447,cs),
(148,447,o),
(71,395,o),
(71,325,cs),
(71,292,o),
(88,276,o),
(121,276,cs),
(135,276,o),
(151,279,o),
(162,284,c),
(154,293,o),
(146,314,o),
(146,337,cs),
(146,379,o),
(172,413,o),
(206,413,cs),
(235,413,o),
(257,389,o),
(257,355,cs),
(257,327,o),
(241,287,o),
(230,272,c),
(237,265,l)
);
}
);
userData = {
com.typemytype.robofont.layerData = {
"Regular Nov 5 16, 12:40" = {
anchors = (
{
name = Virama;
x = 869;
y = 542;
}
);
components = (
);
contours = (
{
points = (
{
segmentType = line;
smooth = 0;
x = 116.207;
y = 146;
},
{
smooth = 0;
x = 163.174;
y = 97.984;
},
{
smooth = 0;
x = 227.114;
y = 84.691;
},
{
segmentType = curve;
smooth = 1;
x = 335.442;
y = 88;
},
{
smooth = 0;
x = 427.739;
y = 90.842;
},
{
smooth = 0;
x = 582.314;
y = 137.947;
},
{
segmentType = curve;
smooth = 1;
x = 593.535;
y = 235;
},
{
smooth = 0;
x = 598.385;
y = 276.951;
},
{
smooth = 0;
x = 556.606;
y = 312;
},
{
segmentType = curve;
smooth = 1;
x = 488.606;
y = 312;
},
{
smooth = 0;
x = 303.606;
y = 312;
},
{
smooth = 0;
x = 224;
y = 141;
},
{
segmentType = curve;
smooth = 0;
x = 112;
y = 140;
}
);
},
{
points = (
{
segmentType = curve;
smooth = 1;
x = 111.813;
y = 438;
},
{
smooth = 0;
x = 121.246;
y = 528;
},
{
smooth = 0;
x = 222.053;
y = 594;
},
{
segmentType = curve;
smooth = 1;
x = 323.164;
y = 594;
},
{
smooth = 0;
x = 389.164;
y = 594;
},
{
smooth = 0;
x = 429.544;
y = 569;
},
{
segmentType = curve;
smooth = 1;
x = 423.359;
y = 510;
},
{
smooth = 0;
x = 419.271;
y = 471;
},
{
smooth = 0;
x = 364.943;
y = 382;
},
{
segmentType = curve;
smooth = 0;
x = 338.323;
y = 357;
},
{
segmentType = line;
smooth = 0;
x = 328.267;
y = 366;
},
{
smooth = 0;
x = 343.468;
y = 387;
},
{
smooth = 0;
x = 358.45;
y = 425;
},
{
segmentType = curve;
smooth = 1;
x = 362.538;
y = 464;
},
{
smooth = 0;
x = 367.674;
y = 513;
},
{
smooth = 0;
x = 339.343;
y = 549;
},
{
segmentType = curve;
smooth = 1;
x = 293.343;
y = 549;
},
{
smooth = 0;
x = 252.871;
y = 549;
},
{
smooth = 0;
x = 225.045;
y = 507;
},
{
segmentType = curve;
smooth = 1;
x = 220.224;
y = 461;
},
{
smooth = 0;
x = 216.45;
y = 425;
},
{
smooth = 0;
x = 230.201;
y = 394;
},
{
segmentType = curve;
smooth = 0;
x = 239.943;
y = 382;
},
{
smooth = 0;
x = 226.21;
y = 375;
},
{
smooth = 0;
x = 203.79;
y = 371;
},
{
segmentType = curve;
smooth = 1;
x = 187.79;
y = 371;
},
{
smooth = 0;
x = 135.761;
y = 371;
},
{
smooth = 0;
x = 106.991;
y = 392;
}
);
},
{
points = (
{
segmentType = curve;
smooth = 0;
x = 49.753;
y = 218;
},
{
smooth = 0;
x = 61.897;
y = 224.157;
},
{
smooth = 0;
x = 91.538;
y = 223.364;
},
{
segmentType = curve;
smooth = 0;
x = 97.915;
y = 220;
},
{
smooth = 0;
x = 92.189;
y = 191;
},
{
smooth = 0;
x = 97.723;
y = 170;
},
{
segmentType = curve;
smooth = 1;
x = 126.723;
y = 170;
},
{
smooth = 0;
x = 187.723;
y = 170;
},
{
smooth = 0;
x = 283.787;
y = 315.112;
},
{
segmentType = curve;
smooth = 1;
x = 343.048;
y = 383;
},
{
smooth = 0;
x = 469.106;
y = 521;
},
{
smooth = 0;
x = 620.78;
y = 592;
},
{
segmentType = curve;
smooth = 1;
x = 743.954;
y = 592;
},
{
smooth = 0;
x = 922.278;
y = 592;
},
{
smooth = 0;
x = 1046.36;
y = 474.483;
},
{
segmentType = curve;
smooth = 1;
x = 1025.72;
y = 294;
},
{
smooth = 0;
x = 1009.67;
y = 151.066;
},
{
smooth = 0;
x = 926.346;
y = -25.467;
},
{
segmentType = curve;
smooth = 0;
x = 701.227;
y = -24;
},
{
smooth = 0;
x = 662.952;
y = 2;
},
{
smooth = 0;
x = 651.717;
y = 47;
},
{
segmentType = curve;
smooth = 1;
x = 654.232;
y = 71;
},
{
segmentType = line;
smooth = 0;
x = 669.966;
y = 78;
},
{
smooth = 0;
x = 702.743;
y = 74;
},
{
smooth = 0;
x = 720.897;
y = 70.291;
},
{
segmentType = curve;
smooth = 1;
x = 752.394;
y = 73;
},
{
smooth = 0;
x = 857.042;
y = 82;
},
{
smooth = 0;
x = 952.272;
y = 127.629;
},
{
segmentType = curve;
smooth = 1;
x = 966.147;
y = 260;
},
{
smooth = 0;
x = 980.053;
y = 390.232;
},
{
smooth = 0;
x = 843.22;
y = 484;
},
{
segmentType = curve;
smooth = 1;
x = 699.529;
y = 484;
},
{
smooth = 0;
x = 571.702;
y = 484;
},
{
smooth = 0;
x = 455.857;
y = 433.006;
},
{
segmentType = curve;
smooth = 1;
x = 361.589;
y = 350;
},
{
smooth = 0;
x = 343;
y = 333;
},
{
smooth = 0;
x = 303;
y = 290;
},
{
segmentType = curve;
smooth = 0;
x = 307;
y = 286;
},
{
segmentType = line;
smooth = 0;
x = 286;
y = 277;
},
{
smooth = 0;
x = 360;
y = 336;
},
{
smooth = 0;
x = 445;
y = 394;
},
{
segmentType = curve;
smooth = 1;
x = 513;
y = 394;
},
{
smooth = 0;
x = 592;
y = 394;
},
{
smooth = 0;
x = 639;
y = 344;
},
{
segmentType = curve;
smooth = 1;
x = 640;
y = 261;
},
{
smooth = 0;
x = 640;
y = 89;
},
{
smooth = 0;
x = 521;
y = -19;
},
{
segmentType = curve;
smooth = 1;
x = 329.96;
y = -19;
},
{
smooth = 0;
x = 153.96;
y = -19;
},
{
smooth = 0;
x = 61.224;
y = 108;
}
);
}
);
lib = {
};
name = sinNa;
unicodes = (
);
width = 1072;
};
};
};
width = 813;
}
);
unicode = 3505;
},
{
glyphname = sinNda;
lastChange = "2024-04-01 07:38:10 +0000";
layers = (
{
layerId = "51BB9282-3B82-4DF1-A67A-294D3E37D73A";
shapes = (
{
closed = 1;
nodes = (
(115,2,o),
(126,6,o),
(130,9,c),
(116,34,o),
(91,101,o),
(91,173,cs),
(91,291,o),
(159,421,o),
(263,412,c),
(345,461,l),
(331,463,o),
(317,464,o),
(303,464,cs),
(168,464,o),
(30,363,o),
(30,197,cs),
(30,110,o),
(70,33,o),
(96,2,c)
);
},
{
pos = (111,0);
ref = sinDa;
}
);
width = 581;
}
);
unicode = 3507;
},
{
glyphname = sinPa;
lastChange = "2024-04-01 07:38:10 +0000";
layers = (
{
anchors = (
{
name = _si_MaU;
pos = (566,196);
},
{
name = rakar;
pos = (571,165);
}
);
layerId = "51BB9282-3B82-4DF1-A67A-294D3E37D73A";
shapes = (
{
closed = 1;
nodes = (
(463,-20,o),
(580,70,o),
(580,193,cs),
(580,283,o),
(519,330,o),
(438,330,cs),
(399,330,o),
(372,322,o),
(349,311,c),
(398,287,l),
(390,298,o),
(374,314,o),
(374,353,cs),
(374,401,o),
(415,416,o),
(443,416,cs),
(486,416,o),
(522,392,o),
(522,355,cs),
(522,319,o),
(502,306,o),
(497,299,c),
(508,283,l),
(534,293,o),
(569,319,o),
(569,374,cs),
(569,417,o),
(532,463,o),
(465,463,cs),
(377,463,o),
(332,397,o),
(332,300,cs),
(332,288,o),
(333,276,o),
(334,264,c),
(344,256,l),
(377,270,o),
(411,276,o),
(446,276,cs),
(500,276,o),
(543,259,o),
(543,204,cs),
(543,127,o),
(449,70,o),
(315,70,cs),
(169,70,o),
(79,116,o),
(79,179,cs),
(79,239,o),
(136,268,o),
(222,268,cs),
(241,268,o),
(262,266,o),
(284,263,c),
(295,275,l),
(299,292,o),
(301,312,o),
(301,332,cs),
(301,394,o),
(276,461,o),
(183,461,cs),
(122,461,o),
(84,427,o),
(84,390,cs),
(84,353,o),
(111,340,o),
(137,338,c),
(145,369,o),
(175,411,o),
(218,411,cs),
(251,411,o),
(266,386,o),
(266,363,cs),
(266,325,o),
(245,303,o),
(235,294,c),
(272,323,l),
(261,325,o),
(249,326,o),
(238,326,cs),
(142,326,o),
(45,271,o),
(45,169,cs),
(45,78,o),
(116,-20,o),
(310,-20,cs)
);
}
);
userData = {
com.typemytype.robofont.layerData = {
"Jan 18 17, 13:23" = {
anchors = (
{
name = _si_MaU;
x = 737;
y = 255;
},
{
name = Virama;
x = 713;
y = 527;
}
);
components = (
);
contours = (
{
points = (
{
segmentType = line;
smooth = 0;
x = 370;
y = 332;
},
{
smooth = 0;
x = 218;
y = 354;
},
{
smooth = 0;
x = 101;
y = 316;
},
{
segmentType = curve;
smooth = 1;
x = 101;
y = 233;
},
{
smooth = 0;
x = 101;
y = 151;
},
{
smooth = 0;
x = 204;
y = 85;
},
{
segmentType = curve;
smooth = 1;
x = 402;
y = 82;
},
{
smooth = 0;
x = 580;
y = 79;
},
{
smooth = 0;
x = 708;
y = 163;
},
{
segmentType = curve;
smooth = 1;
x = 708;
y = 258;
},
{
smooth = 0;
x = 708;
y = 325;
},
{
smooth = 0;
x = 652;
y = 351;
},
{
segmentType = curve;
smooth = 1;
x = 584;
y = 353;
},
{
smooth = 0;
x = 542;
y = 354;
},
{
smooth = 0;
x = 490;
y = 337;
},
{
segmentType = curve;
smooth = 0;
x = 448;
y = 322;
},
{
segmentType = line;
smooth = 0;
x = 435;
y = 333;
},
{
smooth = 0;
x = 427;
y = 472;
},
{
smooth = 0;
x = 499;
y = 588;
},
{
segmentType = curve;
smooth = 1;
x = 630;
y = 588;
},
{
smooth = 0;
x = 720;
y = 588;
},
{
smooth = 0;
x = 754;
y = 530;
},
{
segmentType = curve;
smooth = 1;
x = 749;
y = 477;
},
{
smooth = 0;
x = 742;
y = 404;
},
{
smooth = 0;
x = 678;
y = 385;
},
{
segmentType = curve;
smooth = 0;
x = 647;
y = 368;
},
{
smooth = 0;
x = 652;
y = 376;
},
{
smooth = 0;
x = 670;
y = 410;
},
{
segmentType = curve;
smooth = 1;
x = 674;
y = 444;
},
{
smooth = 0;
x = 680;
y = 499;
},
{
smooth = 0;
x = 642;
y = 531;
},
{
segmentType = curve;
smooth = 1;
x = 589;
y = 531;
},
{
smooth = 0;
x = 541;
y = 531;
},
{
smooth = 0;
x = 504;
y = 499;
},
{
segmentType = curve;
smooth = 1;
x = 499;
y = 452;
},
{
smooth = 0;
x = 494;
y = 407;
},
{
smooth = 0;
x = 513;
y = 395;
},
{
segmentType = curve;
smooth = 0;
x = 524;
y = 379;
},
{
segmentType = line;
smooth = 0;
x = 455;
y = 395;
},
{
smooth = 0;
x = 498;
y = 410;
},
{
smooth = 0;
x = 522;
y = 417;
},
{
segmentType = curve;
smooth = 1;
x = 580;
y = 416;
},
{
smooth = 0;
x = 680;
y = 414;
},
{
smooth = 0;
x = 754;
y = 354;
},
{
segmentType = curve;
smooth = 1;
x = 754;
y = 251;
},
{
smooth = 0;
x = 754;
y = 91;
},
{
smooth = 0;
x = 602;
y = -26;
},
{
segmentType = curve;
smooth = 1;
x = 417;
y = -26;
},
{
smooth = 0;
x = 152;
y = -26;
},
{
smooth = 0;
x = 60;
y = 101;
},
{
segmentType = curve;
smooth = 1;
x = 60;
y = 220;
},
{
smooth = 0;
x = 60;
y = 353;
},
{
smooth = 0;
x = 219;
y = 431;
},
{
segmentType = curve;
smooth = 0;
x = 355;
y = 410;
},
{
segmentType = line;
smooth = 0;
x = 307;
y = 372;
},
{
smooth = 0;
x = 320;
y = 383;
},
{
smooth = 0;
x = 342;
y = 406;
},
{
segmentType = curve;
smooth = 1;
x = 341;
y = 451;
},
{
smooth = 0;
x = 340;
y = 490;
},
{
smooth = 0;
x = 326;
y = 523;
},
{
segmentType = curve;
smooth = 1;
x = 284;
y = 524;
},
{
smooth = 0;
x = 229;
y = 525;
},
{
smooth = 0;
x = 189;
y = 469;
},
{
segmentType = curve;
smooth = 0;
x = 179;
y = 429;
},
{
smooth = 0;
x = 146;
y = 431;
},
{
smooth = 0;
x = 104;
y = 450;
},
{
segmentType = curve;
smooth = 1;
x = 110;
y = 498;
},
{
smooth = 0;
x = 116;
y = 544;
},
{
smooth = 0;
x = 161;
y = 589;
},
{
segmentType = curve;
smooth = 1;
x = 240;
y = 589;
},
{
smooth = 0;
x = 400;
y = 589;
},
{
smooth = 0;
x = 404;
y = 437;
},
{
segmentType = curve;
smooth = 0;
x = 384;
y = 347;
}
);
}
);
lib = {
};
name = sinPa;
unicodes = (
);
width = 816;
};
"Jan 18 17, 22:45" = {
anchors = (
{
name = _si_MaU;
x = 737;
y = 255;
},
{
name = Virama;
x = 713;
y = 527;
}
);
components = (
);
contours = (
{
points = (
{
segmentType = line;
smooth = 0;
x = 370;
y = 332;
},
{
smooth = 0;
x = 341;
y = 336;
},
{
smooth = 0;
x = 314;
y = 338;
},
{
segmentType = curve;
smooth = 1;
x = 289;
y = 338;
},
{
smooth = 0;
x = 178;
y = 338;
},
{
smooth = 0;
x = 101;
y = 300;
},
{
segmentType = curve;
smooth = 1;
x = 101;
y = 233;
},
{
smooth = 0;
x = 101;
y = 150;
},
{
smooth = 0;
x = 208;
y = 82;
},
{
segmentType = curve;
smooth = 1;
x = 411;
y = 82;
},
{
smooth = 0;
x = 584;
y = 82;
},
{
smooth = 0;
x = 708;
y = 165;
},
{
segmentType = curve;
smooth = 1;
x = 708;
y = 258;
},
{
smooth = 0;
x = 708;
y = 326;
},
{
smooth = 0;
x = 650;
y = 353;
},
{
segmentType = curve;
smooth = 1;
x = 580;
y = 353;
},
{
smooth = 0;
x = 535;
y = 353;
},
{
smooth = 0;
x = 489;
y = 337;
},
{
segmentType = curve;
smooth = 0;
x = 448;
y = 322;
},
{
segmentType = line;
smooth = 0;
x = 435;
y = 333;
},
{
smooth = 0;
x = 419;
y = 473;
},
{
smooth = 0;
x = 485;
y = 590;
},
{
segmentType = curve;
smooth = 1;
x = 624;
y = 590;
},
{
smooth = 0;
x = 714;
y = 590;
},
{
smooth = 0;
x = 746;
y = 531;
},
{
segmentType = curve;
smooth = 1;
x = 746;
y = 484;
},
{
smooth = 0;
x = 746;
y = 414;
},
{
smooth = 0;
x = 698;
y = 373;
},
{
segmentType = curve;
smooth = 0;
x = 664;
y = 360;
},
{
segmentType = line;
smooth = 0;
x = 647;
y = 378;
},
{
smooth = 0;
x = 653;
y = 387;
},
{
smooth = 0;
x = 680;
y = 408;
},
{
segmentType = curve;
smooth = 1;
x = 680;
y = 455;
},
{
smooth = 0;
x = 680;
y = 503;
},
{
smooth = 0;
x = 638;
y = 531;
},
{
segmentType = curve;
smooth = 1;
x = 589;
y = 531;
},
{
smooth = 0;
x = 536;
y = 531;
},
{
smooth = 0;
x = 489;
y = 498;
},
{
segmentType = curve;
smooth = 1;
x = 489;
y = 439;
},
{
smooth = 0;
x = 489;
y = 405;
},
{
smooth = 0;
x = 503;
y = 393;
},
{
segmentType = curve;
smooth = 0;
x = 513;
y = 379;
},
{
segmentType = line;
smooth = 0;
x = 455;
y = 395;
},
{
smooth = 0;
x = 484;
y = 409;
},
{
smooth = 0;
x = 519;
y = 416;
},
{
segmentType = curve;
smooth = 1;
x = 570;
y = 416;
},
{
smooth = 0;
x = 675;
y = 416;
},
{
smooth = 0;
x = 754;
y = 357;
},
{
segmentType = curve;
smooth = 1;
x = 754;
y = 251;
},
{
smooth = 0;
x = 754;
y = 91;
},
{
smooth = 0;
x = 602;
y = -26;
},
{
segmentType = curve;
smooth = 1;
x = 417;
y = -26;
},
{
smooth = 0;
x = 152;
y = -26;
},
{
smooth = 0;
x = 60;
y = 101;
},
{
segmentType = curve;
smooth = 1;
x = 60;
y = 220;
},
{
smooth = 0;
x = 60;
y = 339;
},
{
smooth = 0;
x = 186;
y = 413;
},
{
segmentType = curve;
smooth = 1;
x = 310;
y = 413;
},
{
smooth = 0;
x = 325;
y = 413;
},
{
smooth = 0;
x = 340;
y = 412;
},
{
segmentType = curve;
smooth = 0;
x = 355;
y = 410;
},
{
segmentType = line;
smooth = 0;
x = 307;
y = 372;
},
{
smooth = 0;
x = 320;
y = 383;
},
{
smooth = 0;
x = 347;
y = 409;
},
{
segmentType = curve;
smooth = 1;
x = 347;
y = 452;
},
{
smooth = 0;
x = 347;
y = 492;
},
{
smooth = 0;
x = 327;
y = 524;
},
{
segmentType = curve;
smooth = 1;
x = 283;
y = 524;
},
{
smooth = 0;
x = 228;
y = 524;
},
{
smooth = 0;
x = 189;
y = 469;
},
{
segmentType = curve;
smooth = 0;
x = 179;
y = 429;
},
{
smooth = 0;
x = 146;
y = 431;
},
{
smooth = 0;
x = 110;
y = 448;
},
{
segmentType = curve;
smooth = 1;
x = 110;
y = 496;
},
{
smooth = 0;
x = 110;
y = 545;
},
{
smooth = 0;
x = 160;
y = 589;
},
{
segmentType = curve;
smooth = 1;
x = 239;
y = 589;
},
{
smooth = 0;
x = 360;
y = 589;
},
{
smooth = 0;
x = 392;
y = 502;
},
{
segmentType = curve;
smooth = 1;
x = 392;
y = 421;
},
{
smooth = 0;
x = 392;
y = 395;
},
{
smooth = 0;
x = 389;
y = 369;
},
{
segmentType = curve;
smooth = 0;
x = 384;
y = 347;
}
);
}
);
lib = {
};
name = sinPa;
unicodes = (
);
width = 816;
};
};
};
width = 625;
}
);
unicode = 3508;
},
{
glyphname = sinPha;
lastChange = "2024-04-01 07:38:10 +0000";
layers = (
{
layerId = "51BB9282-3B82-4DF1-A67A-294D3E37D73A";
shapes = (
{
closed = 1;
nodes = (
(457,-14,o),
(575,111,o),
(575,298,cs),
(575,513,o),
(409,630,o),
(248,630,c),
(222,566,l),
(366,566,o),
(529,465,o),
(529,298,cs),
(529,157,o),
(436,75,o),
(284,75,cs),
(169,75,o),
(88,106,o),
(88,163,cs),
(88,220,o),
(157,240,o),
(239,240,cs),
(259,240,o),
(280,239,o),
(299,236,c),
(315,248,l),
(318,260,o),
(319,271,o),
(319,285,cs),
(319,354,o),
(276,434,o),
(175,434,cs),
(129,434,o),
(85,408,o),
(85,363,cs),
(85,337,o),
(106,320,o),
(143,324,c),
(144,333,o),
(163,377,o),
(211,377,cs),
(249,377,o),
(283,350,o),
(280,300,c),
(258,300,ls),
(175,300,o),
(50,261,o),
(50,146,cs),
(50,53,o),
(139,-14,o),
(281,-14,cs)
);
},
{
closed = 1;
nodes = (
(427,417,o),
(485,434,o),
(509,455,c),
(501,476,l),
(480,467,o),
(447,461,o),
(411,461,cs),
(294,461,o),
(248,516,o),
(248,630,c),
(217,614,l),
(215,605,o),
(212,584,o),
(212,565,cs),
(212,469,o),
(265,417,o),
(370,417,cs)
);
}
);
width = 625;
}
);
unicode = 3509;
},
{
glyphname = sinBa;
lastChange = "2024-04-01 07:38:10 +0000";
layers = (
{
layerId = "51BB9282-3B82-4DF1-A67A-294D3E37D73A";
shapes = (
{
closed = 1;
nodes = (
(559,-9,o),
(634,122,o),
(634,261,cs),
(634,462,o),
(517,598,o),
(292,598,cs),
(174,598,o),
(113,562,o),
(76,543,c),
(70,532,o),
(67,513,o),
(67,494,cs),
(67,486,o),
(68,477,o),
(69,470,cs),
(69,468,o),
(141,527,o),
(292,527,cs),
(517,527,o),
(586,427,o),
(586,286,cs),
(586,169,o),
(513,70,o),
(416,70,cs),
(381,70,o),
(343,89,o),
(343,135,cs),
(343,175,o),
(385,199,o),
(422,199,cs),
(428,199,o),
(434,198,o),
(439,197,c),
(448,200,o),
(455,202,o),
(462,208,c),
(458,316,o),
(379,411,o),
(263,411,cs),
(132,411,o),
(52,298,o),
(52,162,cs),
(52,90,o),
(88,-6,o),
(184,-6,cs),
(239,-6,o),
(277,36,o),
(277,94,cs),
(277,144,o),
(249,185,o),
(199,185,cs),
(149,185,o),
(125,145,o),
(125,107,cs),
(125,82,o),
(132,64,o),
(142,48,c),
(177,30,l),
(162,46,o),
(159,57,o),
(159,72,cs),
(159,116,o),
(187,127,o),
(207,127,cs),
(227,127,o),
(247,116,o),
(247,93,cs),
(247,60,o),
(207,49,o),
(185,49,cs),
(142,49,o),
(83,86,o),
(83,173,cs),
(83,271,o),
(165,332,o),
(261,332,cs),
(320,332,o),
(388,315,o),
(422,258,c),
(380,257,o),
(305,213,o),
(305,120,cs),
(305,58,o),
(346,-9,o),
(432,-9,cs)
);
}
);
userData = {
com.typemytype.robofont.layerData = {
"Jan 19 17, 02:25" = {
anchors = (
{
name = rakaransaya;
x = 799;
y = 363;
}
);
components = (
);
contours = (
{
points = (
{
segmentType = curve;
smooth = 1;
x = 55;
y = 180;
},
{
smooth = 0;
x = 55;
y = 186;
},
{
smooth = 0;
x = 55;
y = 193;
},
{
segmentType = curve;
smooth = 1;
x = 55.434;
y = 200;
},
{
smooth = 0;
x = 67;
y = 379;
},
{
smooth = 0;
x = 187;
y = 502;
},
{
segmentType = curve;
smooth = 1;
x = 339;
y = 502;
},
{
smooth = 0;
x = 473;
y = 502;
},
{
smooth = 0;
x = 543;
y = 410;
},
{
segmentType = curve;
smooth = 0;
x = 535.251;
y = 311;
},
{
smooth = 0;
x = 490.094;
y = 308;
},
{
smooth = 0;
x = 433.605;
y = 270.03;
},
{
segmentType = curve;
smooth = 1;
x = 425.014;
y = 192;
},
{
smooth = 0;
x = 425;
y = 188;
},
{
smooth = 0;
x = 424;
y = 184;
},
{
segmentType = curve;
smooth = 1;
x = 424;
y = 181;
},
{
smooth = 0;
x = 424;
y = 135;
},
{
smooth = 0;
x = 459;
y = 104;
},
{
segmentType = curve;
smooth = 1;
x = 534;
y = 104;
},
{
smooth = 0;
x = 674;
y = 104;
},
{
smooth = 0;
x = 738;
y = 265;
},
{
segmentType = curve;
smooth = 1;
x = 738;
y = 384;
},
{
smooth = 0;
x = 738;
y = 581;
},
{
smooth = 0;
x = 599;
y = 688;
},
{
segmentType = curve;
smooth = 1;
x = 369;
y = 688;
},
{
smooth = 0;
x = 243;
y = 688;
},
{
smooth = 0;
x = 155;
y = 626;
},
{
segmentType = curve;
smooth = 1;
x = 154;
y = 627;
},
{
smooth = 0;
x = 151;
y = 629;
},
{
smooth = 0;
x = 149;
y = 635;
},
{
segmentType = curve;
smooth = 1;
x = 149;
y = 643;
},
{
smooth = 0;
x = 149;
y = 665;
},
{
smooth = 0;
x = 160;
y = 704;
},
{
segmentType = curve;
smooth = 0;
x = 174;
y = 726;
},
{
smooth = 0;
x = 218;
y = 754;
},
{
smooth = 0;
x = 289;
y = 778;
},
{
segmentType = curve;
smooth = 1;
x = 381;
y = 778;
},
{
smooth = 0;
x = 610;
y = 778;
},
{
smooth = 0;
x = 810;
y = 625;
},
{
segmentType = curve;
smooth = 1;
x = 797.557;
y = 355;
},
{
smooth = 0;
x = 789;
y = 148;
},
{
smooth = 0;
x = 698;
y = -12;
},
{
segmentType = curve;
smooth = 1;
x = 536;
y = -12;
},
{
smooth = 0;
x = 401;
y = -12;
},
{
smooth = 0;
x = 363;
y = 84;
},
{
segmentType = curve;
smooth = 1;
x = 368.18;
y = 157;
},
{
smooth = 0;
x = 375.955;
y = 267.19;
},
{
smooth = 0;
x = 439.842;
y = 322.286;
},
{
segmentType = curve;
smooth = 0;
x = 497.509;
y = 335;
},
{
smooth = 0;
x = 486;
y = 363;
},
{
smooth = 0;
x = 397;
y = 407;
},
{
segmentType = curve;
smooth = 1;
x = 312;
y = 407;
},
{
smooth = 0;
x = 204;
y = 407;
},
{
smooth = 0;
x = 93;
y = 329;
},
{
segmentType = curve;
smooth = 1;
x = 93;
y = 201;
},
{
smooth = 0;
x = 93;
y = 112;
},
{
smooth = 0;
x = 161;
y = 64;
},
{
segmentType = curve;
smooth = 0;
x = 194.939;
y = 57;
},
{
segmentType = line;
smooth = 0;
x = 168.677;
y = 52;
},
{
smooth = 0;
x = 160;
y = 69;
},
{
smooth = 0;
x = 156;
y = 87;
},
{
segmentType = curve;
smooth = 1;
x = 156;
y = 105;
},
{
smooth = 0;
x = 156;
y = 157;
},
{
smooth = 0;
x = 192;
y = 207;
},
{
segmentType = curve;
smooth = 1;
x = 255.8;
y = 207;
},
{
smooth = 0;
x = 305.829;
y = 206.727;
},
{
smooth = 0;
x = 345.279;
y = 161.003;
},
{
segmentType = curve;
smooth = 1;
x = 340.455;
y = 105;
},
{
smooth = 0;
x = 334.438;
y = 35.152;
},
{
smooth = 0;
x = 291.009;
y = -18;
},
{
segmentType = curve;
smooth = 1;
x = 233;
y = -18;
},
{
smooth = 0;
x = 105;
y = -18;
},
{
smooth = 0;
x = 55;
y = 77;
}
);
},
{
points = (
{
segmentType = curve;
smooth = 1;
x = 195;
y = 101;
},
{
smooth = 0;
x = 195;
y = 78;
},
{
smooth = 0;
x = 206;
y = 59;
},
{
segmentType = curve;
smooth = 1;
x = 237;
y = 59;
},
{
smooth = 0;
x = 270;
y = 59;
},
{
smooth = 0;
x = 288;
y = 95;
},
{
segmentType = curve;
smooth = 1;
x = 288;
y = 125;
},
{
smooth = 0;
x = 288;
y = 153;
},
{
smooth = 0;
x = 268;
y = 164;
},
{
segmentType = curve;
smooth = 1;
x = 245.547;
y = 164;
},
{
smooth = 0;
x = 217;
y = 164;
},
{
smooth = 0;
x = 195;
y = 135;
}
);
}
);
lib = {
};
name = sinBa;
unicodes = (
);
width = 848;
};
};
};
width = 679;
}
);
unicode = 3510;
},
{
glyphname = sinBha;
lastChange = "2024-04-01 07:38:10 +0000";
layers = (
{
layerId = "51BB9282-3B82-4DF1-A67A-294D3E37D73A";
shapes = (
{
closed = 1;
nodes = (
(436,-8,o),
(510,81,o),
(510,172,cs),
(510,263,o),
(449,301,o),
(413,301,c),
(403,253,l),
(423,253,o),
(476,239,o),
(476,185,cs),
(475,130,o),
(413,77,o),
(295,77,cs),
(213,77,o),
(140,114,o),
(140,168,cs),
(140,236,o),
(203,262,o),
(270,262,cs),
(294,262,o),
(318,259,o),
(340,253,c),
(349,264,l),
(353,281,o),
(356,299,o),
(356,319,cs),
(356,385,o),
(325,456,o),
(237,456,cs),
(166,456,o),
(121,415,o),
(121,374,cs),
(121,340,o),
(149,324,o),
(180,323,c),
(200,384,o),
(222,408,o),
(258,408,cs),
(280,408,o),
(305,399,o),
(311,377,cs),
(313,371,o),
(313,365,o),
(313,358,cs),
(313,338,o),
(308,318,o),
(303,309,c),
(196,310,o),
(105,262,o),
(105,158,cs),
(105,64,o),
(184,-8,o),
(310,-8,cs)
);
},
{
closed = 1;
nodes = (
(69,246,o),
(165,295,o),
(286,295,cs),
(296,295,o),
(306,295,o),
(316,294,c),
(329,309,l),
(297,309,ls),
(211,309,o),
(90,306,o),
(35,296,c),
(25,275,o),
(21,253,o),
(20,230,c),
(29,223,l)
);
},
{
closed = 1;
nodes = (
(688,-7,o),
(764,117,o),
(764,248,cs),
(764,371,o),
(682,454,o),
(590,454,cs),
(449,454,o),
(374,333,o),
(369,170,c),
(374,169,o),
(378,169,o),
(383,169,cs),
(390,169,o),
(397,169,o),
(405,170,c),
(403,177,o),
(402,190,o),
(402,197,cs),
(402,305,o),
(463,364,o),
(579,364,cs),
(643,364,o),
(718,322,o),
(718,224,cs),
(718,140,o),
(661,66,o),
(563,66,cs),
(547,66,o),
(525,69,o),
(508,73,c),
(508,72,o),
(498,69,o),
(498,67,cs),
(498,50,o),
(518,7,o),
(537,-10,c)
);
}
);
width = 814;
}
);
metricRight = sinBha;
unicode = 3511;
},
{
glyphname = sinMa;
lastChange = "2024-04-01 07:38:10 +0000";
layers = (
{
layerId = "51BB9282-3B82-4DF1-A67A-294D3E37D73A";
shapes = (
{
closed = 1;
nodes = (
(520,-25,o),
(616,129,o),
(616,286,cs),
(616,488,o),
(487,602,o),
(294,602,cs),
(184,602,o),
(129,574,o),
(97,551,c),
(92,541,o),
(88,518,o),
(88,499,cs),
(88,492,o),
(89,486,o),
(90,481,c),
(164,519,o),
(220,534,o),
(290,534,cs),
(456,534,o),
(573,470,o),
(573,305,cs),
(573,180,o),
(485,61,o),
(309,61,cs),
(188,61,o),
(82,126,o),
(82,227,cs),
(82,302,o),
(130,333,o),
(159,338,c),
(150,366,l),
(150,346,o),
(148,146,o),
(319,146,cs),
(423,146,o),
(475,225,o),
(475,302,cs),
(475,386,o),
(416,455,o),
(347,455,cs),
(273,455,o),
(245,401,o),
(245,357,cs),
(245,308,o),
(273,277,o),
(320,277,cs),
(369,277,o),
(407,311,o),
(407,367,cs),
(407,380,o),
(405,396,o),
(399,413,c),
(385,416,l),
(381,337,o),
(343,325,o),
(319,325,cs),
(300,325,o),
(276,333,o),
(276,357,cs),
(276,382,o),
(304,405,o),
(350,405,cs),
(400,405,o),
(440,372,o),
(440,314,cs),
(440,256,o),
(394,210,o),
(319,210,cs),
(213,210,o),
(181,314,o),
(181,367,cs),
(181,375,o),
(181,383,o),
(183,388,c),
(177,397,o),
(168,405,o),
(161,407,c),
(98,388,o),
(45,316,o),
(45,210,cs),
(45,85,o),
(145,-25,o),
(321,-25,cs)
);
}
);
width = 656;
}
);
unicode = 3512;
},
{
glyphname = sinMba;
lastChange = "2024-04-01 07:38:10 +0000";
layers = (
{
layerId = "51BB9282-3B82-4DF1-A67A-294D3E37D73A";
shapes = (
{
closed = 1;
nodes = (
(614,-16,o),
(666,145,o),
(666,275,cs),
(666,444,o),
(574,616,o),
(334,616,cs),
(244,616,o),
(156,585,o),
(120,568,c),
(114,552,o),
(111,528,o),
(111,511,cs),
(111,502,o),
(112,495,o),
(113,489,c),
(149,506,o),
(228,544,o),
(345,544,cs),
(513,544,o),
(625,454,o),
(625,282,cs),
(625,177,o),
(580,62,o),
(483,62,cs),
(438,62,o),
(421,89,o),
(421,117,cs),
(421,133,o),
(424,149,o),
(427,163,c),
(413,169,o),
(399,170,o),
(383,170,cs),
(359,170,o),
(329,167,o),
(312,156,c),
(313,110,o),
(302,62,o),
(234,62,cs),
(144,62,o),
(85,119,o),
(85,210,cs),
(85,320,o),
(154,342,o),
(194,349,c),
(183,384,l),
(183,381,o),
(187,192,o),
(359,192,cs),
(441,192,o),
(510,247,o),
(510,330,cs),
(510,409,o),
(449,473,o),
(380,473,cs),
(311,473,o),
(277,420,o),
(277,376,cs),
(277,327,o),
(308,295,o),
(355,295,cs),
(404,295,o),
(442,329,o),
(442,385,cs),
(442,398,o),
(440,414,o),
(434,431,c),
(420,434,l),
(416,355,o),
(378,343,o),
(354,343,cs),
(335,343,o),
(311,354,o),
(311,376,cs),
(311,399,o),
(339,423,o),
(385,423,cs),
(435,423,o),
(472,394,o),
(472,347,cs),
(472,277,o),
(422,247,o),
(361,247,cs),
(251,247,o),
(216,340,o),
(216,388,cs),
(216,395,o),
(217,401,o),
(218,406,c),
(212,415,o),
(203,423,o),
(196,425,c),
(133,406,o),
(44,353,o),
(44,197,cs),
(44,75,o),
(114,-13,o),
(229,-13,cs),
(333,-13,o),
(339,103,o),
(340,112,c),
(342,113,o),
(352,117,o),
(368,117,cs),
(371,117,o),
(384,116,o),
(387,113,c),
(384,99,o),
(383,87,o),
(383,71,cs),
(383,33,o),
(407,-16,o),
(484,-16,cs)
);
}
);
width = 710;
}
);
unicode = 3513;
},
{
glyphname = sinYa;
lastChange = "2024-04-01 07:38:10 +0000";
layers = (
{
layerId = "51BB9282-3B82-4DF1-A67A-294D3E37D73A";
shapes = (
{
closed = 1;
nodes = (
(567,-22,o),
(629,58,o),
(630,162,cs),
(630,245,o),
(578,316,o),
(475,316,cs),
(442,316,o),
(415,312,o),
(384,301,c),
(434,278,l),
(425,291,o),
(412,316,o),
(412,348,cs),
(412,393,o),
(451,412,o),
(482,412,cs),
(523,412,o),
(557,392,o),
(557,348,cs),
(557,315,o),
(538,288,o),
(534,282,c),
(555,276,l),
(580,288,o),
(613,319,o),
(613,372,cs),
(613,415,o),
(580,462,o),
(508,462,cs),
(436,462,o),
(367,413,o),
(367,299,cs),
(367,282,o),
(369,265,o),
(372,250,c),
(383,241,l),
(414,253,o),
(446,257,o),
(478,257,cs),
(533,257,o),
(594,228,o),
(594,173,cs),
(594,113,o),
(548,59,o),
(465,59,cs),
(387,59,o),
(346,106,o),
(346,152,cs),
(346,160,o),
(347,168,o),
(348,173,c),
(327,169,l),
(308,97,o),
(262,65,o),
(190,65,cs),
(130,65,o),
(66,97,o),
(66,172,cs),
(66,255,o),
(144,319,o),
(270,316,c),
(281,327,l),
(281,350,o),
(275,376,o),
(265,390,c),
(96,383,o),
(30,279,o),
(30,162,cs),
(30,35,o),
(113,-19,o),
(188,-19,cs),
(296,-19,o),
(329,61,o),
(344,103,c),
(346,105,o),
(321,108,o),
(322,109,c),
(320,101,o),
(326,97,o),
(326,87,cs),
(326,34,o),
(376,-22,o),
(458,-22,cs)
);
}
);
width = 664;
}
);
unicode = 3514;
},
{
glyphname = sinRa;
lastChange = "2024-04-01 07:38:10 +0000";
layers = (
{
layerId = "51BB9282-3B82-4DF1-A67A-294D3E37D73A";
shapes = (
{
closed = 1;
nodes = (
(383,-29,o),
(493,69,o),
(493,226,cs),
(493,344,o),
(426,429,o),
(313,429,cs),
(200,429,o),
(128,353,o),
(109,327,cs),
(85,295,l),
(77,270,o),
(70,262,o),
(72,236,c),
(103,312,o),
(160,374,o),
(264,374,cs),
(375,374,o),
(453,322,o),
(453,230,cs),
(453,160,o),
(380,50,o),
(250,50,cs),
(132,50,o),
(71,117,o),
(71,197,cs),
(71,231,o),
(71,238,o),
(79,257,c),
(79,257,o),
(110,326,o),
(118,334,c),
(168,416,o),
(425,517,o),
(483,593,c),
(482,624,o),
(450,645,o),
(439,646,c),
(320,477,o),
(35,430,o),
(35,189,cs),
(35,93,o),
(95,-29,o),
(260,-29,cs)
);
}
);
width = 528;
}
);
unicode = 3515;
},
{
glyphname = sinLa;
lastChange = "2024-04-01 07:38:10 +0000";
layers = (
{
anchors = (
{
name = Virama;
pos = (581,387);
}
);
layerId = "51BB9282-3B82-4DF1-A67A-294D3E37D73A";
shapes = (
{
closed = 1;
nodes = (
(517,-225,o),
(602,-166,o),
(628,-129,c),
(631,-115,o),
(618,-94,o),
(613,-91,c),
(559,-122,o),
(491,-145,o),
(400,-145,cs),
(255,-145,o),
(90,-90,o),
(90,126,cs),
(90,265,o),
(187,385,o),
(387,385,cs),
(525,385,o),
(595,328,o),
(595,246,cs),
(595,184,o),
(560,119,o),
(480,119,cs),
(433,119,o),
(390,138,o),
(390,185,cs),
(390,226,o),
(424,251,o),
(460,265,c),
(420,255,l),
(497,255,l),
(504,264,o),
(508,280,o),
(505,290,c),
(272,290,l),
(262,280,o),
(259,266,o),
(263,255,c),
(395,255,l),
(396,257,o),
(420,260,o),
(420,262,c),
(359,256,o),
(325,216,o),
(325,168,cs),
(325,117,o),
(369,68,o),
(460,68,cs),
(577,68,o),
(639,163,o),
(639,265,cs),
(639,351,o),
(585,457,o),
(408,457,cs),
(192,457,o),
(45,304,o),
(45,90,cs),
(45,-72,o),
(137,-225,o),
(393,-225,cs)
);
}
);
userData = {
com.typemytype.robofont.layerData = {
"Regular Oct 20 16, 20:13" = {
anchors = (
);
components = (
);
contours = (
{
points = (
{
segmentType = curve;
smooth = 1;
x = 48;
y = 123;
},
{
smooth = 0;
x = 48;
y = 387;
},
{
smooth = 0;
x = 223;
y = 593;
},
{
segmentType = curve;
smooth = 1;
x = 498;
y = 594;
},
{
smooth = 0;
x = 709;
y = 595;
},
{
smooth = 0;
x = 814;
y = 456;
},
{
segmentType = curve;
smooth = 1;
x = 814;
y = 331;
},
{
smooth = 0;
x = 814;
y = 212;
},
{
smooth = 0;
x = 730;
y = 111;
},
{
segmentType = curve;
smooth = 1;
x = 594;
y = 109;
},
{
smooth = 0;
x = 494;
y = 108;
},
{
smooth = 0;
x = 422;
y = 156;
},
{
segmentType = curve;
smooth = 1;
x = 423;
y = 229;
},
{
smooth = 0;
x = 424;
y = 285;
},
{
smooth = 0;
x = 479;
y = 333;
},
{
segmentType = curve;
smooth = 0;
x = 540;
y = 343;
},
{
smooth = 0;
x = 539;
y = 340;
},
{
smooth = 0;
x = 538;
y = 337;
},
{
segmentType = curve;
smooth = 0;
x = 537;
y = 334;
},
{
segmentType = line;
smooth = 0;
x = 296;
y = 334;
},
{
smooth = 0;
x = 298;
y = 349;
},
{
smooth = 0;
x = 293;
y = 360;
},
{
segmentType = curve;
smooth = 0;
x = 301;
y = 379;
},
{
segmentType = line;
smooth = 0;
x = 636;
y = 379;
},
{
smooth = 0;
x = 636;
y = 367;
},
{
smooth = 0;
x = 636;
y = 356;
},
{
segmentType = curve;
smooth = 0;
x = 629;
y = 334;
},
{
smooth = 0;
x = 566;
y = 334;
},
{
smooth = 0;
x = 501;
y = 292;
},
{
segmentType = curve;
smooth = 1;
x = 501;
y = 248;
},
{
smooth = 0;
x = 501;
y = 187;
},
{
smooth = 0;
x = 553;
y = 165;
},
{
segmentType = curve;
smooth = 1;
x = 610;
y = 165;
},
{
smooth = 0;
x = 696;
y = 165;
},
{
smooth = 0;
x = 739;
y = 229;
},
{
segmentType = curve;
smooth = 1;
x = 739;
y = 297;
},
{
smooth = 0;
x = 739;
y = 416;
},
{
smooth = 0;
x = 634;
y = 515;
},
{
segmentType = curve;
smooth = 1;
x = 460;
y = 515;
},
{
smooth = 0;
x = 283;
y = 515;
},
{
smooth = 0;
x = 123;
y = 389;
},
{
segmentType = curve;
smooth = 1;
x = 123;
y = 176;
},
{
smooth = 0;
x = 123;
y = -48;
},
{
smooth = 0;
x = 283;
y = -168;
},
{
segmentType = curve;
smooth = 1;
x = 483;
y = -168;
},
{
smooth = 0;
x = 591;
y = -168;
},
{
smooth = 0;
x = 690;
y = -140;
},
{
segmentType = curve;
smooth = 0;
x = 760;
y = -99;
},
{
smooth = 0;
x = 763;
y = -101;
},
{
smooth = 0;
x = 765;
y = -112;
},
{
segmentType = curve;
smooth = 1;
x = 765;
y = -125;
},
{
smooth = 0;
x = 765;
y = -138;
},
{
smooth = 0;
x = 765;
y = -147;
},
{
segmentType = curve;
smooth = 0;
x = 760;
y = -158;
},
{
smooth = 0;
x = 696;
y = -226;
},
{
smooth = 0;
x = 596;
y = -263;
},
{
segmentType = curve;
smooth = 1;
x = 464;
y = -263;
},
{
smooth = 0;
x = 194;
y = -263;
},
{
smooth = 0;
x = 48;
y = -74;
}
);
}
);
lib = {
};
name = sinLa;
unicodes = (
);
width = 852;
};
};
};
width = 684;
}
);
unicode = 3517;
},
{
glyphname = sinVa;
lastChange = "2024-04-01 07:38:10 +0000";
layers = (
{
layerId = "51BB9282-3B82-4DF1-A67A-294D3E37D73A";
shapes = (
{
closed = 1;
nodes = (
(477,-21,o),
(559,127,o),
(559,296,cs),
(559,495,o),
(448,604,o),
(245,604,cs),
(166,604,o),
(103,580,o),
(64,560,c),
(59,549,o),
(57,534,o),
(57,521,cs),
(57,509,o),
(59,498,o),
(60,491,c),
(85,505,o),
(144,533,o),
(242,533,cs),
(417,533,o),
(514,455,o),
(514,308,cs),
(514,178,o),
(433,62,o),
(265,62,cs),
(167,62,o),
(82,95,o),
(82,159,cs),
(82,229,o),
(161,255,o),
(239,255,cs),
(257,255,o),
(279,253,o),
(298,250,c),
(313,262,l),
(315,270,o),
(315,278,o),
(315,291,cs),
(315,362,o),
(273,438,o),
(180,438,cs),
(128,438,o),
(79,415,o),
(79,372,cs),
(79,346,o),
(96,327,o),
(128,327,cs),
(132,327,o),
(136,327,o),
(140,328,c),
(140,336,o),
(154,387,o),
(204,387,cs),
(241,387,o),
(268,369,o),
(268,311,c),
(262,312,o),
(257,312,o),
(250,312,cs),
(174,312,o),
(44,287,o),
(44,143,cs),
(44,46,o),
(140,-21,o),
(266,-21,cs)
);
}
);
width = 604;
}
);
unicode = 3520;
},
{
glyphname = sinSha;
lastChange = "2024-04-01 07:38:10 +0000";
layers = (
{
anchors = (
{
name = rakaransa;
pos = (724,228);
}
);
layerId = "51BB9282-3B82-4DF1-A67A-294D3E37D73A";
shapes = (
{
closed = 1;
nodes = (
(643,-5,o),
(728,116,o),
(728,253,cs),
(728,369,o),
(657,454,o),
(536,454,cs),
(395,454,o),
(293,341,o),
(280,162,c),
(285,161,o),
(290,161,o),
(295,161,cs),
(302,161,o),
(308,161,o),
(316,162,c),
(309,282,o),
(381,373,o),
(512,373,cs),
(606,373,o),
(681,305,o),
(681,215,cs),
(681,203,o),
(680,190,o),
(677,177,c),
(665,186,o),
(642,198,o),
(601,198,cs),
(541,198,o),
(468,148,o),
(468,60,cs),
(468,39,o),
(475,9,o),
(495,-8,c)
);
},
{
closed = 1;
nodes = (
(367,-9,o),
(444,79,o),
(444,171,cs),
(444,237,o),
(398,300,o),
(333,299,c),
(324,249,l),
(354,248,o),
(405,230,o),
(405,180,cs),
(405,113,o),
(315,79,o),
(243,79,cs),
(150,79,o),
(88,135,o),
(88,211,cs),
(88,297,o),
(165,363,o),
(264,363,c),
(269,370,o),
(274,408,o),
(274,432,cs),
(274,438,o),
(274,444,o),
(273,447,c),
(177,446,o),
(49,357,o),
(49,204,cs),
(49,81,o),
(129,-9,o),
(245,-9,cs)
);
},
{
closed = 1;
nodes = (
(523,65,o),
(511,66,o),
(498,68,c),
(511,121,o),
(552,135,o),
(589,135,cs),
(617,135,o),
(637,126,o),
(649,120,c),
(625,88,o),
(588,67,o),
(544,66,cs)
);
}
);
width = 773;
}
);
metricRight = sinGa;
unicode = 3521;
},
{
glyphname = sinSsa;
lastChange = "2024-04-01 07:38:10 +0000";
layers = (
{
anchors = (
{
name = Virama;
pos = (538,410);
},
{
name = rakaransaya;
pos = (581,193);
}
);
layerId = "51BB9282-3B82-4DF1-A67A-294D3E37D73A";
shapes = (
{
closed = 1;
nodes = (
(464,-20,o),
(581,70,o),
(581,193,cs),
(581,275,o),
(520,320,o),
(439,320,cs),
(400,320,o),
(373,315,o),
(350,304,c),
(395,292,l),
(387,303,o),
(375,311,o),
(375,337,cs),
(375,383,o),
(413,409,o),
(454,409,cs),
(491,409,o),
(524,387,o),
(524,350,cs),
(524,314,o),
(505,298,o),
(501,291,c),
(533,274,l),
(539,280,o),
(574,319,o),
(574,372,cs),
(574,410,o),
(545,454,o),
(473,454,cs),
(381,454,o),
(333,381,o),
(333,288,cs),
(333,278,o),
(334,267,o),
(335,256,c),
(345,248,l),
(377,259,o),
(411,272,o),
(447,272,cs),
(501,272,o),
(545,251,o),
(545,199,cs),
(545,127,o),
(450,48,o),
(316,48,cs),
(160,48,o),
(78,116,o),
(78,179,cs),
(78,231,o),
(137,260,o),
(223,260,cs),
(242,260,o),
(263,259,o),
(285,256,c),
(296,267,l),
(300,284,o),
(302,304,o),
(302,324,cs),
(302,387,o),
(277,454,o),
(184,454,cs),
(123,454,o),
(85,420,o),
(85,382,cs),
(85,345,o),
(112,332,o),
(138,330,c),
(146,361,o),
(176,403,o),
(218,403,cs),
(252,403,o),
(267,379,o),
(267,348,cs),
(267,315,o),
(246,295,o),
(236,286,c),
(273,316,l),
(262,317,o),
(250,318,o),
(239,318,cs),
(143,318,o),
(46,261,o),
(46,169,cs),
(46,78,o),
(117,-20,o),
(321,-20,cs)
);
},
{
closed = 1;
nodes = (
(388,88,o),
(434,134,o),
(434,173,cs),
(434,212,o),
(387,211,o),
(376,212,c),
(357,204,l),
(386,206,o),
(402,192,o),
(402,178,cs),
(402,153,o),
(359,129,o),
(302,129,cs),
(252,129,o),
(199,139,o),
(199,164,cs),
(199,183,o),
(221,188,o),
(270,188,cs),
(281,188,o),
(293,187,o),
(306,187,cs),
(420,184,o),
(496,218,o),
(540,283,c),
(511,303,l),
(484,269,o),
(425,225,o),
(313,219,cs),
(253,216,o),
(169,224,o),
(169,161,cs),
(169,111,o),
(244,88,o),
(305,88,cs)
);
}
);
width = 616;
}
);
unicode = 3522;
},
{
glyphname = sinSa;
lastChange = "2024-04-01 07:38:10 +0000";
layers = (
{
anchors = (
{
name = rakaransaya;
pos = (644,162);
}
);
layerId = "51BB9282-3B82-4DF1-A67A-294D3E37D73A";
shapes = (
{
closed = 1;
nodes = (
(590,-12,o),
(653,75,o),
(653,168,cs),
(653,263,o),
(586,326,o),
(486,326,cs),
(452,326,o),
(424,316,o),
(401,305,c),
(458,282,l),
(451,290,o),
(432,308,o),
(432,347,cs),
(432,380,o),
(454,427,o),
(506,427,cs),
(544,427,o),
(577,405,o),
(577,363,cs),
(577,334,o),
(556,298,o),
(552,292,c),
(556,294,o),
(564,285,o),
(568,285,cs),
(569,285,o),
(570,286,o),
(570,286,c),
(599,300,o),
(635,335,o),
(635,376,cs),
(635,429,o),
(592,472,o),
(523,472,cs),
(433,472,o),
(384,401,o),
(384,299,cs),
(384,287,o),
(385,275,o),
(386,262,c),
(397,253,l),
(429,265,o),
(461,273,o),
(493,273,cs),
(549,273,o),
(618,247,o),
(618,179,cs),
(618,133,o),
(589,69,o),
(493,69,cs),
(419,69,o),
(367,125,o),
(367,179,cs),
(367,183,o),
(367,187,o),
(368,191,c),
(362,190,o),
(353,188,o),
(348,186,c),
(332,111,o),
(296,70,o),
(224,70,cs),
(151,70,o),
(109,103,o),
(109,151,cs),
(109,200,o),
(152,259,o),
(260,259,cs),
(279,259,o),
(300,257,o),
(323,253,c),
(335,264,l),
(340,282,o),
(343,302,o),
(343,322,cs),
(343,395,o),
(308,473,o),
(219,473,cs),
(155,473,o),
(110,433,o),
(110,392,cs),
(110,360,o),
(141,343,o),
(164,342,c),
(172,380,o),
(195,419,o),
(238,419,cs),
(275,419,o),
(302,396,o),
(302,357,cs),
(302,334,o),
(297,320,o),
(291,310,c),
(206,301,l),
(133,274,o),
(70,230,o),
(70,139,cs),
(70,64,o),
(116,-9,o),
(220,-9,cs),
(311,-9,o),
(356,71,o),
(360,113,c),
(358,115,o),
(357,124,o),
(357,127,cs),
(357,129,l),
(354,120,o),
(352,110,o),
(352,100,cs),
(352,45,o),
(400,-12,o),
(486,-12,cs)
);
},
{
closed = 1;
nodes = (
(56,252,o),
(152,301,o),
(273,301,cs),
(283,301,o),
(293,301,o),
(303,300,c),
(316,315,l),
(284,315,ls),
(198,315,o),
(76,312,o),
(21,302,c),
(12,280,o),
(9,258,o),
(7,236,c),
(16,229,l)
);
}
);
userData = {
com.typemytype.robofont.layerData = {
"Jan 18 17, 22:35" = {
anchors = (
{
name = rakaransaya;
x = 856;
y = 210;
}
);
components = (
);
contours = (
{
points = (
{
segmentType = line;
smooth = 0;
x = 39.292;
y = 294;
},
{
segmentType = line;
smooth = 0;
x = 59.201;
y = 379;
},
{
smooth = 0;
x = 138.669;
y = 393;
},
{
smooth = 0;
x = 331.088;
y = 397;
},
{
segmentType = curve;
smooth = 0;
x = 440.983;
y = 396;
},
{
segmentType = line;
smooth = 0;
x = 422.991;
y = 377;
},
{
smooth = 0;
x = 248.145;
y = 388;
},
{
smooth = 0;
x = 105.702;
y = 317;
},
{
segmentType = curve;
smooth = 0;
x = 51.243;
y = 284;
}
);
},
{
points = (
{
segmentType = curve;
smooth = 0;
x = 753.314;
y = 366;
},
{
smooth = 0;
x = 758.753;
y = 374.188;
},
{
smooth = 0;
x = 784.47;
y = 417.842;
},
{
segmentType = curve;
smooth = 1;
x = 788.295;
y = 452;
},
{
smooth = 0;
x = 794.396;
y = 506.501;
},
{
smooth = 0;
x = 745;
y = 541;
},
{
segmentType = curve;
smooth = 1;
x = 693;
y = 541;
},
{
smooth = 0;
x = 644;
y = 541;
},
{
smooth = 0;
x = 596;
y = 496;
},
{
segmentType = curve;
smooth = 1;
x = 596;
y = 450;
},
{
smooth = 0;
x = 596;
y = 405;
},
{
smooth = 0;
x = 600.28;
y = 391.787;
},
{
segmentType = curve;
smooth = 0;
x = 611.781;
y = 376;
},
{
segmentType = line;
smooth = 0;
x = 550.516;
y = 383;
},
{
smooth = 0;
x = 593.088;
y = 398;
},
{
smooth = 0;
x = 608;
y = 411;
},
{
segmentType = curve;
smooth = 1;
x = 666;
y = 410;
},
{
smooth = 0;
x = 796;
y = 409;
},
{
smooth = 0;
x = 858;
y = 317;
},
{
segmentType = curve;
smooth = 1;
x = 858;
y = 211;
},
{
smooth = 0;
x = 858;
y = 67;
},
{
smooth = 0;
x = 747.134;
y = -28;
},
{
segmentType = curve;
smooth = 1;
x = 634;
y = -28;
},
{
smooth = 0;
x = 492.535;
y = -28;
},
{
smooth = 0;
x = 429.622;
y = 60.728;
},
{
segmentType = curve;
smooth = 0;
x = 456.36;
y = 142;
},
{
smooth = 0;
x = 455.209;
y = 140.444;
},
{
smooth = 0;
x = 482.123;
y = 125.542;
},
{
segmentType = curve;
smooth = 0;
x = 480.949;
y = 124;
},
{
smooth = 0;
x = 461.491;
y = 73.791;
},
{
smooth = 0;
x = 400.535;
y = -25.155;
},
{
segmentType = curve;
smooth = 1;
x = 276.013;
y = -26;
},
{
smooth = 0;
x = 136.592;
y = -26.917;
},
{
smooth = 0;
x = 95;
y = 71;
},
{
segmentType = curve;
smooth = 1;
x = 96.351;
y = 157;
},
{
smooth = 0;
x = 98;
y = 274;
},
{
smooth = 0;
x = 211.41;
y = 356.413;
},
{
segmentType = curve;
smooth = 0;
x = 302.579;
y = 391;
},
{
smooth = 0;
x = 305.463;
y = 392.048;
},
{
smooth = 0;
x = 302.726;
y = 387.048;
},
{
segmentType = curve;
smooth = 0;
x = 305.62;
y = 388;
},
{
segmentType = line;
smooth = 0;
x = 408.354;
y = 390;
},
{
smooth = 0;
x = 442.253;
y = 435.824;
},
{
smooth = 0;
x = 401.579;
y = 529.982;
},
{
segmentType = curve;
smooth = 1;
x = 348.766;
y = 531;
},
{
smooth = 0;
x = 296.857;
y = 532;
},
{
smooth = 0;
x = 264.263;
y = 480;
},
{
segmentType = curve;
smooth = 0;
x = 253.128;
y = 431;
},
{
smooth = 0;
x = 220.337;
y = 433;
},
{
smooth = 0;
x = 177.073;
y = 456.894;
},
{
segmentType = curve;
smooth = 1;
x = 182.884;
y = 505;
},
{
smooth = 0;
x = 189.043;
y = 556.004;
},
{
smooth = 0;
x = 239.946;
y = 601;
},
{
segmentType = curve;
smooth = 1;
x = 318.946;
y = 601;
},
{
smooth = 0;
x = 458.609;
y = 601;
},
{
smooth = 0;
x = 496.07;
y = 432.586;
},
{
segmentType = curve;
smooth = 0;
x = 464.065;
y = 330;
},
{
segmentType = line;
smooth = 0;
x = 448.598;
y = 316;
},
{
smooth = 0;
x = 248.715;
y = 349.568;
},
{
smooth = 0;
x = 136;
y = 257;
},
{
segmentType = curve;
smooth = 1;
x = 138;
y = 183;
},
{
smooth = 0;
x = 140;
y = 114;
},
{
smooth = 0;
x = 202;
y = 76;
},
{
segmentType = curve;
smooth = 1;
x = 299;
y = 76;
},
{
smooth = 0;
x = 387;
y = 76;
},
{
smooth = 0;
x = 442.709;
y = 115.466;
},
{
segmentType = curve;
smooth = 0;
x = 471.906;
y = 209;
},
{
smooth = 0;
x = 479.448;
y = 210.986;
},
{
smooth = 0;
x = 487.079;
y = 213.831;
},
{
segmentType = curve;
smooth = 0;
x = 494.535;
y = 215;
},
{
smooth = 0;
x = 477.299;
y = 137.996;
},
{
smooth = 0;
x = 525.611;
y = 75.999;
},
{
segmentType = curve;
smooth = 1;
x = 650;
y = 76;
},
{
smooth = 0;
x = 742.789;
y = 76.001;
},
{
smooth = 0;
x = 814;
y = 148;
},
{
segmentType = curve;
smooth = 1;
x = 814.897;
y = 221;
},
{
smooth = 0;
x = 816;
y = 309;
},
{
smooth = 0;
x = 748.461;
y = 339.452;
},
{
segmentType = curve;
smooth = 1;
x = 670.283;
y = 340.62;
},
{
smooth = 0;
x = 628.85;
y = 341.239;
},
{
smooth = 0;
x = 586.702;
y = 331.12;
},
{
segmentType = curve;
smooth = 0;
x = 544.689;
y = 315.877;
},
{
segmentType = line;
smooth = 0;
x = 530.855;
y = 327;
},
{
smooth = 0;
x = 532;
y = 486;
},
{
smooth = 0;
x = 600;
y = 600;
},
{
segmentType = curve;
smooth = 1;
x = 731;
y = 600;
},
{
smooth = 0;
x = 831;
y = 600;
},
{
smooth = 0;
x = 866;
y = 546;
},
{
segmentType = curve;
smooth = 1;
x = 865.787;
y = 485;
},
{
smooth = 0;
x = 866;
y = 413;
},
{
smooth = 0;
x = 784.976;
y = 383.074;
}
);
}
);
lib = {
};
name = sinSa;
unicodes = (
);
width = 905;
};
"Jan 18 17, 22:42" = {
anchors = (
{
name = rakaransaya;
x = 928;
y = 210;
}
);
components = (
);
contours = (
{
points = (
{
segmentType = line;
smooth = 0;
x = 442;
y = 332;
},
{
smooth = 0;
x = 413;
y = 336;
},
{
smooth = 0;
x = 386;
y = 338;
},
{
segmentType = curve;
smooth = 1;
x = 361;
y = 338;
},
{
smooth = 0;
x = 250;
y = 338;
},
{
smooth = 0;
x = 173;
y = 300;
},
{
segmentType = curve;
smooth = 1;
x = 173;
y = 233;
},
{
smooth = 0;
x = 173;
y = 150;
},
{
smooth = 0;
x = 280;
y = 82;
},
{
segmentType = curve;
smooth = 1;
x = 483;
y = 82;
},
{
smooth = 0;
x = 656;
y = 82;
},
{
smooth = 0;
x = 780;
y = 165;
},
{
segmentType = curve;
smooth = 1;
x = 780;
y = 258;
},
{
smooth = 0;
x = 780;
y = 326;
},
{
smooth = 0;
x = 722;
y = 353;
},
{
segmentType = curve;
smooth = 1;
x = 652;
y = 353;
},
{
smooth = 0;
x = 607;
y = 353;
},
{
smooth = 0;
x = 561;
y = 337;
},
{
segmentType = curve;
smooth = 0;
x = 520;
y = 322;
},
{
segmentType = line;
smooth = 0;
x = 507;
y = 333;
},
{
smooth = 0;
x = 491;
y = 473;
},
{
smooth = 0;
x = 557;
y = 590;
},
{
segmentType = curve;
smooth = 1;
x = 696;
y = 590;
},
{
smooth = 0;
x = 786;
y = 590;
},
{
smooth = 0;
x = 818;
y = 531;
},
{
segmentType = curve;
smooth = 1;
x = 818;
y = 484;
},
{
smooth = 0;
x = 818;
y = 414;
},
{
smooth = 0;
x = 770;
y = 373;
},
{
segmentType = curve;
smooth = 0;
x = 736;
y = 360;
},
{
segmentType = line;
smooth = 0;
x = 719;
y = 378;
},
{
smooth = 0;
x = 725;
y = 387;
},
{
smooth = 0;
x = 752;
y = 408;
},
{
segmentType = curve;
smooth = 1;
x = 752;
y = 455;
},
{
smooth = 0;
x = 752;
y = 503;
},
{
smooth = 0;
x = 710;
y = 531;
},
{
segmentType = curve;
smooth = 1;
x = 661;
y = 531;
},
{
smooth = 0;
x = 608;
y = 531;
},
{
smooth = 0;
x = 561;
y = 498;
},
{
segmentType = curve;
smooth = 1;
x = 561;
y = 439;
},
{
smooth = 0;
x = 561;
y = 405;
},
{
smooth = 0;
x = 575;
y = 393;
},
{
segmentType = curve;
smooth = 0;
x = 585;
y = 379;
},
{
segmentType = line;
smooth = 0;
x = 527;
y = 395;
},
{
smooth = 0;
x = 556;
y = 409;
},
{
smooth = 0;
x = 591;
y = 416;
},
{
segmentType = curve;
smooth = 1;
x = 642;
y = 416;
},
{
smooth = 0;
x = 747;
y = 416;
},
{
smooth = 0;
x = 826;
y = 357;
},
{
segmentType = curve;
smooth = 1;
x = 826;
y = 251;
},
{
smooth = 0;
x = 826;
y = 91;
},
{
smooth = 0;
x = 674;
y = -26;
},
{
segmentType = curve;
smooth = 1;
x = 489;
y = -26;
},
{
smooth = 0;
x = 224;
y = -26;
},
{
smooth = 0;
x = 132;
y = 101;
},
{
segmentType = curve;
smooth = 1;
x = 132;
y = 220;
},
{
smooth = 0;
x = 132;
y = 339;
},
{
smooth = 0;
x = 258;
y = 413;
},
{
segmentType = curve;
smooth = 1;
x = 382;
y = 413;
},
{
smooth = 0;
x = 397;
y = 413;
},
{
smooth = 0;
x = 412;
y = 412;
},
{
segmentType = curve;
smooth = 0;
x = 427;
y = 410;
},
{
segmentType = line;
smooth = 0;
x = 379;
y = 372;
},
{
smooth = 0;
x = 392;
y = 383;
},
{
smooth = 0;
x = 419;
y = 409;
},
{
segmentType = curve;
smooth = 1;
x = 419;
y = 452;
},
{
smooth = 0;
x = 419;
y = 492;
},
{
smooth = 0;
x = 399;
y = 524;
},
{
segmentType = curve;
smooth = 1;
x = 355;
y = 524;
},
{
smooth = 0;
x = 300;
y = 524;
},
{
smooth = 0;
x = 261;
y = 469;
},
{
segmentType = curve;
smooth = 0;
x = 251;
y = 429;
},
{
smooth = 0;
x = 218;
y = 431;
},
{
smooth = 0;
x = 182;
y = 448;
},
{
segmentType = curve;
smooth = 1;
x = 182;
y = 496;
},
{
smooth = 0;
x = 182;
y = 545;
},
{
smooth = 0;
x = 232;
y = 589;
},
{
segmentType = curve;
smooth = 1;
x = 311;
y = 589;
},
{
smooth = 0;
x = 432;
y = 589;
},
{
smooth = 0;
x = 464;
y = 502;
},
{
segmentType = curve;
smooth = 1;
x = 464;
y = 421;
},
{
smooth = 0;
x = 464;
y = 395;
},
{
smooth = 0;
x = 461;
y = 369;
},
{
segmentType = curve;
smooth = 0;
x = 456;
y = 347;
}
);
}
);
lib = {
};
name = sinSa;
unicodes = (
);
width = 905;
};
"Regular Nov 5 16, 14:24" = {
anchors = (
);
components = (
);
contours = (
{
points = (
{
segmentType = line;
smooth = 0;
x = 39.292;
y = 294;
},
{
segmentType = line;
smooth = 0;
x = 59.201;
y = 379;
},
{
smooth = 0;
x = 138.669;
y = 393;
},
{
smooth = 0;
x = 331.088;
y = 397;
},
{
segmentType = curve;
smooth = 0;
x = 440.983;
y = 396;
},
{
segmentType = line;
smooth = 0;
x = 422.991;
y = 377;
},
{
smooth = 0;
x = 248.145;
y = 388;
},
{
smooth = 0;
x = 105.702;
y = 317;
},
{
segmentType = curve;
smooth = 0;
x = 51.243;
y = 284;
}
);
},
{
points = (
{
segmentType = curve;
smooth = 0;
x = 753.314;
y = 366;
},
{
smooth = 0;
x = 755;
y = 368;
},
{
smooth = 0;
x = 736;
y = 369;
},
{
segmentType = curve;
smooth = 0;
x = 743;
y = 376;
},
{
smooth = 0;
x = 759;
y = 394;
},
{
smooth = 0;
x = 808;
y = 406;
},
{
segmentType = curve;
smooth = 1;
x = 808;
y = 452;
},
{
smooth = 0;
x = 808;
y = 508;
},
{
smooth = 0;
x = 765.368;
y = 541;
},
{
segmentType = curve;
smooth = 1;
x = 712.657;
y = 541;
},
{
smooth = 0;
x = 664.271;
y = 541;
},
{
smooth = 0;
x = 596;
y = 506;
},
{
segmentType = curve;
smooth = 1;
x = 597;
y = 445;
},
{
smooth = 0;
x = 597;
y = 414;
},
{
smooth = 0;
x = 620;
y = 382;
},
{
segmentType = curve;
smooth = 0;
x = 622;
y = 376;
},
{
segmentType = line;
smooth = 0;
x = 550.516;
y = 383;
},
{
smooth = 0;
x = 593.088;
y = 398;
},
{
smooth = 0;
x = 618.447;
y = 410.522;
},
{
segmentType = curve;
smooth = 1;
x = 676.346;
y = 410;
},
{
smooth = 0;
x = 806.22;
y = 408.829;
},
{
smooth = 0;
x = 871.788;
y = 316.06;
},
{
segmentType = curve;
smooth = 1;
x = 857.915;
y = 195;
},
{
smooth = 0;
x = 842.189;
y = 67.135;
},
{
smooth = 0;
x = 747.134;
y = -28;
},
{
segmentType = curve;
smooth = 1;
x = 612.064;
y = -28;
},
{
smooth = 0;
x = 492.535;
y = -28;
},
{
smooth = 0;
x = 429.622;
y = 60.728;
},
{
segmentType = curve;
smooth = 0;
x = 456.36;
y = 142;
},
{
smooth = 0;
x = 455.209;
y = 140.444;
},
{
smooth = 0;
x = 482.123;
y = 125.542;
},
{
segmentType = curve;
smooth = 0;
x = 480.949;
y = 124;
},
{
smooth = 0;
x = 461.491;
y = 73.791;
},
{
smooth = 0;
x = 400.535;
y = -25.155;
},
{
segmentType = curve;
smooth = 1;
x = 276.013;
y = -26;
},
{
smooth = 0;
x = 136.592;
y = -26.917;
},
{
smooth = 0;
x = 86.903;
y = 71.679;
},
{
segmentType = curve;
smooth = 1;
x = 96.351;
y = 157;
},
{
smooth = 0;
x = 109.061;
y = 273.714;
},
{
smooth = 0;
x = 211;
y = 346;
},
{
segmentType = curve;
smooth = 0;
x = 303;
y = 381;
},
{
smooth = 0;
x = 305;
y = 382;
},
{
smooth = 0;
x = 303;
y = 377;
},
{
segmentType = curve;
smooth = 0;
x = 306;
y = 378;
},
{
segmentType = line;
smooth = 0;
x = 408.354;
y = 390;
},
{
smooth = 0;
x = 417;
y = 402;
},
{
smooth = 0;
x = 432;
y = 415;
},
{
segmentType = curve;
smooth = 1;
x = 432;
y = 452;
},
{
smooth = 0;
x = 432;
y = 498;
},
{
smooth = 0;
x = 396;
y = 530;
},
{
segmentType = curve;
smooth = 1;
x = 348.766;
y = 531;
},
{
smooth = 0;
x = 287;
y = 532;
},
{
smooth = 0;
x = 264.263;
y = 480;
},
{
segmentType = curve;
smooth = 0;
x = 253.128;
y = 431;
},
{
smooth = 0;
x = 220.337;
y = 433;
},
{
smooth = 0;
x = 177.073;
y = 456.894;
},
{
segmentType = curve;
smooth = 1;
x = 182.884;
y = 505;
},
{
smooth = 0;
x = 189.043;
y = 556.004;
},
{
smooth = 0;
x = 239.946;
y = 601;
},
{
segmentType = curve;
smooth = 1;
x = 318.946;
y = 601;
},
{
smooth = 0;
x = 458.609;
y = 601;
},
{
smooth = 0;
x = 496.07;
y = 432.586;
},
{
segmentType = curve;
smooth = 0;
x = 464.065;
y = 330;
},
{
segmentType = line;
smooth = 0;
x = 448.598;
y = 316;
},
{
smooth = 0;
x = 248.715;
y = 349.568;
},
{
smooth = 0;
x = 154.553;
y = 256.873;
},
{
segmentType = curve;
smooth = 1;
x = 146.076;
y = 183;
},
{
smooth = 0;
x = 138.061;
y = 114.516;
},
{
smooth = 0;
x = 202.441;
y = 78.167;
},
{
segmentType = curve;
smooth = 1;
x = 298.647;
y = 85;
},
{
smooth = 0;
x = 369.578;
y = 90.038;
},
{
smooth = 0;
x = 442.709;
y = 115.466;
},
{
segmentType = curve;
smooth = 0;
x = 471.906;
y = 209;
},
{
smooth = 0;
x = 479.448;
y = 210.986;
},
{
smooth = 0;
x = 487.079;
y = 213.831;
},
{
segmentType = curve;
smooth = 0;
x = 494.535;
y = 215;
},
{
smooth = 0;
x = 477.299;
y = 137.996;
},
{
smooth = 0;
x = 525.611;
y = 75.999;
},
{
segmentType = curve;
smooth = 1;
x = 622.967;
y = 76;
},
{
smooth = 0;
x = 742.789;
y = 76.001;
},
{
smooth = 0;
x = 810.231;
y = 147.703;
},
{
segmentType = curve;
smooth = 1;
x = 814.897;
y = 221;
},
{
smooth = 0;
x = 820.531;
y = 309.485;
},
{
smooth = 0;
x = 748.461;
y = 339.452;
},
{
segmentType = curve;
smooth = 1;
x = 670.283;
y = 340.62;
},
{
smooth = 0;
x = 628.85;
y = 341.239;
},
{
smooth = 0;
x = 586.702;
y = 331.12;
},
{
segmentType = curve;
smooth = 0;
x = 544.689;
y = 315.877;
},
{
segmentType = line;
smooth = 0;
x = 530.855;
y = 327;
},
{
smooth = 0;
x = 522.415;
y = 456.36;
},
{
smooth = 0;
x = 611.841;
y = 600;
},
{
segmentType = curve;
smooth = 1;
x = 742.841;
y = 600;
},
{
smooth = 0;
x = 832.841;
y = 600;
},
{
smooth = 0;
x = 870.756;
y = 538.007;
},
{
segmentType = curve;
smooth = 1;
x = 865.787;
y = 485;
},
{
smooth = 0;
x = 859;
y = 412;
},
{
smooth = 0;
x = 784.976;
y = 383.074;
}
);
}
);
lib = {
};
name = sinSa;
unicodes = (
);
width = 905;
};
};
};
width = 697;
}
);
unicode = 3523;
},
{
glyphname = sinHa;
lastChange = "2024-04-01 07:38:10 +0000";
layers = (
{
anchors = (
{
name = Virama;
pos = (623,413);
}
);
layerId = "51BB9282-3B82-4DF1-A67A-294D3E37D73A";
shapes = (
{
closed = 1;
nodes = (
(658,-5,o),
(721,96,o),
(721,243,cs),
(721,370,o),
(651,454,o),
(529,454,cs),
(406,454,o),
(316,344,o),
(305,170,c),
(310,169,o),
(319,169,o),
(323,169,cs),
(330,169,o),
(334,169,o),
(341,170,c),
(335,286,o),
(390,373,o),
(502,373,cs),
(601,373,o),
(676,306,o),
(676,223,cs),
(676,139,o),
(624,79,o),
(535,75,cs),
(503,74,o),
(489,75,o),
(464,79,c),
(455,73,l),
(454,55,o),
(461,9,o),
(479,-8,c)
);
},
{
closed = 1;
nodes = (
(338,-8,o),
(434,63,o),
(434,166,cs),
(434,245,o),
(380,276,o),
(340,275,c),
(332,227,l),
(347,226,o),
(405,211,o),
(405,166,cs),
(405,104,o),
(315,78,o),
(232,78,cs),
(151,78,o),
(68,104,o),
(68,166,cs),
(68,227,o),
(128,263,o),
(212,263,cs),
(230,263,o),
(250,260,o),
(271,257,c),
(281,269,l),
(283,282,o),
(285,297,o),
(285,313,cs),
(285,379,o),
(259,455,o),
(160,455,cs),
(97,455,o),
(64,417,o),
(64,380,cs),
(64,347,o),
(95,333,o),
(119,332,c),
(126,363,o),
(154,405,o),
(196,405,cs),
(228,405,o),
(244,384,o),
(244,350,cs),
(244,315,o),
(227,297,o),
(215,279,c),
(248,317,l),
(236,320,o),
(225,320,o),
(213,320,cs),
(114,320,o),
(31,255,o),
(31,152,cs),
(31,52,o),
(114,-8,o),
(225,-8,cs)
);
}
);
width = 751;
}
);
unicode = 3524;
},
{
glyphname = sinLla;
lastChange = "2024-04-01 07:38:10 +0000";
layers = (
{
layerId = "51BB9282-3B82-4DF1-A67A-294D3E37D73A";
shapes = (
{
closed = 1;
nodes = (
(517,-220,o),
(599,-160,o),
(634,-128,c),
(635,-116,o),
(627,-93,o),
(617,-83,c),
(581,-110,o),
(491,-143,o),
(396,-143,cs),
(175,-143,o),
(82,-39,o),
(82,79,cs),
(82,203,o),
(198,260,o),
(345,260,cs),
(462,260,o),
(538,256,o),
(571,245,c),
(589,263,l),
(591,380,o),
(560,464,o),
(476,464,cs),
(408,464,o),
(385,410,o),
(385,380,c),
(388,394,l),
(388,403,o),
(372,465,o),
(295,465,cs),
(220,465,o),
(142,405,o),
(142,281,cs),
(142,153,o),
(231,49,o),
(396,49,cs),
(489,49,o),
(551,88,o),
(579,116,c),
(580,118,o),
(580,121,o),
(580,124,cs),
(580,134,o),
(576,145,o),
(571,151,c),
(532,133,o),
(479,125,o),
(428,125,cs),
(312,125,o),
(182,152,o),
(182,276,cs),
(182,380,o),
(250,402,o),
(296,402,cs),
(330,402,o),
(361,386,o),
(373,351,c),
(398,353,l),
(412,383,o),
(444,396,o),
(473,396,cs),
(513,396,o),
(554,362,o),
(549,292,c),
(553,294,l),
(505,311,o),
(454,320,o),
(355,320,cs),
(160,320,o),
(45,224,o),
(45,56,cs),
(45,-93,o),
(152,-220,o),
(391,-220,cs)
);
}
);
width = 656;
}
);
unicode = 3525;
},
{
glyphname = sinFa;
lastChange = "2024-04-01 07:38:10 +0000";
layers = (
{
layerId = "51BB9282-3B82-4DF1-A67A-294D3E37D73A";
shapes = (
{
closed = 1;
nodes = (
(269,-14,o),
(292,-11,o),
(317,0,c),
(319,6,o),
(320,18,o),
(320,30,cs),
(320,47,o),
(318,66,o),
(316,76,c),
(285,63,o),
(252,63,o),
(230,64,cs),
(153,67,o),
(64,116,o),
(64,202,cs),
(64,291,o),
(121,349,o),
(203,349,cs),
(274,349,o),
(335,291,o),
(335,243,cs),
(335,239,o),
(335,235,o),
(334,232,c),
(341,232,o),
(350,233,o),
(357,236,c),
(376,307,o),
(435,346,o),
(488,346,cs),
(550,346,o),
(617,308,o),
(617,228,cs),
(617,172,o),
(583,61,o),
(414,64,c),
(408,54,l),
(412,31,o),
(428,-1,o),
(438,-13,c),
(599,-11,o),
(654,133,o),
(654,239,cs),
(654,387,o),
(566,439,o),
(505,439,cs),
(425,439,o),
(370,372,o),
(348,313,c),
(354,309,l),
(355,312,o),
(355,316,o),
(355,319,cs),
(355,371,o),
(300,440,o),
(224,440,cs),
(115,440,o),
(30,334,o),
(30,214,cs),
(30,81,o),
(113,-14,o),
(243,-14,cs)
);
}
);
width = 688;
}
);
metricRight = sinYa;
unicode = 3526;
},
{
glyphname = sinPfa;
lastChange = "2024-04-01 07:38:10 +0000";
layers = (
{
anchors = (
{
name = _si_MaU;
pos = (551,196);
},
{
name = rakar;
pos = (556,165);
}
);
layerId = "51BB9282-3B82-4DF1-A67A-294D3E37D73A";
shapes = (
{
closed = 1;
nodes = (
(498,-20,o),
(615,70,o),
(615,193,cs),
(615,283,o),
(504,330,o),
(423,330,cs),
(384,330,o),
(387,322,o),
(364,311,c),
(433,287,l),
(425,298,o),
(409,314,o),
(409,353,cs),
(409,401,o),
(450,416,o),
(478,416,cs),
(521,416,o),
(557,392,o),
(557,355,cs),
(557,319,o),
(487,306,o),
(482,299,c),
(493,283,l),
(519,293,o),
(604,319,o),
(604,374,cs),
(604,417,o),
(567,463,o),
(500,463,cs),
(412,463,o),
(367,397,o),
(367,300,cs),
(367,288,o),
(368,276,o),
(369,264,c),
(379,256,l),
(412,270,o),
(446,276,o),
(481,276,cs),
(535,276,o),
(578,259,o),
(578,204,cs),
(578,127,o),
(484,70,o),
(320,70,cs),
(154,70,o),
(64,116,o),
(64,179,cs),
(64,239,o),
(121,268,o),
(207,268,cs),
(226,268,o),
(247,266,o),
(269,263,c),
(280,275,l),
(284,292,o),
(286,312,o),
(286,332,cs),
(286,394,o),
(261,461,o),
(168,461,cs),
(107,461,o),
(69,427,o),
(69,390,cs),
(69,353,o),
(96,340,o),
(122,338,c),
(130,369,o),
(160,411,o),
(203,411,cs),
(236,411,o),
(251,386,o),
(251,363,cs),
(251,325,o),
(230,303,o),
(220,294,c),
(257,323,l),
(246,325,o),
(234,326,o),
(223,326,cs),
(127,326,o),
(30,271,o),
(30,169,cs),
(30,78,o),
(101,-20,o),
(315,-20,cs)
);
},
{
closed = 1;
nodes = (
(348,178,l),
(496,192,l),
(486,223,l),
(436,221,o),
(395,220,o),
(353,220,cs),
(311,220,o),
(238,221,o),
(183,223,c),
(191,190,l),
(238,190,o),
(315,180,o),
(315,129,c)
);
},
{
closed = 1;
nodes = (
(476,-105,l),
(468,-79,l),
(417,-79,o),
(362,-71,o),
(360,-52,cs),
(348,41,o),
(350,131,o),
(350,192,cs),
(350,262,o),
(349,365,o),
(352,417,cs),
(356,495,o),
(408,543,o),
(447,543,cs),
(500,543,o),
(542,529,o),
(572,483,c),
(588,514,o),
(605,530,o),
(605,572,c),
(598,575,o),
(553,589,o),
(503,589,cs),
(414,589,o),
(303,523,o),
(303,400,cs),
(305,239,o),
(305,70,o),
(305,-50,c),
(305,-50,o),
(302,-73,o),
(219,-73,c),
(225,-105,l)
);
}
);
width = 655;
}
);
},
{
glyphname = sinKSsa;
lastChange = "2024-04-01 07:38:10 +0000";
layers = (
{
anchors = (
{
name = MatraI;
pos = (353,340);
},
{
name = Virama;
pos = (715,402);
}
);
layerId = "51BB9282-3B82-4DF1-A67A-294D3E37D73A";
shapes = (
{
closed = 1;
nodes = (
(288,-6,o),
(324,21,o),
(338,62,c),
(350,18,o),
(386,-6,o),
(430,-6,cs),
(520,-6,o),
(561,92,o),
(561,166,cs),
(561,254,o),
(516,319,o),
(438,319,cs),
(352,319,o),
(253,253,o),
(217,215,c),
(249,239,l),
(251,248,o),
(298,282,o),
(311,293,cs),
(361,334,o),
(486,402,o),
(573,402,cs),
(587,402,o),
(599,400,o),
(610,397,c),
(689,454,l),
(664,458,o),
(639,461,o),
(616,461,cs),
(478,461,o),
(374,388,o),
(286,314,cs),
(142,193,o),
(69,115,o),
(50,96,c),
(47,75,o),
(68,62,o),
(72,61,c),
(79,96,o),
(176,173,o),
(214,197,cs),
(266,230,o),
(338,252,o),
(400,252,cs),
(471,252,o),
(528,223,o),
(528,160,cs),
(528,106,o),
(480,79,o),
(430,79,cs),
(387,79,o),
(359,117,o),
(359,168,cs),
(359,173,o),
(359,178,o),
(360,183,c),
(341,179,l),
(327,116,o),
(281,77,o),
(233,77,cs),
(180,77,o),
(169,121,o),
(126,121,cs),
(119,121,o),
(112,120,o),
(103,117,c),
(84,89,l),
(89,94,o),
(95,96,o),
(102,96,cs),
(114,96,o),
(126,89,o),
(133,79,cs),
(161,37,o),
(187,-6,o),
(245,-6,cs)
);
},
{
closed = 1;
nodes = (
(160,278,o),
(176,280,o),
(189,286,c),
(179,299,o),
(170,312,o),
(170,336,cs),
(170,387,o),
(201,422,o),
(236,422,cs),
(270,422,o),
(285,395,o),
(285,363,cs),
(285,331,o),
(273,307,o),
(258,290,c),
(280,298,l),
(296,314,o),
(333,355,o),
(333,395,cs),
(333,434,o),
(295,450,o),
(254,450,cs),
(175,450,o),
(100,396,o),
(100,327,cs),
(100,295,o),
(115,278,o),
(148,278,cs)
);
},
{
pos = (490,0);
ref = sinSsa;
}
);
userData = {
com.typemytype.robofont.layerData = {
background = {
anchors = (
);
components = (
);
contours = (
{
points = (
{
smooth = 0;
x = 599;
y = 485;
},
{
smooth = 0;
x = 479;
y = 441;
},
{
segmentType = curve;
smooth = 1;
x = 404;
y = 380;
},
{
smooth = 0;
x = 387;
y = 366;
},
{
smooth = 0;
x = 326;
y = 322;
},
{
segmentType = curve;
smooth = 0;
x = 323;
y = 310;
},
{
segmentType = line;
smooth = 0;
x = 282;
y = 279;
},
{
smooth = 0;
x = 328;
y = 329;
},
{
smooth = 0;
x = 457;
y = 414;
},
{
segmentType = curve;
smooth = 1;
x = 569;
y = 414;
},
{
smooth = 0;
x = 673;
y = 414;
},
{
smooth = 0;
x = 733;
y = 325;
},
{
segmentType = curve;
smooth = 1;
x = 728;
y = 204;
},
{
smooth = 0;
x = 724;
y = 110;
},
{
smooth = 0;
x = 671;
y = -8;
},
{
segmentType = curve;
smooth = 1;
x = 559;
y = -8;
},
{
smooth = 0;
x = 501;
y = -8;
},
{
smooth = 0;
x = 455;
y = 23;
},
{
segmentType = curve;
smooth = 0;
x = 439;
y = 80;
},
{
smooth = 0;
x = 419;
y = 26;
},
{
smooth = 0;
x = 372;
y = -10;
},
{
segmentType = curve;
smooth = 1;
x = 312;
y = -8;
},
{
smooth = 0;
x = 242;
y = -6;
},
{
smooth = 0;
x = 208;
y = 49;
},
{
segmentType = curve;
smooth = 1;
x = 173;
y = 102;
},
{
smooth = 0;
x = 160;
y = 122;
},
{
smooth = 0;
x = 127;
y = 134;
},
{
segmentType = curve;
smooth = 0;
x = 109;
y = 115;
},
{
segmentType = line;
smooth = 0;
x = 134;
y = 152;
},
{
smooth = 0;
x = 216;
y = 176;
},
{
smooth = 0;
x = 224;
y = 100;
},
{
segmentType = curve;
smooth = 1;
x = 302;
y = 100;
},
{
smooth = 0;
x = 365;
y = 100;
},
{
smooth = 0;
x = 425;
y = 150;
},
{
segmentType = curve;
smooth = 0;
x = 443;
y = 232;
},
{
segmentType = line;
smooth = 0;
x = 468;
y = 238;
},
{
smooth = 0;
x = 460;
y = 162;
},
{
smooth = 0;
x = 497;
y = 103;
},
{
segmentType = curve;
smooth = 1;
x = 559;
y = 103;
},
{
smooth = 0;
x = 622;
y = 103;
},
{
smooth = 0;
x = 685;
y = 137;
},
{
segmentType = curve;
smooth = 1;
x = 686;
y = 205;
},
{
smooth = 0;
x = 687;
y = 288;
},
{
smooth = 0;
x = 613;
y = 327;
},
{
segmentType = curve;
smooth = 1;
x = 519;
y = 327;
},
{
smooth = 0;
x = 439;
y = 327;
},
{
smooth = 0;
x = 346;
y = 299;
},
{
segmentType = curve;
smooth = 1;
x = 278;
y = 256;
},
{
smooth = 0;
x = 228;
y = 225;
},
{
smooth = 0;
x = 102;
y = 125;
},
{
segmentType = curve;
smooth = 0;
x = 94;
y = 79;
},
{
smooth = 0;
x = 88;
y = 81;
},
{
smooth = 0;
x = 61;
y = 98;
},
{
segmentType = curve;
smooth = 0;
x = 65;
y = 125;
},
{
smooth = 0;
x = 89;
y = 149;
},
{
smooth = 0;
x = 185;
y = 250;
},
{
segmentType = curve;
smooth = 1;
x = 372;
y = 408;
},
{
smooth = 0;
x = 505;
y = 521;
},
{
smooth = 0;
x = 626;
y = 592;
},
{
segmentType = curve;
smooth = 0;
x = 771;
y = 592;
},
{
segmentType = line;
smooth = 0;
x = 728;
y = 485;
}
);
}
);
lib = {
};
name = sinKSsa;
unicodes = (
);
width = 1463;
};
};
};
width = 1126;
}
);
},
{
glyphname = sinKVa;
lastChange = "2024-04-01 07:38:10 +0000";
layers = (
{
layerId = "51BB9282-3B82-4DF1-A67A-294D3E37D73A";
shapes = (
{
closed = 1;
nodes = (
(259,-6,o),
(295,21,o),
(309,62,c),
(321,18,o),
(357,-6,o),
(401,-6,cs),
(491,-6,o),
(532,92,o),
(532,166,cs),
(532,254,o),
(487,319,o),
(409,319,cs),
(323,319,o),
(224,253,o),
(188,215,c),
(220,239,l),
(222,248,o),
(269,282,o),
(282,293,cs),
(326,329,o),
(434,379,o),
(528,379,cs),
(557,379,o),
(585,374,o),
(609,362,c),
(687,416,l),
(644,430,o),
(602,436,o),
(562,436,cs),
(440,436,o),
(335,380,o),
(257,314,cs),
(113,193,o),
(40,115,o),
(21,96,c),
(18,75,o),
(39,62,o),
(43,61,c),
(50,96,o),
(147,173,o),
(185,197,cs),
(237,230,o),
(309,252,o),
(371,252,cs),
(442,252,o),
(499,223,o),
(499,160,cs),
(499,106,o),
(451,79,o),
(401,79,cs),
(358,79,o),
(330,117,o),
(330,168,cs),
(330,173,o),
(330,178,o),
(331,183,c),
(312,179,l),
(298,116,o),
(252,77,o),
(204,77,cs),
(151,77,o),
(140,121,o),
(97,121,cs),
(90,121,o),
(83,120,o),
(74,117,c),
(55,89,l),
(60,94,o),
(66,96,o),
(73,96,cs),
(85,96,o),
(97,89,o),
(104,79,cs),
(132,37,o),
(158,-6,o),
(216,-6,cs)
);
},
{
closed = 1;
nodes = (
(131,278,o),
(147,280,o),
(160,286,c),
(150,299,o),
(141,312,o),
(141,336,cs),
(141,387,o),
(172,422,o),
(207,422,cs),
(241,422,o),
(256,395,o),
(256,363,cs),
(256,331,o),
(244,307,o),
(229,290,c),
(251,298,l),
(267,314,o),
(304,355,o),
(304,395,cs),
(304,434,o),
(266,450,o),
(225,450,cs),
(146,450,o),
(71,396,o),
(71,327,cs),
(71,295,o),
(86,278,o),
(119,278,cs)
);
},
{
pos = (456,0);
ref = sinVa;
}
);
width = 1065;
}
);
metricLeft = sinKa;
},
{
glyphname = sinTVa;
lastChange = "2024-04-01 07:38:10 +0000";
layers = (
{
layerId = "51BB9282-3B82-4DF1-A67A-294D3E37D73A";
shapes = (
{
closed = 1;
nodes = (
(432,-7,o),
(506,116,o),
(506,201,cs),
(506,275,o),
(455,313,o),
(387,313,cs),
(341,313,o),
(295,296,o),
(272,281,cs),
(256,271,o),
(236,261,o),
(217,245,c),
(226,255,o),
(249,276,o),
(262,285,cs),
(324,329,o),
(404,383,o),
(516,383,cs),
(578,383,l),
(594,383,l),
(608,437,l),
(596,438,o),
(583,438,o),
(569,438,cs),
(432,438,o),
(329,394,o),
(252,322,cs),
(189,261,o),
(102,159,o),
(43,85,c),
(39,63,o),
(68,49,o),
(69,48,c),
(88,102,o),
(126,143,o),
(166,179,cs),
(216,224,o),
(276,252,o),
(366,252,cs),
(427,252,o),
(476,233,o),
(476,188,cs),
(476,141,o),
(421,70,o),
(296,70,cs),
(188,70,o),
(163,116,o),
(118,116,cs),
(103,116,o),
(81,111,o),
(68,97,c),
(72,54,ls),
(71,65,o),
(82,91,o),
(109,91,cs),
(134,91,o),
(160,-7,o),
(282,-7,cs)
);
},
{
closed = 1;
nodes = (
(216,276,l),
(234,294,o),
(277,355,o),
(277,397,cs),
(277,435,o),
(241,452,o),
(196,452,cs),
(119,452,o),
(45,397,o),
(45,326,cs),
(45,298,o),
(60,280,o),
(92,280,cs),
(108,280,o),
(125,284,o),
(133,289,c),
(127,296,o),
(113,321,o),
(115,350,cs),
(116,384,o),
(138,417,o),
(174,417,cs),
(212,417,o),
(226,395,o),
(226,363,cs),
(226,330,o),
(212,280,o),
(193,258,c)
);
},
{
pos = (428,0);
ref = sinVa;
}
);
width = 1078;
}
);
},
{
glyphname = sinTTha;
lastChange = "2024-04-01 07:38:10 +0000";
layers = (
{
layerId = "51BB9282-3B82-4DF1-A67A-294D3E37D73A";
shapes = (
{
closed = 1;
nodes = (
(892,-18,o),
(1000,112,o),
(1000,277,cs),
(1000,491,o),
(818,630,o),
(662,630,c),
(639,566,l),
(797,566,o),
(954,450,o),
(954,291,cs),
(954,174,o),
(869,69,o),
(713,69,cs),
(610,69,o),
(528,115,o),
(528,193,cs),
(528,259,o),
(588,315,o),
(678,315,cs),
(691,315,o),
(699,314,o),
(705,312,c),
(715,327,l),
(712,346,o),
(705,365,o),
(694,380,c),
(597,381,o),
(488,323,o),
(488,169,cs),
(488,46,o),
(595,-18,o),
(717,-18,cs)
);
},
{
closed = 1;
nodes = (
(228,276,l),
(246,294,o),
(289,355,o),
(289,397,cs),
(289,435,o),
(253,452,o),
(208,452,cs),
(132,452,o),
(57,398,o),
(57,329,cs),
(57,299,o),
(71,280,o),
(104,280,cs),
(120,280,o),
(137,284,o),
(145,289,c),
(139,296,o),
(125,321,o),
(127,350,cs),
(128,384,o),
(150,417,o),
(186,417,cs),
(224,417,o),
(238,395,o),
(238,363,cs),
(238,330,o),
(224,280,o),
(205,258,c)
);
},
{
closed = 1;
nodes = (
(444,-7,o),
(518,116,o),
(518,201,cs),
(518,275,o),
(467,313,o),
(399,313,cs),
(353,313,o),
(307,296,o),
(284,281,cs),
(268,271,o),
(248,261,o),
(229,245,c),
(238,255,o),
(261,276,o),
(274,285,cs),
(337,328,o),
(396,353,o),
(508,353,cs),
(545,353,o),
(594,343,o),
(626,329,c),
(694,380,l),
(651,403,o),
(601,418,o),
(535,418,cs),
(448,418,o),
(341,394,o),
(264,322,cs),
(200,262,o),
(114,159,o),
(55,85,c),
(51,63,o),
(80,49,o),
(81,48,c),
(100,102,o),
(138,143,o),
(178,179,cs),
(228,224,o),
(288,252,o),
(378,252,cs),
(439,252,o),
(488,233,o),
(488,188,cs),
(488,140,o),
(432,70,o),
(304,70,cs),
(200,70,o),
(174,116,o),
(130,116,cs),
(115,116,o),
(93,111,o),
(80,97,c),
(84,54,ls),
(83,65,o),
(94,91,o),
(121,91,cs),
(146,91,o),
(172,-7,o),
(294,-7,cs)
);
},
{
closed = 1;
nodes = (
(841,417,o),
(899,434,o),
(923,455,c),
(915,476,l),
(894,467,o),
(861,461,o),
(825,461,cs),
(708,461,o),
(662,516,o),
(662,630,c),
(631,614,l),
(629,605,o),
(626,586,o),
(626,564,cs),
(626,470,o),
(679,417,o),
(782,417,cs)
);
}
);
width = 1050;
}
);
},
{
glyphname = sinNDa;
lastChange = "2024-04-01 07:38:10 +0000";
layers = (
{
layerId = "51BB9282-3B82-4DF1-A67A-294D3E37D73A";
shapes = (
{
closed = 1;
nodes = (
(403,-15,o),
(494,76,o),
(494,192,cs),
(494,266,o),
(457,303,o),
(402,303,cs),
(342,303,o),
(279,259,o),
(222,213,c),
(218,197,l),
(221,203,o),
(276,258,o),
(290,272,c),
(353,326,o),
(445,392,o),
(559,392,cs),
(573,392,o),
(593,391,o),
(612,387,c),
(657,462,l),
(470,468,o),
(363,401,o),
(266,295,cs),
(195,216,o),
(146,131,o),
(98,131,cs),
(82,131,o),
(75,140,o),
(75,155,cs),
(75,159,o),
(76,164,o),
(77,169,c),
(75,170,o),
(68,171,o),
(62,171,cs),
(55,171,o),
(45,170,o),
(40,168,c),
(51,77,o),
(120,-15,o),
(262,-15,cs)
);
},
{
closed = 1;
nodes = (
(176,66,o),
(115,81,o),
(91,115,c),
(88,93,l),
(184,94,o),
(208,240,o),
(374,240,cs),
(430,240,o),
(459,223,o),
(459,184,cs),
(459,120,o),
(384,66,o),
(248,66,cs)
);
},
{
closed = 1;
nodes = (
(285,297,o),
(328,362,o),
(328,404,cs),
(328,437,o),
(301,457,o),
(251,457,cs),
(172,457,o),
(95,406,o),
(95,335,cs),
(95,302,o),
(112,286,o),
(145,286,cs),
(159,286,o),
(176,289,o),
(186,294,c),
(179,303,o),
(171,324,o),
(171,347,cs),
(171,388,o),
(196,423,o),
(232,423,cs),
(261,423,o),
(281,400,o),
(281,364,cs),
(281,333,o),
(267,300,o),
(254,282,c),
(262,275,l)
);
},
{
pos = (433,0);
ref = sinDa;
}
);
width = 887;
}
);
},
{
glyphname = sinNDha;
lastChange = "2024-04-01 07:38:10 +0000";
layers = (
{
layerId = "51BB9282-3B82-4DF1-A67A-294D3E37D73A";
shapes = (
{
closed = 1;
nodes = (
(964,-16,o),
(1017,116,o),
(1017,267,cs),
(1017,459,o),
(909,597,o),
(697,597,cs),
(607,597,o),
(565,577,o),
(523,554,c),
(514,539,o),
(509,517,o),
(509,499,cs),
(509,491,o),
(510,484,o),
(512,479,c),
(544,499,o),
(575,525,o),
(692,525,cs),
(825,525,o),
(971,473,o),
(971,284,cs),
(971,151,o),
(923,65,o),
(843,65,cs),
(801,65,o),
(750,79,o),
(750,149,c),
(751,158,l),
(732,154,l),
(714,108,o),
(685,69,o),
(616,69,cs),
(545,69,o),
(493,111,o),
(493,192,cs),
(493,242,o),
(539,326,o),
(657,326,cs),
(681,326,o),
(707,323,o),
(734,317,c),
(745,330,l),
(743,352,o),
(738,363,o),
(728,382,c),
(717,383,o),
(705,371,o),
(692,371,cs),
(553,371,o),
(449,309,o),
(449,172,cs),
(449,50,o),
(523,-15,o),
(611,-15,cs),
(697,-15,o),
(733,48,o),
(738,83,c),
(730,105,l),
(729,99,o),
(728,93,o),
(728,85,cs),
(728,29,o),
(777,-16,o),
(852,-16,cs)
);
},
{
closed = 1;
nodes = (
(156,66,o),
(99,78,o),
(71,115,c),
(68,103,l),
(162,104,o),
(193,240,o),
(350,240,cs),
(410,240,o),
(446,223,o),
(446,187,cs),
(446,106,o),
(337,66,o),
(240,66,cs)
);
},
{
closed = 1;
nodes = (
(263,294,o),
(308,363,o),
(308,401,cs),
(308,438,o),
(281,457,o),
(230,457,cs),
(152,457,o),
(75,407,o),
(75,331,cs),
(75,303,o),
(92,286,o),
(126,286,cs),
(139,286,o),
(156,289,o),
(166,294,c),
(159,303,o),
(151,323,o),
(151,350,cs),
(151,388,o),
(176,423,o),
(212,423,cs),
(240,423,o),
(262,400,o),
(262,367,cs),
(262,364,o),
(261,361,o),
(261,357,cs),
(257,327,o),
(246,298,o),
(234,282,c),
(242,275,l)
);
},
{
closed = 1;
nodes = (
(383,-15,o),
(476,69,o),
(474,201,cs),
(474,265,o),
(437,303,o),
(377,303,cs),
(324,303,o),
(259,259,o),
(202,213,c),
(198,197,l),
(201,203,o),
(246,256,o),
(260,270,cs),
(312,316,o),
(406,380,o),
(526,380,cs),
(574,380,o),
(655,370,o),
(693,346,c),
(728,382,l),
(680,420,o),
(595,435,o),
(541,435,cs),
(427,435,o),
(312,366,o),
(246,295,cs),
(199,244,o),
(126,131,o),
(79,131,cs),
(62,131,o),
(55,140,o),
(55,155,cs),
(55,159,o),
(56,164,o),
(57,169,c),
(55,170,o),
(48,171,o),
(42,171,cs),
(34,171,o),
(25,170,o),
(20,168,c),
(29,83,o),
(100,-15,o),
(236,-15,cs)
);
}
);
width = 1077;
}
);
},
{
glyphname = sinNVa;
lastChange = "2024-04-01 07:38:10 +0000";
layers = (
{
layerId = "51BB9282-3B82-4DF1-A67A-294D3E37D73A";
shapes = (
{
closed = 1;
nodes = (
(413,-29,o),
(506,54,o),
(504,186,cs),
(504,250,o),
(467,289,o),
(407,289,cs),
(354,289,o),
(289,244,o),
(232,199,c),
(228,182,l),
(231,188,o),
(276,242,o),
(290,255,cs),
(348,307,o),
(458,370,o),
(555,370,c),
(591,434,l),
(472,434,o),
(343,354,o),
(276,280,cs),
(229,229,o),
(156,116,o),
(109,116,cs),
(92,116,o),
(85,125,o),
(85,140,cs),
(85,145,o),
(86,150,o),
(87,155,c),
(85,156,o),
(79,157,o),
(72,157,cs),
(64,157,o),
(55,156,o),
(50,153,c),
(59,69,o),
(130,-29,o),
(266,-29,cs)
);
},
{
closed = 1;
nodes = (
(186,52,o),
(129,63,o),
(101,100,c),
(98,89,l),
(192,89,o),
(223,226,o),
(380,226,cs),
(440,226,o),
(476,208,o),
(476,172,cs),
(476,92,o),
(367,52,o),
(270,52,cs)
);
},
{
closed = 1;
nodes = (
(293,280,o),
(338,348,o),
(338,387,cs),
(338,424,o),
(311,443,o),
(260,443,cs),
(182,443,o),
(105,393,o),
(105,316,cs),
(105,288,o),
(122,271,o),
(156,271,cs),
(169,271,o),
(186,274,o),
(196,280,c),
(189,289,o),
(181,308,o),
(181,336,cs),
(181,373,o),
(206,408,o),
(242,408,cs),
(270,408,o),
(292,385,o),
(292,353,cs),
(291,343,ls),
(288,313,o),
(276,283,o),
(264,267,c),
(272,260,l)
);
},
{
pos = (430,0);
ref = sinVa;
}
);
width = 1070;
}
);
},
{
glyphname = sinNTha;
lastChange = "2024-04-01 07:38:10 +0000";
layers = (
{
layerId = "51BB9282-3B82-4DF1-A67A-294D3E37D73A";
shapes = (
{
closed = 1;
nodes = (
(403,-15,o),
(496,69,o),
(494,201,cs),
(494,265,o),
(457,303,o),
(397,303,cs),
(344,303,o),
(279,259,o),
(222,213,c),
(218,197,l),
(221,203,o),
(286,256,o),
(300,270,cs),
(352,316,o),
(384,395,o),
(514,395,cs),
(582,395,o),
(617,367,o),
(635,313,c),
(673,380,l),
(635,428,o),
(593,460,o),
(519,460,cs),
(405,460,o),
(332,366,o),
(266,295,cs),
(219,244,o),
(146,131,o),
(99,131,cs),
(82,131,o),
(75,140,o),
(75,155,cs),
(75,159,o),
(76,164,o),
(77,169,c),
(75,170,o),
(68,171,o),
(62,171,cs),
(54,171,o),
(45,170,o),
(40,168,c),
(49,83,o),
(120,-15,o),
(256,-15,cs)
);
},
{
closed = 1;
nodes = (
(176,66,o),
(119,78,o),
(91,115,c),
(88,103,l),
(182,104,o),
(213,240,o),
(370,240,cs),
(430,240,o),
(466,223,o),
(466,187,cs),
(466,106,o),
(357,66,o),
(260,66,cs)
);
},
{
closed = 1;
nodes = (
(283,294,o),
(328,363,o),
(328,401,cs),
(328,438,o),
(301,457,o),
(250,457,cs),
(172,457,o),
(95,407,o),
(95,331,cs),
(95,303,o),
(112,286,o),
(146,286,cs),
(159,286,o),
(176,289,o),
(186,294,c),
(179,303,o),
(171,323,o),
(171,350,cs),
(171,388,o),
(196,423,o),
(232,423,cs),
(260,423,o),
(282,400,o),
(282,367,cs),
(282,364,o),
(281,361,o),
(281,357,cs),
(277,327,o),
(266,298,o),
(254,282,c),
(262,275,l)
);
},
{
pos = (427,0);
ref = sinTha;
}
);
width = 1029;
}
);
},
{
glyphname = sinGDha;
lastChange = "2024-04-01 07:38:10 +0000";
layers = (
{
layerId = "51BB9282-3B82-4DF1-A67A-294D3E37D73A";
shapes = (
{
closed = 1;
nodes = (
(924,-16,o),
(977,116,o),
(977,267,cs),
(977,459,o),
(869,597,o),
(657,597,cs),
(557,597,o),
(495,577,o),
(463,554,c),
(454,539,o),
(449,517,o),
(449,499,cs),
(449,491,o),
(450,484,o),
(452,479,c),
(484,499,o),
(535,525,o),
(652,525,cs),
(785,525,o),
(931,473,o),
(931,284,cs),
(931,151,o),
(883,65,o),
(803,65,cs),
(761,65,o),
(710,79,o),
(710,149,c),
(711,158,l),
(692,154,l),
(674,108,o),
(645,69,o),
(576,69,cs),
(505,69,o),
(447,111,o),
(447,192,cs),
(447,262,o),
(503,328,o),
(621,328,cs),
(645,328,o),
(667,325,o),
(691,319,c),
(702,332,l),
(700,354,o),
(698,368,o),
(688,381,c),
(652,384,ls),
(513,391,o),
(409,309,o),
(409,172,cs),
(409,50,o),
(483,-15,o),
(571,-15,cs),
(657,-15,o),
(693,48,o),
(698,83,c),
(690,105,l),
(689,99,o),
(688,93,o),
(688,85,cs),
(688,29,o),
(737,-16,o),
(812,-16,cs)
);
},
{
closed = 1;
nodes = (
(372,-9,o),
(439,79,o),
(439,173,cs),
(439,247,o),
(388,302,o),
(323,301,c),
(319,249,l),
(349,248,o),
(405,230,o),
(405,180,cs),
(405,113,o),
(320,80,o),
(252,80,cs),
(155,80,o),
(80,130,o),
(80,215,cs),
(80,297,o),
(142,356,o),
(251,356,c),
(256,363,o),
(261,408,o),
(261,432,cs),
(261,438,o),
(261,444,o),
(260,447,c),
(154,446,o),
(44,357,o),
(44,194,cs),
(44,71,o),
(124,-9,o),
(248,-9,cs)
);
},
{
closed = 1;
nodes = (
(309,169,o),
(316,169,o),
(324,170,c),
(322,177,o),
(321,190,o),
(321,197,cs),
(321,305,o),
(392,393,o),
(515,393,cs),
(591,393,o),
(629,373,o),
(659,344,c),
(688,381,l),
(647,427,o),
(601,453,o),
(524,453,cs),
(378,453,o),
(293,333,o),
(288,170,c),
(293,169,o),
(297,169,o),
(302,169,cs)
);
}
);
width = 1037;
}
);
},
{
glyphname = sinDVa;
lastChange = "2024-04-01 07:38:10 +0000";
layers = (
{
layerId = "51BB9282-3B82-4DF1-A67A-294D3E37D73A";
shapes = (
{
closed = 1;
nodes = (
(113,48,o),
(129,50,o),
(136,55,c),
(125,80,o),
(95,153,o),
(95,220,cs),
(95,299,o),
(133,390,o),
(229,397,c),
(266,436,l),
(132,436,o),
(44,334,o),
(44,223,cs),
(44,133,o),
(82,75,o),
(102,48,c)
);
},
{
pos = (86,11);
ref = sinVa;
}
);
width = 690;
}
);
metricRight = sinVa;
},
{
glyphname = sinDDha;
lastChange = "2024-04-01 07:38:10 +0000";
layers = (
{
layerId = "51BB9282-3B82-4DF1-A67A-294D3E37D73A";
shapes = (
{
closed = 1;
nodes = (
(706,-16,o),
(759,116,o),
(759,267,cs),
(759,459,o),
(651,597,o),
(439,597,cs),
(339,597,o),
(277,577,o),
(245,554,c),
(236,539,o),
(231,517,o),
(231,499,cs),
(231,491,o),
(232,484,o),
(234,479,c),
(266,499,o),
(317,525,o),
(434,525,cs),
(567,525,o),
(713,473,o),
(713,284,cs),
(713,151,o),
(665,65,o),
(585,65,cs),
(543,65,o),
(492,79,o),
(492,149,c),
(493,158,l),
(474,154,l),
(456,108,o),
(427,69,o),
(358,69,cs),
(287,69,o),
(229,111,o),
(229,192,cs),
(229,262,o),
(274,320,o),
(392,320,cs),
(416,320,o),
(442,317,o),
(469,311,c),
(480,324,l),
(480,346,o),
(480,353,o),
(470,372,c),
(459,373,o),
(447,374,o),
(434,374,cs),
(295,374,o),
(191,309,o),
(191,172,cs),
(191,50,o),
(265,-15,o),
(353,-15,cs),
(439,-15,o),
(475,48,o),
(480,83,c),
(472,105,l),
(471,99,o),
(470,93,o),
(470,85,cs),
(470,29,o),
(519,-16,o),
(594,-16,cs)
);
},
{
closed = 1;
nodes = (
(136,-22,o),
(147,-18,o),
(151,-15,c),
(128,12,o),
(114,63,o),
(114,121,cs),
(114,230,o),
(143,331,o),
(308,331,cs),
(323,331,o),
(338,330,o),
(354,327,c),
(337,316,l),
(453,364,l),
(451,373,l),
(434,376,o),
(364,380,o),
(330,380,cs),
(136,380,o),
(50,277,o),
(50,137,cs),
(50,66,o),
(87,10,o),
(117,-22,c)
);
}
);
width = 809;
}
);
},
{
glyphname = sinTtTtha;
lastChange = "2024-04-01 07:38:10 +0000";
layers = (
{
layerId = "51BB9282-3B82-4DF1-A67A-294D3E37D73A";
shapes = (
{
closed = 1;
nodes = (
(678,-18,o),
(739,117,o),
(739,253,cs),
(739,511,o),
(518,631,o),
(359,631,c),
(348,562,l),
(509,562,o),
(695,439,o),
(695,258,cs),
(695,158,o),
(638,79,o),
(557,79,cs),
(508,79,o),
(467,107,o),
(467,160,cs),
(467,165,o),
(467,170,o),
(468,176,c),
(448,171,l),
(431,113,o),
(388,77,o),
(326,77,cs),
(269,77,o),
(222,107,o),
(222,168,cs),
(222,242,o),
(294,296,o),
(379,296,cs),
(400,296,o),
(421,294,o),
(443,290,c),
(453,302,l),
(450,326,o),
(436,342,o),
(426,352,c),
(330,356,o),
(183,296,o),
(183,150,cs),
(183,63,o),
(235,-15,o),
(321,-15,cs),
(402,-15,o),
(451,54,o),
(456,102,c),
(457,102,o),
(438,106,o),
(439,108,c),
(440,69,o),
(459,-18,o),
(557,-18,cs)
);
},
{
closed = 1;
nodes = (
(149,9,o),
(161,13,o),
(165,16,c),
(142,43,o),
(127,94,o),
(127,149,cs),
(127,258,o),
(206,332,o),
(306,332,cs),
(321,332,o),
(326,331,o),
(342,328,c),
(427,344,l),
(425,353,l),
(423,353,o),
(390,371,o),
(322,371,cs),
(184,371,o),
(69,299,o),
(69,165,cs),
(69,97,o),
(100,41,o),
(130,9,c)
);
},
{
closed = 1;
nodes = (
(534,413,o),
(598,430,o),
(622,448,c),
(607,473,l),
(587,465,o),
(559,458,o),
(519,458,cs),
(394,458,o),
(368,520,o),
(359,631,c),
(329,614,l),
(326,594,o),
(324,575,o),
(324,557,cs),
(324,473,o),
(367,413,o),
(476,413,cs)
);
}
);
width = 789;
}
);
},
{
category = Mark;
glyphname = sinMatraAa;
lastChange = "2024-04-01 08:53:49 +0000";
layers = (
{
layerId = "51BB9282-3B82-4DF1-A67A-294D3E37D73A";
shapes = (
{
closed = 1;
nodes = (
(227,-10,o),
(262,122,o),
(262,218,cs),
(262,356,o),
(191,417,o),
(128,417,cs),
(76,417,o),
(49,390,o),
(28,370,c),
(25,360,o),
(24,349,o),
(24,340,cs),
(24,334,o),
(24,328,o),
(25,323,c),
(45,335,o),
(74,345,o),
(100,345,cs),
(179,345,o),
(223,306,o),
(228,241,cs),
(229,234,o),
(229,227,o),
(229,221,cs),
(229,123,o),
(174,64,o),
(95,64,cs),
(66,64,o),
(30,74,o),
(12,79,c),
(4,66,o),
(1,52,o),
(1,33,c),
(4,18,o),
(52,-10,o),
(103,-10,cs)
);
}
);
width = 307;
}
);
script = sinhala;
subCategory = Spacing;
unicode = 3535;
},
{
category = Mark;
glyphname = sinMatraAae;
lastChange = "2024-04-01 08:53:49 +0000";
layers = (
{
layerId = "51BB9282-3B82-4DF1-A67A-294D3E37D73A";
shapes = (
{
closed = 1;
nodes = (
(282,-133,o),
(328,-82,o),
(342,-56,c),
(344,-47,o),
(336,-24,o),
(330,-21,c),
(306,-43,o),
(261,-61,o),
(217,-61,cs),
(166,-61,o),
(122,-27,o),
(122,42,cs),
(122,104,o),
(158,143,o),
(221,158,c),
(227,163,l),
(198,206,l),
(186,204,o),
(191,210,o),
(188,200,cs),
(187,198,o),
(185,199,o),
(181,198,c),
(120,161,o),
(80,110,o),
(80,23,cs),
(80,-69,o),
(130,-133,o),
(212,-133,cs)
);
},
{
closed = 1;
nodes = (
(230,171,o),
(234,193,o),
(232,203,c),
(214,207,o),
(173,208,o),
(131,216,c),
(205,259,l),
(208,269,o),
(210,288,o),
(210,303,cs),
(210,308,o),
(210,313,o),
(209,317,c),
(150,319,o),
(86,320,o),
(23,323,c),
(19,318,o),
(17,305,o),
(17,292,cs),
(17,282,o),
(18,273,o),
(21,268,c),
(162,281,l),
(125,264,o),
(74,235,o),
(41,223,c),
(41,214,o),
(40,204,o),
(43,195,c),
(76,192,o),
(127,185,o),
(152,179,cs),
(227,163,l)
);
}
);
width = 371;
}
);
metricLeft = tt;
script = sinhala;
subCategory = Spacing;
unicode = 3537;
},
{
category = Mark;
glyphname = sinMatraAe;
lastChange = "2024-04-01 08:53:49 +0000";
layers = (
{
layerId = "51BB9282-3B82-4DF1-A67A-294D3E37D73A";
shapes = (
{
closed = 1;
nodes = (
(303,-132,o),
(345,-80,o),
(359,-54,c),
(358,-38,o),
(354,-27,o),
(348,-21,c),
(331,-37,o),
(285,-63,o),
(234,-63,cs),
(166,-63,o),
(125,-19,o),
(125,64,cs),
(125,152,o),
(158,228,o),
(238,263,c),
(243,276,o),
(247,279,o),
(247,300,cs),
(247,310,o),
(246,319,o),
(244,327,c),
(216,326,o),
(62,321,o),
(24,319,c),
(20,308,o),
(18,302,o),
(18,287,cs),
(18,275,o),
(19,264,o),
(21,257,c),
(146,263,l),
(109,204,o),
(80,140,o),
(80,35,cs),
(80,-66,o),
(128,-132,o),
(226,-132,cs)
);
}
);
width = 369;
}
);
script = sinhala;
subCategory = Spacing;
unicode = 3536;
},
{
category = Mark;
glyphname = sinMatraAi;
lastChange = "2024-04-01 08:53:49 +0000";
layers = (
{
layerId = "51BB9282-3B82-4DF1-A67A-294D3E37D73A";
shapes = (
{
closed = 1;
nodes = (
(373,-24,o),
(443,69,o),
(443,161,cs),
(443,257,o),
(383,310,o),
(307,310,cs),
(251,310,o),
(191,272,o),
(191,203,cs),
(191,162,o),
(218,129,o),
(262,129,cs),
(313,129,o),
(340,165,o),
(340,206,cs),
(340,241,o),
(318,264,o),
(312,271,c),
(282,268,l),
(288,265,o),
(308,249,o),
(308,219,cs),
(308,197,o),
(297,178,o),
(264,178,cs),
(238,178,o),
(224,192,o),
(224,210,cs),
(224,234,o),
(252,256,o),
(295,256,cs),
(341,256,o),
(406,243,o),
(406,173,cs),
(406,102,o),
(318,52,o),
(235,52,cs),
(154,52,o),
(71,100,o),
(71,203,cs),
(71,314,o),
(178,380,o),
(288,380,cs),
(419,380,o),
(480,328,o),
(480,328,c),
(491,344,o),
(501,360,o),
(499,384,c),
(499,384,o),
(445,440,o),
(299,440,cs),
(167,440,o),
(32,345,o),
(32,181,cs),
(32,70,o),
(102,-24,o),
(234,-24,cs)
);
},
{
pos = (482,0);
ref = sinMatraE;
}
);
width = 970;
}
);
metricLeft = "=sinMatraE";
metricRight = "=sinMatraE";
script = sinhala;
subCategory = Spacing;
unicode = 3547;
},
{
category = Mark;
glyphname = sinMatraE;
lastChange = "2024-04-01 08:53:49 +0000";
layers = (
{
layerId = "51BB9282-3B82-4DF1-A67A-294D3E37D73A";
shapes = (
{
closed = 1;
nodes = (
(382,-16,o),
(442,85,o),
(442,165,cs),
(442,269,o),
(364,312,o),
(298,312,cs),
(235,312,o),
(182,276,o),
(182,214,cs),
(182,160,o),
(221,133,o),
(266,133,cs),
(313,133,o),
(340,169,o),
(340,210,cs),
(340,243,o),
(312,269,o),
(298,276,c),
(275,270,l),
(289,267,o),
(307,250,o),
(307,222,cs),
(307,200,o),
(288,182,o),
(257,182,cs),
(231,182,o),
(208,197,o),
(208,219,cs),
(208,247,o),
(239,261,o),
(281,261,cs),
(326,261,o),
(405,245,o),
(405,173,cs),
(405,109,o),
(345,57,o),
(243,57,cs),
(145,57,o),
(71,115,o),
(71,206,cs),
(71,315,o),
(168,376,o),
(281,376,cs),
(363,376,o),
(422,347,o),
(429,343,c),
(437,359,o),
(448,386,o),
(448,405,c),
(441,410,o),
(389,440,o),
(291,440,cs),
(150,440,o),
(32,343,o),
(32,200,cs),
(32,76,o),
(117,-16,o),
(244,-16,cs)
);
}
);
width = 488;
}
);
script = sinhala;
subCategory = Spacing;
unicode = 3545;
},
{
glyphname = sinMatraI;
lastChange = "2024-04-01 07:38:10 +0000";
layers = (
{
layerId = "51BB9282-3B82-4DF1-A67A-294D3E37D73A";
shapes = (
{
closed = 1;
nodes = (
(176,427,o),
(210,463,o),
(210,510,cs),
(210,599,o),
(93,626,o),
(10,626,cs),
(-104,626,o),
(-216,589,o),
(-216,499,cs),
(-216,457,o),
(-187,432,o),
(-144,419,c),
(-129,446,l),
(-144,453,o),
(-169,461,o),
(-169,490,cs),
(-169,546,o),
(-97,551,o),
(-27,551,cs),
(76,551,o),
(163,548,o),
(163,483,cs),
(163,462,o),
(151,449,o),
(136,437,c),
(149,417,l)
);
}
);
width = 0;
}
);
unicode = 3538;
},
{
glyphname = sinMatraIi;
lastChange = "2024-04-01 07:38:10 +0000";
layers = (
{
layerId = "51BB9282-3B82-4DF1-A67A-294D3E37D73A";
shapes = (
{
closed = 1;
nodes = (
(165,385,o),
(201,411,o),
(201,475,cs),
(201,549,o),
(120,630,o),
(-38,630,cs),
(-150,630,o),
(-223,579,o),
(-223,493,cs),
(-223,429,o),
(-175,391,o),
(-149,391,c),
(-141,389,o),
(-135,388,o),
(-129,388,cs),
(-106,388,o),
(-95,402,o),
(-93,409,c),
(-110,418,o),
(-188,443,o),
(-188,488,cs),
(-188,549,o),
(-118,559,o),
(-24,559,cs),
(44,559,o),
(163,543,o),
(163,484,cs),
(163,454,o),
(142,418,o),
(123,418,cs),
(100,418,o),
(89,444,o),
(89,466,cs),
(89,493,o),
(98,525,o),
(143,536,c),
(121,553,l),
(106,551,o),
(40,520,o),
(40,462,cs),
(40,410,o),
(74,385,o),
(122,385,cs)
);
}
);
width = 0;
}
);
unicode = 3539;
},
{
category = Mark;
glyphname = sinMatraLl;
lastChange = "2024-04-01 08:53:49 +0000";
layers = (
{
layerId = "51BB9282-3B82-4DF1-A67A-294D3E37D73A";
shapes = (
{
closed = 1;
nodes = (
(366,-16,o),
(397,130,o),
(397,260,cs),
(397,392,o),
(351,438,o),
(281,438,cs),
(209,438,o),
(147,368,o),
(148,236,c),
(153,235,o),
(157,234,o),
(161,234,cs),
(167,234,o),
(171,235,o),
(180,236,c),
(179,245,o),
(179,255,o),
(179,263,cs),
(179,321,o),
(200,368,o),
(265,368,cs),
(334,368,o),
(364,328,o),
(364,247,cs),
(364,203,o),
(359,38,o),
(212,38,cs),
(165,38,o),
(151,82,o),
(139,101,c),
(98,110,o),
(59,101,o),
(58,58,cs),
(57,0,o),
(138,-16,o),
(199,-16,cs)
);
},
{
closed = 1;
nodes = (
(242,129,o),
(269,189,o),
(269,244,cs),
(269,309,o),
(212,329,o),
(180,328,c),
(176,286,l),
(210,287,o),
(244,275,o),
(244,241,cs),
(244,211,o),
(217,191,o),
(171,191,cs),
(139,191,o),
(79,198,o),
(79,282,cs),
(79,348,o),
(134,410,o),
(146,422,c),
(139,431,o),
(121,437,o),
(106,437,cs),
(102,437,o),
(98,437,o),
(95,436,c),
(72,404,o),
(52,350,o),
(52,280,cs),
(52,212,o),
(80,129,o),
(169,129,cs)
);
}
);
width = 447;
}
);
script = sinhala;
subCategory = Spacing;
unicode = 3571;
},
{
category = Mark;
glyphname = sinMatraLs;
lastChange = "2024-04-01 08:53:49 +0000";
layers = (
{
layerId = "51BB9282-3B82-4DF1-A67A-294D3E37D73A";
shapes = (
{
closed = 1;
nodes = (
(356,-16,o),
(397,130,o),
(397,270,cs),
(397,392,o),
(351,438,o),
(281,438,cs),
(209,438,o),
(147,368,o),
(148,236,c),
(153,235,o),
(157,234,o),
(161,234,cs),
(167,234,o),
(171,235,o),
(180,236,c),
(179,245,o),
(179,255,o),
(179,263,cs),
(179,321,o),
(200,368,o),
(265,368,cs),
(334,368,o),
(364,328,o),
(364,257,cs),
(364,203,o),
(349,56,o),
(212,56,cs),
(165,56,o),
(115,70,o),
(82,96,c),
(73,93,o),
(60,78,o),
(57,68,c),
(81,20,o),
(148,-16,o),
(209,-16,cs)
);
},
{
closed = 1;
nodes = (
(242,129,o),
(269,189,o),
(269,244,cs),
(269,309,o),
(212,329,o),
(180,328,c),
(176,286,l),
(210,287,o),
(244,275,o),
(244,241,cs),
(244,211,o),
(217,191,o),
(171,191,cs),
(139,191,o),
(79,198,o),
(79,282,cs),
(79,348,o),
(134,410,o),
(146,422,c),
(139,431,o),
(121,437,o),
(106,437,cs),
(102,437,o),
(98,437,o),
(95,436,c),
(72,404,o),
(52,350,o),
(52,280,cs),
(52,212,o),
(80,129,o),
(169,129,cs)
);
}
);
width = 469;
}
);
script = sinhala;
subCategory = Spacing;
unicode = 3551;
},
{
category = Mark;
glyphname = sinMatraR;
lastChange = "2024-04-01 08:53:49 +0000";
layers = (
{
layerId = "51BB9282-3B82-4DF1-A67A-294D3E37D73A";
shapes = (
{
closed = 1;
nodes = (
(267,-15,o),
(292,107,o),
(292,201,cs),
(292,340,o),
(220,402,o),
(158,402,cs),
(106,402,o),
(69,375,o),
(47,354,c),
(46,351,o),
(45,345,o),
(45,339,cs),
(45,328,o),
(48,315,o),
(55,308,c),
(75,320,o),
(104,337,o),
(140,337,cs),
(214,337,o),
(254,284,o),
(254,221,cs),
(254,119,o),
(200,33,o),
(136,33,cs),
(104,33,o),
(87,50,o),
(87,87,cs),
(87,148,o),
(117,186,o),
(169,186,cs),
(207,186,o),
(234,172,o),
(261,150,c),
(265,213,l),
(248,221,o),
(218,224,o),
(190,224,cs),
(96,224,o),
(25,158,o),
(25,87,cs),
(25,8,o),
(99,-15,o),
(137,-15,cs)
);
}
);
width = 332;
}
);
script = sinhala;
subCategory = Spacing;
unicode = 3544;
},
{
glyphname = sinMatraU;
lastChange = "2024-04-01 07:38:10 +0000";
layers = (
{
layerId = "51BB9282-3B82-4DF1-A67A-294D3E37D73A";
shapes = (
{
closed = 1;
nodes = (
(25,-215,l),
(18,201,l),
(-12,199,l),
(-30,-143,l),
(-131,-157,o),
(-214,-170,o),
(-305,-168,cs),
(-357,-167,o),
(-379,-119,o),
(-379,-92,c),
(-382,-91,o),
(-385,-91,o),
(-388,-91,cs),
(-411,-91,o),
(-443,-105,o),
(-453,-115,c),
(-445,-157,o),
(-405,-215,o),
(-303,-215,cs)
);
}
);
width = 0;
}
);
unicode = 3540;
},
{
glyphname = sinMatraUu;
lastChange = "2024-04-01 07:38:10 +0000";
layers = (
{
layerId = "51BB9282-3B82-4DF1-A67A-294D3E37D73A";
shapes = (
{
closed = 1;
nodes = (
(15,-211,l),
(19,225,l),
(-17,204,l),
(-38,-175,l),
(-8,-183,l),
(-31,-152,o),
(-83,-99,o),
(-150,-99,cs),
(-241,-99,o),
(-287,-173,o),
(-339,-173,cs),
(-371,-173,o),
(-404,-152,o),
(-404,-105,c),
(-415,-101,o),
(-429,-100,o),
(-443,-103,cs),
(-454,-105,o),
(-465,-111,o),
(-474,-119,c),
(-474,-160,o),
(-442,-220,o),
(-347,-220,cs),
(-272,-220,o),
(-249,-174,o),
(-164,-174,cs),
(-110,-174,o),
(-47,-202,o),
(-7,-225,c)
);
}
);
width = 0;
}
);
unicode = 3542;
},
{
glyphname = sinVirama;
lastChange = "2024-04-01 07:38:10 +0000";
layers = (
{
anchors = (
{
name = _Virama;
pos = (11,367);
}
);
layerId = "51BB9282-3B82-4DF1-A67A-294D3E37D73A";
shapes = (
{
closed = 1;
nodes = (
(12,368,l),
(8,503,l),
(16,484,o),
(41,461,o),
(75,461,cs),
(119,461,o),
(137,495,o),
(137,538,cs),
(137,644,o),
(18,676,o),
(-8,681,c),
(-24,671,l),
(-27,368,l)
);
},
{
closed = 1;
nodes = (
(38,523,o),
(8,548,o),
(8,589,cs),
(8,611,l),
(43,607,o),
(103,592,o),
(103,550,cs),
(103,529,o),
(88,523,o),
(71,523,cs)
);
}
);
width = 1;
}
);
unicode = 3530;
},
{
category = Mark;
glyphname = sinRakar;
lastChange = "2024-04-01 08:53:49 +0000";
layers = (
{
layerId = "51BB9282-3B82-4DF1-A67A-294D3E37D73A";
shapes = (
{
closed = 1;
nodes = (
(-55,-261,o),
(20,28,o),
(-1,273,c),
(-46,252,l),
(-37,57,o),
(-86,-168,o),
(-299,-177,cs),
(-309,-177,o),
(-319,-178,o),
(-329,-178,cs),
(-478,-178,o),
(-511,-122,o),
(-511,-122,c),
(-534,-146,l),
(-530,-166,o),
(-451,-261,o),
(-305,-261,cs)
);
}
);
width = 0;
}
);
script = sinhala;
subCategory = Spacing;
},
{
glyphname = sinReph;
lastChange = "2024-04-01 07:38:10 +0000";
layers = (
{
layerId = "51BB9282-3B82-4DF1-A67A-294D3E37D73A";
shapes = (
{
closed = 1;
nodes = (
(-184,395,o),
(-126,433,o),
(-126,512,cs),
(-126,597,o),
(-192,658,o),
(-283,658,cs),
(-379,658,o),
(-432,589,o),
(-432,517,cs),
(-432,464,o),
(-396,421,o),
(-339,421,cs),
(-291,421,o),
(-266,453,o),
(-266,489,cs),
(-266,532,o),
(-298,564,o),
(-335,564,cs),
(-379,564,o),
(-397,525,o),
(-407,515,c),
(-398,502,l),
(-383,511,o),
(-370,521,o),
(-338,521,cs),
(-315,521,o),
(-291,510,o),
(-291,491,cs),
(-291,467,o),
(-316,461,o),
(-335,461,cs),
(-372,461,o),
(-392,486,o),
(-392,528,cs),
(-392,577,o),
(-333,597,o),
(-283,597,cs),
(-251,597,o),
(-158,582,o),
(-158,510,cs),
(-158,461,o),
(-181,434,o),
(-253,421,c),
(-247,387,l)
);
}
);
width = 0;
}
);
},
{
category = Mark;
glyphname = sinYansaya;
lastChange = "2024-04-01 08:53:49 +0000";
layers = (
{
layerId = "51BB9282-3B82-4DF1-A67A-294D3E37D73A";
shapes = (
{
closed = 1;
nodes = (
(449,-13,o),
(524,78,o),
(524,172,cs),
(524,283,o),
(445,337,o),
(362,337,cs),
(356,337,o),
(349,337,o),
(343,336,c),
(343,336,o),
(334,417,o),
(402,417,cs),
(439,417,o),
(464,394,o),
(464,363,cs),
(464,330,o),
(438,310,o),
(438,310,c),
(443,293,l),
(443,293,o),
(523,307,o),
(523,381,cs),
(523,434,o),
(479,471,o),
(427,471,cs),
(356,471,o),
(279,421,o),
(289,291,c),
(305,278,l),
(411,279,o),
(483,244,o),
(483,176,cs),
(483,109,o),
(410,61,o),
(297,61,cs),
(216,61,o),
(170,81,o),
(142,100,c),
(110,72,l),
(144,36,o),
(191,-13,o),
(301,-13,cs)
);
},
{
closed = 1;
nodes = (
(151,62,o),
(239,177,o),
(239,309,cs),
(239,385,o),
(210,463,o),
(124,463,cs),
(60,463,o),
(18,411,o),
(17,388,c),
(22,378,o),
(32,369,o),
(41,362,c),
(59,386,o),
(92,396,o),
(113,396,cs),
(139,396,o),
(201,389,o),
(201,313,cs),
(201,175,o),
(76,82,o),
(10,45,c),
(12,26,o),
(19,7,o),
(33,-12,c)
);
}
);
width = 600;
}
);
script = sinhala;
subCategory = Spacing;
},
{
category = Mark;
glyphname = sinAnusvara;
lastChange = "2024-04-01 08:53:49 +0000";
layers = (
{
layerId = "51BB9282-3B82-4DF1-A67A-294D3E37D73A";
shapes = (
{
closed = 1;
nodes = (
(350,54,o),
(393,152,o),
(393,242,cs),
(393,322,o),
(336,403,o),
(225,403,cs),
(137,403,o),
(59,333,o),
(59,223,cs),
(59,129,o),
(119,54,o),
(232,54,cs)
);
},
{
closed = 1;
nodes = (
(168,126,o),
(97,152,o),
(97,226,cs),
(97,294,o),
(154,331,o),
(227,331,cs),
(296,331,o),
(356,300,o),
(356,229,cs),
(356,175,o),
(308,126,o),
(232,126,cs)
);
}
);
width = 453;
}
);
script = sinhala;
subCategory = Spacing;
unicode = 3458;
},
{
category = Mark;
glyphname = sinVisarga;
lastChange = "2024-04-01 08:53:49 +0000";
layers = (
{
layerId = "51BB9282-3B82-4DF1-A67A-294D3E37D73A";
shapes = (
{
closed = 1;
nodes = (
(202,248,o),
(234,299,o),
(234,350,cs),
(234,396,o),
(196,437,o),
(136,437,cs),
(89,437,o),
(42,407,o),
(42,342,cs),
(42,290,o),
(78,248,o),
(134,248,cs)
);
},
{
closed = 1;
nodes = (
(191,2,o),
(229,48,o),
(229,106,cs),
(229,156,o),
(199,192,o),
(141,192,cs),
(88,192,o),
(39,155,o),
(39,85,cs),
(39,40,o),
(69,2,o),
(126,2,cs)
);
},
{
closed = 1;
nodes = (
(95,42,o),
(78,62,o),
(78,87,cs),
(78,129,o),
(109,151,o),
(140,151,cs),
(169,151,o),
(186,133,o),
(186,108,cs),
(186,77,o),
(164,42,o),
(126,42,cs)
);
},
{
closed = 1;
nodes = (
(95,288,o),
(78,305,o),
(78,330,cs),
(78,377,o),
(116,403,o),
(148,403,cs),
(176,403,o),
(191,385,o),
(191,360,cs),
(191,325,o),
(167,288,o),
(122,288,cs)
);
}
);
width = 276;
}
);
script = sinhala;
subCategory = Spacing;
unicode = 3459;
},
{
category = Mark;
glyphname = sinMatraAa.virama;
lastChange = "2024-04-01 08:53:49 +0000";
layers = (
{
layerId = "51BB9282-3B82-4DF1-A67A-294D3E37D73A";
shapes = (
{
closed = 1;
nodes = (
(238,-10,o),
(273,114,o),
(273,209,cs),
(273,353,o),
(199,417,o),
(136,417,cs),
(84,417,o),
(57,390,o),
(36,370,c),
(34,361,o),
(33,352,o),
(33,343,cs),
(33,336,o),
(34,329,o),
(35,323,c),
(55,335,o),
(82,345,o),
(109,345,cs),
(187,345,o),
(233,306,o),
(239,241,cs),
(240,232,o),
(240,224,o),
(240,216,cs),
(240,121,o),
(186,64,o),
(109,64,cs),
(80,64,o),
(44,74,o),
(25,79,c),
(18,66,o),
(15,52,o),
(15,33,c),
(19,18,o),
(67,-10,o),
(119,-10,cs)
);
},
{
closed = 1;
nodes = (
(159,391,l),
(156,516,l),
(166,497,o),
(187,478,o),
(217,478,cs),
(266,478,o),
(285,517,o),
(285,559,cs),
(285,567,o),
(284,575,o),
(283,583,cs),
(269,668,o),
(162,695,o),
(138,699,c),
(127,689,l),
(126,391,l)
);
},
{
closed = 1;
nodes = (
(220,546,o),
(217,546,o),
(213,547,cs),
(180,554,o),
(155,573,o),
(155,601,cs),
(155,634,l),
(190,630,o),
(252,617,o),
(252,575,cs),
(252,555,o),
(238,546,o),
(223,546,cs)
);
}
);
width = 315;
}
);
script = sinhala;
subCategory = Spacing;
},
{
glyphname = sinKh.virama;
lastChange = "2024-04-01 07:38:10 +0000";
layers = (
{
layerId = "51BB9282-3B82-4DF1-A67A-294D3E37D73A";
shapes = (
{
closed = 1;
nodes = (
(600,493,o),
(555,719,o),
(293,719,cs),
(192,719,o),
(140,691,o),
(140,691,c),
(127,667,o),
(124,641,o),
(123,631,c),
(145,641,o),
(155,645,o),
(182,651,c),
(203,681,l),
(190,671,o),
(174,632,o),
(143,563,c),
(183,558,l),
(201,607,o),
(223,664,o),
(267,669,c),
(235,670,o),
(213,671,o),
(186,651,c),
(186,651,o),
(200,661,o),
(273,661,cs),
(554,661,o),
(555,460,o),
(553,412,c),
(600,361,l)
);
},
{
ref = sinKha;
}
);
userData = {
com.typemytype.robofont.layerData = {
background = {
anchors = (
);
components = (
);
contours = (
{
points = (
{
smooth = 0;
x = 186;
y = 52;
},
{
smooth = 0;
x = 97;
y = 87;
},
{
segmentType = curve;
smooth = 1;
x = 100.01;
y = 211;
},
{
smooth = 0;
x = 103.35;
y = 351.131;
},
{
smooth = 0;
x = 210;
y = 417;
},
{
segmentType = curve;
smooth = 1;
x = 298;
y = 417;
},
{
smooth = 0;
x = 408;
y = 417;
},
{
smooth = 0;
x = 436.537;
y = 329.068;
},
{
segmentType = curve;
smooth = 1;
x = 438;
y = 260;
},
{
smooth = 0;
x = 440.038;
y = 163.812;
},
{
smooth = 0;
x = 399.917;
y = 59.615;
},
{
segmentType = curve;
smooth = 0;
x = 352;
y = -22;
},
{
segmentType = line;
smooth = 0;
x = 399;
y = -30;
},
{
smooth = 0;
x = 430.332;
y = 22.643;
},
{
smooth = 0;
x = 442.143;
y = 31.75;
},
{
segmentType = curve;
smooth = 0;
x = 450;
y = 64;
},
{
segmentType = line;
smooth = 0;
x = 407;
y = 34;
},
{
smooth = 0;
x = 432.083;
y = 12.39;
},
{
smooth = 0;
x = 464.591;
y = -12.158;
},
{
segmentType = curve;
smooth = 1;
x = 540.323;
y = -12;
},
{
smooth = 0;
x = 699.758;
y = -11.667;
},
{
smooth = 0;
x = 788.701;
y = 149.408;
},
{
segmentType = curve;
smooth = 1;
x = 797.557;
y = 355;
},
{
smooth = 0;
x = 809.175;
y = 624.744;
},
{
smooth = 0;
x = 623.938;
y = 778;
},
{
segmentType = curve;
smooth = 1;
x = 410.725;
y = 778;
},
{
smooth = 0;
x = 318.725;
y = 778;
},
{
smooth = 0;
x = 248.468;
y = 754;
},
{
segmentType = curve;
smooth = 0;
x = 204;
y = 726;
},
{
smooth = 0;
x = 185.141;
y = 696.402;
},
{
smooth = 0;
x = 171.547;
y = 635.165;
},
{
segmentType = curve;
smooth = 1;
x = 183.812;
y = 627;
},
{
smooth = 0;
x = 185.466;
y = 625.899;
},
{
smooth = 0;
x = 272.818;
y = 688;
},
{
segmentType = curve;
smooth = 1;
x = 399.009;
y = 688;
},
{
smooth = 0;
x = 614.735;
y = 688;
},
{
smooth = 0;
x = 742.913;
y = 576.689;
},
{
segmentType = curve;
smooth = 1;
x = 737.447;
y = 372;
},
{
smooth = 0;
x = 734.193;
y = 251.824;
},
{
smooth = 0;
x = 671.062;
y = 84.498;
},
{
segmentType = curve;
smooth = 1;
x = 535.402;
y = 84;
},
{
smooth = 0;
x = 471.95;
y = 83.58;
},
{
smooth = 0;
x = 463.83;
y = 115.825;
},
{
segmentType = curve;
smooth = 0;
x = 453;
y = 122;
},
{
segmentType = line;
smooth = 1;
x = 465.014;
y = 92;
},
{
smooth = 0;
x = 488.145;
y = 125.419;
},
{
smooth = 0;
x = 521.133;
y = 216.217;
},
{
segmentType = curve;
smooth = 1;
x = 525;
y = 287;
},
{
smooth = 0;
x = 530.284;
y = 383.709;
},
{
smooth = 0;
x = 482;
y = 498;
},
{
segmentType = curve;
smooth = 1;
x = 341;
y = 496;
},
{
smooth = 0;
x = 186;
y = 494;
},
{
smooth = 0;
x = 69;
y = 378;
},
{
segmentType = curve;
smooth = 1;
x = 55.434;
y = 200;
},
{
smooth = 0;
x = 48;
y = 100;
},
{
smooth = 0;
x = 87.009;
y = -18;
},
{
segmentType = curve;
smooth = 1;
x = 196;
y = -18;
},
{
smooth = 0;
x = 291.009;
y = -18;
},
{
smooth = 0;
x = 334.438;
y = 35.152;
},
{
segmentType = curve;
smooth = 1;
x = 340.455;
y = 105;
},
{
smooth = 0;
x = 345.28;
y = 161.003;
},
{
smooth = 0;
x = 312.829;
y = 206.727;
},
{
segmentType = curve;
smooth = 1;
x = 262.8;
y = 207;
},
{
smooth = 0;
x = 177.373;
y = 207.467;
},
{
smooth = 0;
x = 135.739;
y = 118.241;
},
{
segmentType = curve;
smooth = 0;
x = 168.677;
y = 52;
},
{
segmentType = line;
smooth = 0;
x = 167;
y = 9;
},
{
smooth = 0;
x = 163.615;
y = 9.513;
},
{
smooth = 0;
x = 243.66;
y = -2;
},
{
segmentType = curve;
smooth = 0;
x = 213;
y = 29;
},
{
smooth = 0;
x = 194.345;
y = 36.169;
},
{
smooth = 0;
x = 194;
y = 78;
},
{
segmentType = curve;
smooth = 1;
x = 196;
y = 99;
},
{
smooth = 0;
x = 198;
y = 130;
},
{
smooth = 0;
x = 226.547;
y = 154;
},
{
segmentType = curve;
smooth = 1;
x = 252.547;
y = 154;
},
{
smooth = 0;
x = 276.547;
y = 154;
},
{
smooth = 0;
x = 300.918;
y = 142;
},
{
segmentType = curve;
smooth = 1;
x = 298.188;
y = 109;
},
{
smooth = 0;
x = 295.955;
y = 81.994;
},
{
smooth = 0;
x = 269.053;
y = 54.902;
},
{
segmentType = curve;
smooth = 1;
x = 219.044;
y = 53;
}
);
}
);
lib = {
};
name = sinKh.virama;
unicodes = (
);
width = 863;
};
};
};
width = 662;
}
);
metricRight = sinKha;
},
{
glyphname = sinNg.virama;
lastChange = "2024-04-01 07:38:10 +0000";
layers = (
{
layerId = "51BB9282-3B82-4DF1-A67A-294D3E37D73A";
shapes = (
{
closed = 1;
nodes = (
(589,512,o),
(554,718,o),
(293,718,cs),
(201,718,o),
(129,683,o),
(129,683,c),
(116,659,o),
(113,633,o),
(112,623,c),
(134,638,o),
(164,640,o),
(191,650,c),
(213,680,l),
(199,670,o),
(163,635,o),
(132,566,c),
(172,561,l),
(190,610,o),
(233,663,o),
(266,668,c),
(244,669,o),
(222,670,o),
(196,650,c),
(196,650,o),
(209,660,o),
(272,660,cs),
(554,660,o),
(553,479,o),
(551,431,c),
(589,369,l)
);
},
{
ref = sinNga;
}
);
width = 656;
}
);
},
{
glyphname = sinC.virama;
lastChange = "2024-04-01 07:38:10 +0000";
layers = (
{
layerId = "51BB9282-3B82-4DF1-A67A-294D3E37D73A";
shapes = (
{
closed = 1;
nodes = (
(599,512,o),
(564,718,o),
(303,718,cs),
(211,718,o),
(139,683,o),
(139,683,c),
(126,659,o),
(123,633,o),
(122,623,c),
(144,638,o),
(174,640,o),
(201,650,c),
(223,680,l),
(209,670,o),
(173,635,o),
(142,566,c),
(182,561,l),
(200,610,o),
(243,663,o),
(276,668,c),
(254,669,o),
(232,670,o),
(206,650,c),
(206,650,o),
(219,660,o),
(282,660,cs),
(564,660,o),
(563,479,o),
(561,431,c),
(599,369,l)
);
},
{
ref = sinCa;
}
);
width = 657;
}
);
metricLeft = sinCa;
metricRight = sinCa;
},
{
glyphname = sinCh.virama;
lastChange = "2024-04-01 07:38:10 +0000";
layers = (
{
anchors = (
{
name = _si_MaU;
pos = (570,196);
}
);
layerId = "51BB9282-3B82-4DF1-A67A-294D3E37D73A";
shapes = (
{
closed = 1;
nodes = (
(453,-20,o),
(570,70,o),
(570,193,cs),
(570,275,o),
(509,320,o),
(428,320,cs),
(408,320,o),
(394,322,o),
(382,322,cs),
(371,322,o),
(363,320,o),
(352,315,c),
(356,270,l),
(358,301,ls),
(358,346,o),
(372,399,o),
(443,399,cs),
(480,399,o),
(521,372,o),
(521,317,cs),
(521,266,o),
(490,201,o),
(430,201,cs),
(347,201,o),
(358,287,o),
(358,317,cs),
(358,419,o),
(422,486,o),
(463,532,cs),
(497,570,o),
(595,630,o),
(595,630,c),
(592,655,o),
(571,678,o),
(562,682,c),
(412,597,o),
(314,431,o),
(314,295,cs),
(314,176,o),
(376,156,o),
(419,156,cs),
(510,156,o),
(558,256,o),
(558,341,cs),
(558,402,o),
(517,454,o),
(461,454,cs),
(377,454,o),
(318,359,o),
(318,278,cs),
(318,270,o),
(318,263,o),
(319,256,c),
(334,248,l),
(366,259,o),
(401,272,o),
(436,272,cs),
(490,272,o),
(534,251,o),
(534,199,cs),
(534,127,o),
(439,63,o),
(305,63,cs),
(149,63,o),
(67,116,o),
(67,179,cs),
(67,231,o),
(126,260,o),
(212,260,cs),
(231,260,o),
(252,259,o),
(274,256,c),
(285,267,l),
(289,284,o),
(291,304,o),
(291,324,cs),
(291,387,o),
(266,454,o),
(173,454,cs),
(112,454,o),
(74,420,o),
(74,382,cs),
(74,345,o),
(101,332,o),
(127,330,c),
(135,361,o),
(165,403,o),
(207,403,cs),
(241,403,o),
(256,379,o),
(256,348,cs),
(256,315,o),
(235,295,o),
(225,286,c),
(262,316,l),
(251,317,o),
(239,318,o),
(228,318,cs),
(132,318,o),
(35,261,o),
(35,169,cs),
(35,78,o),
(106,-20,o),
(310,-20,cs)
);
},
{
closed = 1;
nodes = (
(348,290,l),
(348,571,l),
(356,552,o),
(377,533,o),
(408,533,cs),
(458,533,o),
(477,557,o),
(477,600,cs),
(477,701,o),
(358,733,o),
(332,738,c),
(321,728,l),
(314,290,l)
);
},
{
closed = 1;
nodes = (
(378,583,o),
(348,610,o),
(348,651,cs),
(348,673,l),
(383,669,o),
(444,656,o),
(444,614,cs),
(444,593,o),
(431,583,o),
(411,583,cs)
);
}
);
width = 605;
}
);
},
{
glyphname = sinJ.virama;
lastChange = "2024-04-01 07:38:10 +0000";
layers = (
{
layerId = "51BB9282-3B82-4DF1-A67A-294D3E37D73A";
shapes = (
{
closed = 1;
nodes = (
(351,293,l),
(351,593,l),
(360,574,o),
(381,555,o),
(414,555,cs),
(461,555,o),
(480,588,o),
(480,628,cs),
(480,731,o),
(374,764,o),
(336,768,c),
(325,758,l),
(318,293,l)
);
},
{
ref = sinJa;
},
{
closed = 1;
nodes = (
(383,616,o),
(355,641,o),
(355,671,cs),
(355,704,l),
(390,699,o),
(452,686,o),
(452,646,cs),
(452,625,o),
(434,616,o),
(415,616,cs)
);
}
);
width = 642;
}
);
},
{
glyphname = sinJh.virama;
lastChange = "2024-04-01 07:38:10 +0000";
layers = (
{
layerId = "51BB9282-3B82-4DF1-A67A-294D3E37D73A";
shapes = (
{
closed = 1;
nodes = (
(260,-6,o),
(295,21,o),
(311,62,c),
(323,18,o),
(358,-6,o),
(406,-6,cs),
(493,-6,o),
(533,95,o),
(533,168,cs),
(533,255,o),
(488,319,o),
(411,319,cs),
(324,319,o),
(225,253,o),
(190,215,c),
(221,239,l),
(224,248,o),
(270,282,o),
(284,293,cs),
(342,339,o),
(434,373,o),
(533,373,cs),
(664,373,o),
(709,343,o),
(743,318,c),
(770,362,l),
(731,393,o),
(669,436,o),
(545,436,cs),
(453,436,o),
(361,401,o),
(259,314,cs),
(116,192,o),
(41,115,o),
(23,96,c),
(19,75,o),
(40,62,o),
(45,61,c),
(51,96,o),
(168,175,o),
(207,199,cs),
(259,231,o),
(311,252,o),
(372,252,cs),
(445,252,o),
(501,222,o),
(501,158,cs),
(501,105,o),
(451,79,o),
(403,79,cs),
(359,79,o),
(332,117,o),
(332,168,cs),
(332,173,o),
(332,178,o),
(333,183,c),
(314,179,l),
(300,116,o),
(254,77,o),
(205,77,cs),
(153,77,o),
(142,121,o),
(99,121,cs),
(92,121,o),
(85,120,o),
(76,117,c),
(56,89,l),
(61,94,o),
(67,96,o),
(74,96,cs),
(86,96,o),
(99,89,o),
(106,79,cs),
(133,37,o),
(160,-6,o),
(215,-6,cs)
);
},
{
closed = 1;
nodes = (
(133,278,o),
(149,280,o),
(161,286,c),
(151,299,o),
(143,311,o),
(143,333,cs),
(143,386,o),
(172,422,o),
(208,422,cs),
(244,422,o),
(259,393,o),
(257,360,cs),
(257,329,o),
(245,306,o),
(230,290,c),
(253,298,l),
(269,314,o),
(305,355,o),
(305,395,cs),
(305,434,o),
(268,450,o),
(227,450,cs),
(146,450,o),
(73,395,o),
(73,324,cs),
(73,294,o),
(88,278,o),
(120,278,cs)
);
},
{
closed = 1;
nodes = (
(996,-16,o),
(1049,116,o),
(1049,247,cs),
(1049,439,o),
(921,577,o),
(709,577,cs),
(659,577,o),
(605,567,o),
(575,554,c),
(566,539,o),
(561,517,o),
(561,499,cs),
(561,491,o),
(562,484,o),
(564,479,c),
(584,489,o),
(637,505,o),
(704,505,cs),
(847,505,o),
(1003,453,o),
(1003,264,cs),
(1003,151,o),
(955,65,o),
(875,65,cs),
(843,65,o),
(792,79,o),
(792,149,c),
(793,158,l),
(774,154,l),
(756,108,o),
(727,69,o),
(658,69,cs),
(587,69,o),
(539,111,o),
(539,172,cs),
(539,242,o),
(603,311,o),
(691,311,cs),
(715,311,o),
(741,308,o),
(768,302,c),
(779,315,l),
(779,337,o),
(776,350,o),
(770,362,c),
(759,363,o),
(747,364,o),
(734,364,cs),
(615,364,o),
(501,319,o),
(501,152,cs),
(501,50,o),
(565,-15,o),
(653,-15,cs),
(739,-15,o),
(775,48,o),
(780,83,c),
(772,105,l),
(771,99,o),
(770,93,o),
(770,85,cs),
(770,29,o),
(819,-16,o),
(884,-16,cs)
);
},
{
closed = 1;
nodes = (
(1029,482,o),
(994,684,o),
(753,684,cs),
(672,684,o),
(600,652,o),
(600,652,c),
(587,628,o),
(583,602,o),
(582,592,c),
(604,607,o),
(634,615,o),
(661,620,c),
(689,650,l),
(655,640,o),
(604,578,o),
(604,526,c),
(632,511,l),
(632,565,o),
(703,633,o),
(737,638,c),
(666,621,l),
(666,621,o),
(680,630,o),
(742,630,cs),
(964,630,o),
(993,449,o),
(992,401,c),
(1029,339,l)
);
}
);
width = 1089;
}
);
},
{
glyphname = sinNyj.virama;
lastChange = "2024-04-01 07:38:10 +0000";
layers = (
{
layerId = "51BB9282-3B82-4DF1-A67A-294D3E37D73A";
shapes = (
{
closed = 1;
nodes = (
(462,281,l),
(462,556,l),
(470,537,o),
(491,518,o),
(522,518,cs),
(572,518,o),
(591,558,o),
(591,601,cs),
(591,702,o),
(472,734,o),
(446,739,c),
(435,729,l),
(428,281,l)
);
},
{
ref = sinNyja;
},
{
closed = 1;
nodes = (
(492,584,o),
(462,611,o),
(462,652,cs),
(462,674,l),
(497,670,o),
(558,657,o),
(558,615,cs),
(558,594,o),
(545,584,o),
(525,584,cs)
);
}
);
width = 751;
}
);
metricRight = "=sinNdja";
},
{
glyphname = sinTt.virama;
lastChange = "2024-04-01 07:38:10 +0000";
layers = (
{
layerId = "51BB9282-3B82-4DF1-A67A-294D3E37D73A";
shapes = (
{
closed = 1;
nodes = (
(547,499,o),
(485,725,o),
(267,725,cs),
(176,725,o),
(123,688,o),
(123,688,c),
(110,664,o),
(107,638,o),
(105,628,c),
(128,643,o),
(138,647,o),
(165,657,c),
(186,687,l),
(172,677,o),
(136,632,o),
(115,563,c),
(142,560,l),
(151,609,o),
(206,670,o),
(240,675,c),
(218,676,o),
(195,677,o),
(169,657,c),
(169,657,o),
(191,664,o),
(253,664,cs),
(484,664,o),
(511,466,o),
(510,418,c),
(547,356,l)
);
},
{
ref = sinTta;
}
);
width = 611;
}
);
metricLeft = sinTta;
metricRight = sinTta;
},
{
glyphname = sinDd.virama;
lastChange = "2024-04-01 07:38:10 +0000";
layers = (
{
layerId = "51BB9282-3B82-4DF1-A67A-294D3E37D73A";
shapes = (
{
closed = 1;
nodes = (
(629,513,o),
(594,719,o),
(333,719,cs),
(241,719,o),
(169,684,o),
(169,684,c),
(156,660,o),
(153,634,o),
(152,624,c),
(174,639,o),
(204,641,o),
(231,651,c),
(253,681,l),
(239,671,o),
(203,636,o),
(172,567,c),
(212,562,l),
(230,611,o),
(273,664,o),
(306,669,c),
(284,670,o),
(262,671,o),
(236,651,c),
(236,651,o),
(249,661,o),
(312,661,cs),
(594,661,o),
(593,480,o),
(591,432,c),
(629,370,l)
);
},
{
ref = sinDda;
}
);
userData = {
com.typemytype.robofont.guides = (
{
angle = 0;
isGlobal = 0;
x = 98;
y = 881;
}
);
};
width = 696;
}
);
},
{
glyphname = sinNndd.virama;
lastChange = "2024-04-01 07:38:10 +0000";
layers = (
{
layerId = "51BB9282-3B82-4DF1-A67A-294D3E37D73A";
shapes = (
{
closed = 1;
nodes = (
(145,-12,o),
(156,-8,o),
(160,-5,c),
(145,22,o),
(115,91,o),
(115,186,cs),
(115,301,o),
(176,385,o),
(279,385,c),
(384,429,l),
(370,432,o),
(362,435,o),
(317,435,cs),
(185,435,o),
(60,358,o),
(60,188,cs),
(60,101,o),
(100,19,o),
(126,-12,c)
);
},
{
pos = (131,0);
ref = sinDd.virama;
}
);
width = 820;
}
);
},
{
glyphname = sinDh.virama;
lastChange = "2024-04-01 07:38:10 +0000";
layers = (
{
layerId = "51BB9282-3B82-4DF1-A67A-294D3E37D73A";
shapes = (
{
closed = 1;
nodes = (
(539,-16,o),
(592,116,o),
(592,247,cs),
(592,439,o),
(464,577,o),
(252,577,cs),
(202,577,o),
(148,567,o),
(118,554,c),
(109,539,o),
(104,517,o),
(104,499,cs),
(104,491,o),
(105,484,o),
(107,479,c),
(127,489,o),
(180,505,o),
(247,505,cs),
(390,505,o),
(546,453,o),
(546,264,cs),
(546,151,o),
(498,65,o),
(418,65,cs),
(386,65,o),
(335,79,o),
(335,149,c),
(336,158,l),
(317,154,l),
(299,108,o),
(270,69,o),
(201,69,cs),
(130,69,o),
(82,111,o),
(82,172,cs),
(82,242,o),
(147,291,o),
(245,291,cs),
(269,291,o),
(295,288,o),
(322,282,c),
(333,295,l),
(331,317,o),
(323,343,o),
(313,362,c),
(302,363,o),
(290,364,o),
(277,364,cs),
(158,364,o),
(44,289,o),
(44,152,cs),
(44,50,o),
(108,-15,o),
(196,-15,cs),
(282,-15,o),
(318,48,o),
(323,83,c),
(315,105,l),
(314,99,o),
(313,93,o),
(313,85,cs),
(313,29,o),
(362,-16,o),
(427,-16,cs)
);
},
{
closed = 1;
nodes = (
(572,482,o),
(537,684,o),
(296,684,cs),
(215,684,o),
(143,652,o),
(143,652,c),
(130,628,o),
(126,602,o),
(125,592,c),
(147,607,o),
(177,615,o),
(204,620,c),
(232,650,l),
(198,640,o),
(147,578,o),
(147,526,c),
(175,511,l),
(175,565,o),
(246,633,o),
(280,638,c),
(209,621,l),
(209,621,o),
(223,630,o),
(285,630,cs),
(507,630,o),
(536,449,o),
(535,401,c),
(572,339,l)
);
}
);
userData = {
com.typemytype.robofont.layerData = {
background = {
anchors = (
);
components = (
);
contours = (
{
points = (
{
segmentType = move;
smooth = 0;
x = 725;
y = 373;
},
{
smooth = 0;
x = 724;
y = 588;
},
{
smooth = 0;
x = 543;
y = 666;
},
{
segmentType = curve;
smooth = 1;
x = 382;
y = 666;
},
{
smooth = 0;
x = 227;
y = 666;
},
{
smooth = 0;
x = 146;
y = 596;
},
{
segmentType = curve;
smooth = 0;
x = 144;
y = 596;
},
{
smooth = 0;
x = 142;
y = 599;
},
{
smooth = 0;
x = 145;
y = 606;
},
{
segmentType = curve;
smooth = 1;
x = 145;
y = 616;
},
{
smooth = 0;
x = 145;
y = 637;
},
{
smooth = 0;
x = 169;
y = 675;
},
{
segmentType = curve;
smooth = 0;
x = 180;
y = 698;
},
{
smooth = 0;
x = 225;
y = 729;
},
{
smooth = 0;
x = 289;
y = 750;
},
{
segmentType = curve;
smooth = 1;
x = 382;
y = 750;
},
{
smooth = 0;
x = 613;
y = 750;
},
{
smooth = 0;
x = 785;
y = 586;
},
{
segmentType = curve;
smooth = 1;
x = 787;
y = 358;
}
);
}
);
lib = {
};
name = sinDh.virama;
unicodes = (
);
width = 852;
};
};
};
width = 636;
}
);
metricLeft = sinDha;
metricRight = sinDha;
},
{
glyphname = sinB.virama;
lastChange = "2024-04-01 07:38:10 +0000";
layers = (
{
layerId = "51BB9282-3B82-4DF1-A67A-294D3E37D73A";
shapes = (
{
closed = 1;
nodes = (
(608,509,o),
(553,735,o),
(312,735,cs),
(221,735,o),
(149,699,o),
(149,699,c),
(136,675,o),
(132,649,o),
(131,639,c),
(153,654,o),
(183,662,o),
(210,667,c),
(238,697,l),
(204,687,o),
(153,625,o),
(153,573,c),
(181,558,l),
(181,612,o),
(252,680,o),
(286,685,c),
(215,668,l),
(215,668,o),
(229,677,o),
(291,677,cs),
(533,677,o),
(572,476,o),
(571,428,c),
(608,366,l)
);
},
{
ref = sinBa;
}
);
width = 679;
}
);
},
{
glyphname = sinM.virama;
lastChange = "2024-04-01 07:38:10 +0000";
layers = (
{
anchors = (
{
name = rakaransaya;
pos = (610,273);
}
);
layerId = "51BB9282-3B82-4DF1-A67A-294D3E37D73A";
shapes = (
{
closed = 1;
nodes = (
(604,513,o),
(549,729,o),
(308,729,cs),
(217,729,o),
(145,693,o),
(145,693,c),
(132,669,o),
(128,643,o),
(127,633,c),
(149,648,o),
(179,656,o),
(206,661,c),
(234,691,l),
(200,681,o),
(149,619,o),
(149,567,c),
(177,552,l),
(177,606,o),
(248,674,o),
(282,679,c),
(211,662,l),
(211,662,o),
(225,671,o),
(287,671,cs),
(529,671,o),
(568,480,o),
(567,432,c),
(604,370,l)
);
},
{
ref = sinMa;
},
{
closed = 1;
nodes = (
(604,513,o),
(549,729,o),
(308,729,cs),
(217,729,o),
(145,693,o),
(145,693,c),
(132,669,o),
(128,643,o),
(127,633,c),
(149,648,o),
(179,656,o),
(206,661,c),
(234,691,l),
(200,681,o),
(149,619,o),
(149,567,c),
(177,552,l),
(177,606,o),
(248,674,o),
(282,679,c),
(211,662,l),
(211,662,o),
(225,671,o),
(287,671,cs),
(529,671,o),
(568,480,o),
(567,432,c),
(604,370,l)
);
}
);
width = 646;
}
);
},
{
glyphname = sinMb.virama;
lastChange = "2024-04-01 07:38:10 +0000";
layers = (
{
layerId = "51BB9282-3B82-4DF1-A67A-294D3E37D73A";
shapes = (
{
closed = 1;
nodes = (
(654,513,o),
(629,729,o),
(308,729,cs),
(217,729,o),
(145,693,o),
(145,693,c),
(132,669,o),
(128,643,o),
(127,633,c),
(149,647,o),
(179,655,o),
(206,661,c),
(234,691,l),
(200,681,o),
(149,619,o),
(149,567,c),
(177,552,l),
(177,606,o),
(248,674,o),
(282,679,c),
(211,662,l),
(211,662,o),
(257,675,o),
(319,675,cs),
(611,675,o),
(618,480,o),
(617,432,c),
(654,370,l)
);
},
{
ref = sinMba;
}
);
width = 716;
}
);
},
{
glyphname = sinY.virama;
lastChange = "2024-04-01 07:38:10 +0000";
layers = (
{
anchors = (
{
name = _Virama;
pos = (548,395);
}
);
layerId = "51BB9282-3B82-4DF1-A67A-294D3E37D73A";
shapes = (
{
closed = 1;
nodes = (
(549,426,l),
(545,531,l),
(553,512,o),
(578,489,o),
(612,489,cs),
(656,489,o),
(674,523,o),
(674,566,cs),
(674,672,o),
(555,704,o),
(529,709,c),
(513,699,l),
(510,426,l)
);
},
{
ref = sinYa;
},
{
closed = 1;
nodes = (
(575,551,o),
(545,576,o),
(545,617,cs),
(545,639,l),
(580,635,o),
(640,620,o),
(640,578,cs),
(640,557,o),
(625,551,o),
(608,551,cs)
);
}
);
width = 708;
}
);
metricRight = sinYa;
},
{
glyphname = sinR.virama;
lastChange = "2024-04-01 07:38:10 +0000";
layers = (
{
layerId = "51BB9282-3B82-4DF1-A67A-294D3E37D73A";
shapes = (
{
closed = 1;
nodes = (
(92,278,l),
(88,563,l),
(96,544,o),
(121,521,o),
(155,521,cs),
(199,521,o),
(217,555,o),
(217,598,cs),
(217,704,o),
(98,736,o),
(72,741,c),
(56,731,l),
(53,278,l)
);
},
{
ref = sinRa;
},
{
closed = 1;
nodes = (
(118,583,o),
(88,608,o),
(88,649,cs),
(88,671,l),
(123,667,o),
(183,652,o),
(183,610,cs),
(183,589,o),
(168,583,o),
(151,583,cs)
);
}
);
width = 535;
}
);
},
{
glyphname = sinV.virama;
lastChange = "2024-04-01 07:38:10 +0000";
layers = (
{
layerId = "51BB9282-3B82-4DF1-A67A-294D3E37D73A";
shapes = (
{
closed = 1;
nodes = (
(548,473,o),
(544,739,o),
(273,739,cs),
(201,739,o),
(129,703,o),
(129,703,c),
(116,679,o),
(112,653,o),
(111,643,c),
(133,658,o),
(163,666,o),
(190,671,c),
(218,701,l),
(184,691,o),
(143,629,o),
(143,577,c),
(171,562,l),
(171,616,o),
(232,684,o),
(266,689,c),
(195,672,l),
(195,672,o),
(209,681,o),
(271,681,cs),
(523,681,o),
(512,440,o),
(511,392,c),
(548,330,l)
);
},
{
ref = sinVa;
}
);
width = 601;
}
);
},
{
glyphname = sinPf.virama;
lastChange = "2024-04-01 07:38:10 +0000";
layers = (
{
anchors = (
{
name = _si_MaU;
pos = (551,196);
},
{
name = rakar;
pos = (556,165);
}
);
layerId = "51BB9282-3B82-4DF1-A67A-294D3E37D73A";
shapes = (
{
closed = 1;
nodes = (
(498,-20,o),
(615,70,o),
(615,193,cs),
(615,283,o),
(504,330,o),
(423,330,cs),
(384,330,o),
(387,322,o),
(364,311,c),
(433,287,l),
(425,298,o),
(409,314,o),
(409,353,cs),
(409,401,o),
(450,416,o),
(478,416,cs),
(521,416,o),
(557,392,o),
(557,355,cs),
(557,319,o),
(487,306,o),
(482,299,c),
(493,283,l),
(519,293,o),
(604,319,o),
(604,374,cs),
(604,417,o),
(567,463,o),
(500,463,cs),
(412,463,o),
(367,397,o),
(367,300,cs),
(367,288,o),
(368,276,o),
(369,264,c),
(379,256,l),
(412,270,o),
(446,276,o),
(481,276,cs),
(535,276,o),
(578,259,o),
(578,204,cs),
(578,127,o),
(484,70,o),
(320,70,cs),
(154,70,o),
(64,116,o),
(64,179,cs),
(64,239,o),
(121,268,o),
(207,268,cs),
(226,268,o),
(247,266,o),
(269,263,c),
(280,275,l),
(284,292,o),
(286,312,o),
(286,332,cs),
(286,394,o),
(261,461,o),
(168,461,cs),
(107,461,o),
(69,427,o),
(69,390,cs),
(69,353,o),
(96,340,o),
(122,338,c),
(130,369,o),
(160,411,o),
(203,411,cs),
(236,411,o),
(251,386,o),
(251,363,cs),
(251,325,o),
(230,303,o),
(220,294,c),
(257,323,l),
(246,325,o),
(234,326,o),
(223,326,cs),
(127,326,o),
(30,271,o),
(30,169,cs),
(30,78,o),
(101,-20,o),
(315,-20,cs)
);
},
{
closed = 1;
nodes = (
(348,178,l),
(496,192,l),
(486,223,l),
(436,221,o),
(395,220,o),
(353,220,cs),
(311,220,o),
(238,221,o),
(183,223,c),
(191,190,l),
(238,190,o),
(315,180,o),
(315,129,c)
);
},
{
closed = 1;
nodes = (
(476,-105,l),
(468,-79,l),
(417,-79,o),
(362,-71,o),
(360,-52,cs),
(348,41,o),
(350,131,o),
(350,192,cs),
(350,262,o),
(349,365,o),
(352,417,cs),
(356,495,o),
(408,543,o),
(447,543,cs),
(460,543,o),
(473,542,o),
(485,540,c),
(482,588,l),
(398,579,o),
(303,514,o),
(303,400,cs),
(305,239,o),
(305,70,o),
(305,-50,c),
(305,-50,o),
(302,-73,o),
(219,-73,c),
(225,-105,l)
);
},
{
pos = (492,55);
ref = sinVirama;
}
);
width = 655;
}
);
},
{
glyphname = sinKV.virama;
lastChange = "2024-04-01 07:38:10 +0000";
layers = (
{
layerId = "51BB9282-3B82-4DF1-A67A-294D3E37D73A";
shapes = (
{
closed = 1;
nodes = (
(259,-6,o),
(295,21,o),
(309,62,c),
(321,18,o),
(357,-6,o),
(401,-6,cs),
(493,-6,o),
(532,97,o),
(532,170,cs),
(532,256,o),
(485,319,o),
(409,319,cs),
(323,319,o),
(224,253,o),
(188,215,c),
(220,239,l),
(222,248,o),
(269,282,o),
(282,293,cs),
(325,329,o),
(433,379,o),
(527,379,cs),
(557,379,o),
(585,374,o),
(609,362,c),
(689,419,l),
(647,432,o),
(606,438,o),
(566,438,cs),
(442,438,o),
(335,380,o),
(257,314,cs),
(113,192,o),
(40,115,o),
(21,96,c),
(18,76,o),
(39,63,o),
(43,61,c),
(50,96,o),
(147,173,o),
(185,197,cs),
(237,230,o),
(309,252,o),
(371,252,cs),
(442,252,o),
(499,223,o),
(499,160,cs),
(499,107,o),
(451,79,o),
(401,79,cs),
(358,79,o),
(330,117,o),
(330,168,cs),
(330,173,o),
(330,178,o),
(331,183,c),
(312,179,l),
(298,116,o),
(252,77,o),
(204,77,cs),
(151,77,o),
(140,121,o),
(97,121,cs),
(90,121,o),
(83,120,o),
(74,117,c),
(55,89,l),
(60,94,o),
(66,96,o),
(73,96,cs),
(85,96,o),
(97,89,o),
(104,79,cs),
(132,37,o),
(158,-6,o),
(216,-6,cs)
);
},
{
closed = 1;
nodes = (
(131,278,o),
(147,280,o),
(160,287,c),
(150,299,o),
(141,313,o),
(141,336,cs),
(141,387,o),
(172,422,o),
(207,422,cs),
(241,422,o),
(256,396,o),
(256,363,cs),
(256,331,o),
(244,307,o),
(229,290,c),
(251,298,l),
(267,314,o),
(304,356,o),
(304,397,cs),
(304,435,o),
(266,450,o),
(225,450,cs),
(146,450,o),
(71,397,o),
(71,327,cs),
(71,296,o),
(86,278,o),
(119,278,cs)
);
},
{
pos = (464,0);
ref = sinV.virama;
}
);
width = 1083;
}
);
metricLeft = sinKa;
},
{
glyphname = sinTV.virama;
lastChange = "2024-04-01 07:38:10 +0000";
layers = (
{
layerId = "51BB9282-3B82-4DF1-A67A-294D3E37D73A";
shapes = (
{
closed = 1;
nodes = (
(479,-12,o),
(553,110,o),
(553,196,cs),
(553,269,o),
(502,307,o),
(434,307,cs),
(388,307,o),
(342,290,o),
(319,276,cs),
(303,266,o),
(283,256,o),
(264,239,c),
(273,249,o),
(296,270,o),
(309,280,cs),
(371,323,o),
(441,368,o),
(553,368,cs),
(579,368,o),
(604,367,o),
(625,362,c),
(705,419,l),
(668,433,o),
(627,440,o),
(590,440,cs),
(483,440,o),
(376,389,o),
(299,316,cs),
(236,256,o),
(149,154,o),
(90,79,c),
(86,58,o),
(115,44,o),
(116,42,c),
(135,96,o),
(173,138,o),
(213,174,cs),
(263,219,o),
(323,246,o),
(413,246,cs),
(474,246,o),
(523,227,o),
(523,182,cs),
(523,136,o),
(468,65,o),
(343,65,cs),
(235,65,o),
(210,111,o),
(165,111,cs),
(150,111,o),
(128,105,o),
(115,92,c),
(119,49,ls),
(118,59,o),
(129,85,o),
(156,85,cs),
(181,85,o),
(207,-12,o),
(329,-12,cs)
);
},
{
closed = 1;
nodes = (
(263,271,l),
(281,289,o),
(324,350,o),
(324,392,cs),
(324,430,o),
(288,447,o),
(243,447,cs),
(167,447,o),
(92,393,o),
(92,323,cs),
(92,293,o),
(106,275,o),
(139,275,cs),
(155,275,o),
(172,279,o),
(180,283,c),
(174,290,o),
(160,316,o),
(162,344,cs),
(163,379,o),
(185,411,o),
(221,411,cs),
(259,411,o),
(273,389,o),
(273,357,cs),
(273,326,o),
(259,274,o),
(240,253,c)
);
},
{
pos = (485,0);
ref = sinV.virama;
}
);
width = 1086;
}
);
},
{
glyphname = sinTTh.virama;
lastChange = "2024-04-01 07:38:10 +0000";
layers = (
{
layerId = "51BB9282-3B82-4DF1-A67A-294D3E37D73A";
shapes = (
{
closed = 1;
nodes = (
(892,-18,o),
(1000,112,o),
(1000,277,cs),
(1000,491,o),
(818,630,o),
(662,630,c),
(639,566,l),
(797,566,o),
(954,450,o),
(954,291,cs),
(954,174,o),
(869,69,o),
(713,69,cs),
(610,69,o),
(528,115,o),
(528,193,cs),
(528,259,o),
(588,315,o),
(688,315,cs),
(691,315,o),
(690,315,o),
(705,313,c),
(715,328,l),
(712,347,o),
(705,365,o),
(694,380,c),
(597,381,o),
(488,293,o),
(488,169,cs),
(488,46,o),
(595,-18,o),
(717,-18,cs)
);
},
{
closed = 1;
nodes = (
(228,276,l),
(246,294,o),
(289,355,o),
(289,397,cs),
(289,435,o),
(253,452,o),
(208,452,cs),
(132,452,o),
(57,398,o),
(57,329,cs),
(57,299,o),
(71,280,o),
(104,280,cs),
(120,280,o),
(137,284,o),
(145,289,c),
(139,296,o),
(125,321,o),
(127,350,cs),
(128,384,o),
(150,417,o),
(186,417,cs),
(224,417,o),
(238,395,o),
(238,363,cs),
(238,330,o),
(224,280,o),
(205,258,c)
);
},
{
closed = 1;
nodes = (
(444,-7,o),
(518,116,o),
(518,201,cs),
(518,275,o),
(467,313,o),
(399,313,cs),
(353,313,o),
(307,296,o),
(284,281,cs),
(268,271,o),
(248,261,o),
(229,245,c),
(238,255,o),
(261,276,o),
(274,285,cs),
(337,328,o),
(396,353,o),
(508,353,cs),
(545,353,o),
(594,343,o),
(626,329,c),
(694,380,l),
(651,403,o),
(601,418,o),
(535,418,cs),
(448,418,o),
(341,394,o),
(264,322,cs),
(200,262,o),
(114,159,o),
(55,85,c),
(51,63,o),
(80,49,o),
(81,48,c),
(100,102,o),
(138,143,o),
(178,179,cs),
(228,224,o),
(288,252,o),
(378,252,cs),
(439,252,o),
(488,233,o),
(488,188,cs),
(488,140,o),
(432,70,o),
(304,70,cs),
(200,70,o),
(174,116,o),
(130,116,cs),
(115,116,o),
(93,111,o),
(80,97,c),
(84,54,ls),
(83,65,o),
(94,91,o),
(121,91,cs),
(146,91,o),
(172,-7,o),
(294,-7,cs)
);
},
{
closed = 1;
nodes = (
(841,417,o),
(899,434,o),
(923,455,c),
(915,476,l),
(894,467,o),
(861,461,o),
(825,461,cs),
(708,461,o),
(662,516,o),
(662,630,c),
(631,614,l),
(629,605,o),
(626,586,o),
(626,564,cs),
(626,470,o),
(679,417,o),
(782,417,cs)
);
},
{
pos = (972,20);
ref = sinVirama;
}
);
width = 1057;
}
);
},
{
glyphname = sinNDh.virama;
lastChange = "2024-04-01 07:38:10 +0000";
layers = (
{
layerId = "51BB9282-3B82-4DF1-A67A-294D3E37D73A";
shapes = (
{
closed = 1;
nodes = (
(404,-15,o),
(497,69,o),
(495,201,cs),
(495,265,o),
(458,303,o),
(398,303,cs),
(345,303,o),
(280,259,o),
(223,213,c),
(219,197,l),
(222,203,o),
(267,256,o),
(281,270,cs),
(330,314,o),
(424,363,o),
(521,363,cs),
(567,363,o),
(614,352,o),
(657,325,c),
(732,361,l),
(679,402,o),
(617,419,o),
(555,419,cs),
(442,419,o),
(330,363,o),
(267,295,cs),
(220,244,o),
(147,131,o),
(100,131,cs),
(83,131,o),
(76,140,o),
(76,155,cs),
(76,159,o),
(77,164,o),
(78,169,c),
(76,170,o),
(69,171,o),
(63,171,cs),
(55,171,o),
(46,170,o),
(41,168,c),
(50,83,o),
(121,-15,o),
(257,-15,cs)
);
},
{
closed = 1;
nodes = (
(177,66,o),
(120,78,o),
(92,115,c),
(89,103,l),
(183,104,o),
(214,240,o),
(371,240,cs),
(431,240,o),
(467,223,o),
(467,187,cs),
(467,106,o),
(358,66,o),
(261,66,cs)
);
},
{
closed = 1;
nodes = (
(245,248,o),
(290,317,o),
(290,355,cs),
(290,392,o),
(253,411,o),
(212,411,cs),
(134,411,o),
(57,361,o),
(57,285,cs),
(57,257,o),
(74,240,o),
(108,240,cs),
(121,240,o),
(138,243,o),
(148,248,c),
(141,257,o),
(133,277,o),
(133,304,cs),
(133,342,o),
(158,377,o),
(194,377,cs),
(222,377,o),
(244,354,o),
(244,321,cs),
(244,318,o),
(243,315,o),
(243,311,cs),
(239,281,o),
(228,252,o),
(216,236,c),
(224,229,l)
);
},
{
pos = (433,0);
ref = sinDh.virama;
}
);
width = 1089;
}
);
},
{
glyphname = sinNV.virama;
lastChange = "2024-04-01 07:38:10 +0000";
layers = (
{
layerId = "51BB9282-3B82-4DF1-A67A-294D3E37D73A";
shapes = (
{
closed = 1;
nodes = (
(413,-29,o),
(506,54,o),
(504,186,cs),
(504,250,o),
(467,289,o),
(407,289,cs),
(354,289,o),
(289,244,o),
(232,199,c),
(228,182,l),
(231,188,o),
(276,242,o),
(290,255,cs),
(348,307,o),
(458,370,o),
(555,370,c),
(591,434,l),
(472,434,o),
(343,354,o),
(276,280,cs),
(229,229,o),
(156,116,o),
(109,116,cs),
(92,116,o),
(85,125,o),
(85,140,cs),
(85,145,o),
(86,150,o),
(87,155,c),
(85,156,o),
(79,157,o),
(72,157,cs),
(64,157,o),
(55,156,o),
(50,153,c),
(59,69,o),
(130,-29,o),
(266,-29,cs)
);
},
{
closed = 1;
nodes = (
(186,52,o),
(129,63,o),
(101,100,c),
(98,89,l),
(192,89,o),
(223,226,o),
(380,226,cs),
(440,226,o),
(476,208,o),
(476,172,cs),
(476,92,o),
(367,52,o),
(270,52,cs)
);
},
{
closed = 1;
nodes = (
(293,280,o),
(338,348,o),
(338,387,cs),
(338,424,o),
(311,443,o),
(260,443,cs),
(182,443,o),
(105,393,o),
(105,316,cs),
(105,288,o),
(122,271,o),
(156,271,cs),
(169,271,o),
(186,274,o),
(196,280,c),
(189,289,o),
(181,308,o),
(181,336,cs),
(181,373,o),
(206,408,o),
(242,408,cs),
(270,408,o),
(292,385,o),
(292,353,cs),
(291,343,ls),
(288,313,o),
(276,283,o),
(264,267,c),
(272,260,l)
);
},
{
pos = (437,0);
ref = sinV.virama;
}
);
width = 1041;
}
);
metricRight = sinVa;
},
{
glyphname = sinNTh.virama;
lastChange = "2024-04-01 07:38:10 +0000";
layers = (
{
layerId = "51BB9282-3B82-4DF1-A67A-294D3E37D73A";
shapes = (
{
closed = 1;
nodes = (
(380,-15,o),
(473,69,o),
(471,201,cs),
(471,265,o),
(434,303,o),
(374,303,cs),
(321,303,o),
(256,259,o),
(199,213,c),
(195,197,l),
(198,203,o),
(263,256,o),
(277,270,cs),
(329,316,o),
(361,395,o),
(491,395,cs),
(559,395,o),
(594,367,o),
(612,313,c),
(650,380,l),
(612,428,o),
(570,460,o),
(496,460,cs),
(382,460,o),
(309,366,o),
(243,295,cs),
(196,244,o),
(123,131,o),
(76,131,cs),
(59,131,o),
(52,140,o),
(52,155,cs),
(52,159,o),
(53,164,o),
(54,169,c),
(52,170,o),
(45,171,o),
(39,171,cs),
(31,171,o),
(22,170,o),
(17,168,c),
(26,83,o),
(97,-15,o),
(233,-15,cs)
);
},
{
closed = 1;
nodes = (
(153,66,o),
(96,78,o),
(68,115,c),
(65,103,l),
(159,104,o),
(190,240,o),
(347,240,cs),
(407,240,o),
(443,223,o),
(443,187,cs),
(443,106,o),
(334,66,o),
(237,66,cs)
);
},
{
closed = 1;
nodes = (
(260,294,o),
(305,363,o),
(305,401,cs),
(305,438,o),
(278,457,o),
(227,457,cs),
(149,457,o),
(72,407,o),
(72,331,cs),
(72,303,o),
(89,286,o),
(123,286,cs),
(136,286,o),
(153,289,o),
(163,294,c),
(156,303,o),
(148,323,o),
(148,350,cs),
(148,388,o),
(173,423,o),
(209,423,cs),
(237,423,o),
(259,400,o),
(259,367,cs),
(259,364,o),
(258,361,o),
(258,357,cs),
(254,327,o),
(243,298,o),
(231,282,c),
(239,275,l)
);
},
{
pos = (404,0);
ref = sinTh.virama;
}
);
width = 1056;
}
);
},
{
glyphname = sinDV.virama;
lastChange = "2024-04-01 07:38:10 +0000";
layers = (
{
layerId = "51BB9282-3B82-4DF1-A67A-294D3E37D73A";
shapes = (
{
closed = 1;
nodes = (
(121,49,o),
(137,51,o),
(144,56,c),
(133,81,o),
(103,154,o),
(103,207,cs),
(103,300,o),
(141,391,o),
(267,398,c),
(304,437,l),
(140,437,o),
(50,334,o),
(50,223,cs),
(50,133,o),
(90,81,o),
(110,49,c)
);
},
{
pos = (134,0);
ref = sinV.virama;
}
);
width = 738;
}
);
metricRight = sinVa;
},
{
glyphname = sinDDh.virama;
lastChange = "2024-04-01 07:38:10 +0000";
layers = (
{
layerId = "51BB9282-3B82-4DF1-A67A-294D3E37D73A";
shapes = (
{
closed = 1;
nodes = (
(729,513,o),
(694,719,o),
(433,719,cs),
(341,719,o),
(269,684,o),
(269,684,c),
(256,660,o),
(253,634,o),
(252,624,c),
(274,639,o),
(304,641,o),
(331,651,c),
(353,681,l),
(339,671,o),
(303,636,o),
(272,567,c),
(312,562,l),
(330,611,o),
(373,664,o),
(406,669,c),
(384,670,o),
(362,671,o),
(336,651,c),
(336,651,o),
(349,661,o),
(412,661,cs),
(694,661,o),
(693,480,o),
(691,432,c),
(729,370,l)
);
},
{
ref = sinDDha;
}
);
width = 803;
}
);
metricRight = sinDha;
},
{
glyphname = sinKhI;
lastChange = "2024-04-01 07:38:10 +0000";
layers = (
{
layerId = "51BB9282-3B82-4DF1-A67A-294D3E37D73A";
shapes = (
{
closed = 1;
nodes = (
(559,-9,o),
(613,89,o),
(613,260,cs),
(613,404,o),
(506,515,o),
(370,515,cs),
(289,515,o),
(227,501,o),
(171,501,cs),
(143,501,o),
(124,508,o),
(124,536,cs),
(124,570,o),
(169,612,o),
(329,612,cs),
(431,612,o),
(519,594,o),
(519,546,cs),
(519,517,o),
(482,498,o),
(445,498,cs),
(436,498,o),
(428,499,o),
(420,501,c),
(450,451,l),
(454,450,o),
(457,450,o),
(461,450,cs),
(504,450,o),
(549,492,o),
(549,548,cs),
(549,621,o),
(479,685,o),
(334,685,cs),
(193,685,o),
(91,634,o),
(91,515,cs),
(91,474,o),
(112,441,o),
(175,441,cs),
(226,441,o),
(284,449,o),
(372,449,cs),
(490,449,o),
(575,375,o),
(575,269,cs),
(575,163,o),
(528,65,o),
(430,65,cs),
(413,65,o),
(369,72,o),
(360,76,c),
(338,53,l),
(352,36,o),
(381,-9,o),
(437,-9,cs)
);
},
{
closed = 1;
nodes = (
(351,-9,o),
(423,129,o),
(423,219,cs),
(423,309,o),
(364,385,o),
(260,385,cs),
(142,385,o),
(54,291,o),
(54,158,cs),
(54,78,o),
(88,-14,o),
(184,-14,cs),
(251,-14,o),
(287,31,o),
(287,88,cs),
(287,142,o),
(251,173,o),
(209,173,cs),
(160,173,o),
(133,137,o),
(133,98,cs),
(133,74,o),
(142,56,o),
(152,40,c),
(187,22,l),
(172,38,o),
(169,49,o),
(169,63,cs),
(169,109,o),
(199,119,o),
(218,119,cs),
(237,119,o),
(257,107,o),
(257,84,cs),
(257,51,o),
(219,38,o),
(192,38,cs),
(153,38,o),
(91,78,o),
(91,177,cs),
(91,267,o),
(160,314,o),
(244,314,cs),
(304,314,o),
(377,288,o),
(377,201,cs),
(377,135,o),
(325,42,o),
(282,-14,c),
(291,-29,o),
(313,-43,o),
(324,-44,c)
);
}
);
width = 653;
}
);
},
{
glyphname = sinGI;
lastChange = "2024-04-01 07:38:10 +0000";
layers = (
{
layerId = "51BB9282-3B82-4DF1-A67A-294D3E37D73A";
shapes = (
{
closed = 1;
nodes = (
(638,-3,o),
(713,117,o),
(713,248,cs),
(713,371,o),
(628,454,o),
(519,454,cs),
(378,454,o),
(293,333,o),
(288,170,c),
(293,169,o),
(297,169,o),
(302,169,cs),
(309,169,o),
(316,169,o),
(324,170,c),
(322,177,o),
(321,190,o),
(321,197,cs),
(321,305,o),
(382,366,o),
(498,366,cs),
(576,366,o),
(670,323,o),
(671,226,cs),
(671,132,o),
(612,76,o),
(513,76,cs),
(497,76,o),
(475,78,o),
(458,82,c),
(448,76,l),
(448,59,o),
(468,11,o),
(487,-6,c)
);
},
{
closed = 1;
nodes = (
(372,-9,o),
(439,79,o),
(439,173,cs),
(439,247,o),
(388,302,o),
(323,301,c),
(319,249,l),
(349,248,o),
(405,230,o),
(405,180,cs),
(405,113,o),
(320,80,o),
(252,80,cs),
(155,80,o),
(80,130,o),
(80,215,cs),
(80,297,o),
(142,336,o),
(251,336,c),
(256,343,o),
(261,388,o),
(261,412,cs),
(261,418,o),
(261,424,o),
(260,427,c),
(154,426,o),
(44,357,o),
(44,194,cs),
(44,71,o),
(124,-9,o),
(248,-9,cs)
);
},
{
pos = (248,-9);
ref = sinMatraI.alt2;
}
);
userData = {
com.typemytype.robofont.layerData = {
Light = {
anchors = (
);
components = (
);
contours = (
{
points = (
{
segmentType = curve;
smooth = 0;
x = 379.853;
y = 221;
},
{
smooth = 0;
x = 387.099;
y = 431.052;
},
{
smooth = 0;
x = 502.318;
y = 588.376;
},
{
segmentType = curve;
smooth = 1;
x = 684.086;
y = 590;
},
{
smooth = 0;
x = 828.813;
y = 591.293;
},
{
smooth = 0;
x = 934.32;
y = 481.852;
},
{
segmentType = curve;
smooth = 1;
x = 932.836;
y = 320;
},
{
smooth = 0;
x = 931.266;
y = 148.69;
},
{
smooth = 0;
x = 837.397;
y = -7;
},
{
segmentType = curve;
smooth = 0;
x = 651.065;
y = -10;
},
{
smooth = 0;
x = 615.222;
y = 15.291;
},
{
smooth = 0;
x = 592.61;
y = 63.658;
},
{
segmentType = curve;
smooth = 1;
x = 593.83;
y = 87;
},
{
smooth = 0;
x = 593.935;
y = 89;
},
{
smooth = 0;
x = 606.145;
y = 93;
},
{
segmentType = curve;
smooth = 0;
x = 606.249;
y = 95;
},
{
smooth = 0;
x = 752.687;
y = 56.604;
},
{
smooth = 0;
x = 874.277;
y = 148.957;
},
{
segmentType = curve;
smooth = 1;
x = 873.739;
y = 294;
},
{
smooth = 0;
x = 873.274;
y = 419.159;
},
{
smooth = 0;
x = 742.474;
y = 475;
},
{
segmentType = curve;
smooth = 1;
x = 652.584;
y = 475;
},
{
smooth = 0;
x = 493.492;
y = 475;
},
{
smooth = 0;
x = 416.941;
y = 376.358;
},
{
segmentType = curve;
smooth = 0;
x = 426.853;
y = 221;
},
{
smooth = 0;
x = 410.234;
y = 219;
},
{
smooth = 0;
x = 394.938;
y = 218;
}
);
},
{
points = (
{
segmentType = curve;
smooth = 1;
x = 64;
y = 243;
},
{
smooth = 0;
x = 74.685;
y = 447;
},
{
smooth = 0;
x = 246.967;
y = 579;
},
{
segmentType = curve;
smooth = 0;
x = 367.086;
y = 581;
},
{
smooth = 0;
x = 373.091;
y = 557.989;
},
{
smooth = 0;
x = 362.841;
y = 482.9;
},
{
segmentType = curve;
smooth = 0;
x = 356.369;
y = 472;
},
{
smooth = 0;
x = 237.226;
y = 472;
},
{
smooth = 0;
x = 129.333;
y = 390.92;
},
{
segmentType = curve;
smooth = 1;
x = 114.896;
y = 283;
},
{
smooth = 0;
x = 100.34;
y = 174.182;
},
{
smooth = 0;
x = 182.378;
y = 103.312;
},
{
segmentType = curve;
smooth = 1;
x = 310.568;
y = 102;
},
{
smooth = 0;
x = 401.305;
y = 101.071;
},
{
smooth = 0;
x = 518.809;
y = 131.218;
},
{
segmentType = curve;
smooth = 1;
x = 525.8;
y = 213;
},
{
smooth = 0;
x = 531.935;
y = 284.772;
},
{
smooth = 0;
x = 456.759;
y = 321.863;
},
{
segmentType = curve;
smooth = 0;
x = 421.412;
y = 323;
},
{
segmentType = line;
smooth = 0;
x = 432.29;
y = 375;
},
{
smooth = 0;
x = 520.248;
y = 375.938;
},
{
smooth = 0;
x = 580.684;
y = 304.072;
},
{
segmentType = curve;
smooth = 1;
x = 576.853;
y = 214;
},
{
smooth = 0;
x = 572.562;
y = 99.984;
},
{
smooth = 0;
x = 476.431;
y = -9;
},
{
segmentType = curve;
smooth = 1;
x = 328.484;
y = -12;
},
{
smooth = 0;
x = 137.065;
y = -15.882;
},
{
smooth = 0;
x = 55.877;
y = 87.874;
}
);
},
{
points = (
{
segmentType = curve;
smooth = 1;
x = 400;
y = 644;
},
{
smooth = 0;
x = 400.811;
y = 760.346;
},
{
smooth = 0;
x = 529.003;
y = 869.495;
},
{
segmentType = curve;
smooth = 1;
x = 710;
y = 871;
},
{
smooth = 0;
x = 829;
y = 871.989;
},
{
smooth = 0;
x = 933;
y = 819;
},
{
segmentType = curve;
smooth = 1;
x = 931;
y = 696;
},
{
smooth = 0;
x = 929.927;
y = 629.979;
},
{
smooth = 0;
x = 850;
y = 515;
},
{
segmentType = curve;
smooth = 0;
x = 755;
y = 541;
},
{
segmentType = line;
smooth = 0;
x = 715;
y = 586;
},
{
smooth = 0;
x = 799;
y = 557;
},
{
smooth = 0;
x = 862.885;
y = 613.995;
},
{
segmentType = curve;
smooth = 1;
x = 861;
y = 663;
},
{
smooth = 0;
x = 858;
y = 741;
},
{
smooth = 0;
x = 763.1;
y = 762.396;
},
{
segmentType = curve;
smooth = 1;
x = 665;
y = 764;
},
{
smooth = 0;
x = 549.86;
y = 765.882;
},
{
smooth = 0;
x = 461;
y = 722;
},
{
segmentType = curve;
smooth = 1;
x = 453;
y = 646;
},
{
smooth = 0;
x = 444;
y = 562;
},
{
smooth = 0;
x = 550;
y = 560;
},
{
segmentType = curve;
smooth = 0;
x = 602;
y = 580;
},
{
segmentType = line;
smooth = 0;
x = 550;
y = 516;
},
{
smooth = 0;
x = 488;
y = 516;
},
{
smooth = 0;
x = 399.332;
y = 548.168;
}
);
}
);
lib = {
};
name = sinGI;
unicodes = (
);
width = 970;
};
};
};
width = 758;
}
);
},
